#N canvas 89 22 1202 754 10;
#N canvas 0 22 450 300 (subpatch) 0;
#X array scope 1000 float 0;
#X coords 0 1 999 -1 200 100 1;
#X restore -754 -553 graph;
#X obj -547 -552 tgl 15 1 empty gui_scope-switch empty 0 -6 0 10 -1
-262144 -262144 0 1;
#X obj -182 -446 dac~;
#X text -770 -466 -1;
#X text -764 -511 0;
#X text -764 -557 1;
#X obj -547 -529 metro 100;
#X floatatom -503 -1125 5 0 0 3 velocity - -;
#X obj -205 -824 pack 0 0 0;
#X msg -249 -850 stop;
#X obj -383 -724 tgl 18 0 empty empty H1 4 10 0 10 -262130 -258113
-45076 0 1;
#X obj -544 -785 route 1 2;
#X obj -494 -724 tgl 20 0 empty empty F2 5 10 0 10 -204800 -258113
-1 0 1;
#X obj -172 -584 *~;
#X obj -587 -724 tgl 20 0 empty empty F1 5 10 0 10 -204800 -258113
-1 0 1;
#X obj -784 -1111 bng 20 250 50 0 empty gui_all_bang empty 17 7 0 10
-4034 -1 -1;
#X text -528 -554 << Graph output ON/OFF;
#X obj -379 -571 vu 15 120 empty empty -1 -8 0 10 -66577 -1 1 0;
#X obj -323 -567 prvu~;
#X obj -399 -1142 notein;
#X floatatom -450 -1125 5 0 0 3 channel - -;
#X obj -205 -785 route 1 2 3 4 5 6 7 8;
#X obj -205 -850 poly 8 1;
#X obj -311 -724 tgl 18 0 empty empty H2 4 10 0 10 -262130 -258113
-1 0 1;
#X obj -239 -724 tgl 18 0 empty empty H3 4 10 0 10 -262130 -258113
-1 0 1;
#X obj -166 -724 tgl 18 0 empty empty H4 4 10 0 10 -262130 -258113
-1 0 1;
#X obj -92 -724 tgl 18 0 empty empty H5 4 10 0 10 -262130 -258113 -1
0 1;
#X obj -17 -724 tgl 18 0 empty empty H6 4 10 0 10 -262130 -258113 -1
0 1;
#X obj 56 -724 tgl 18 0 empty empty H7 4 10 0 10 -262130 -258113 -1
0 1;
#X obj 129 -724 tgl 18 0 empty empty H8 4 10 0 10 -262130 -258113 -1
0 1;
#X obj -544 -850 poly 2 1;
#X obj -595 -946 unpack f f;
#X obj -256 -946 unpack f f;
#X text -200 -801 8 POLY HARMONIC TONES;
#X obj -399 -1077 lib/tabread-two ctrl_fn;
#X obj -595 -973 pack 0 0;
#X obj -595 -1000 moses 128;
#X obj -256 -973 pack 0 0;
#X obj -256 -1000 moses 128;
#X obj -399 -1046 unpack f f;
#X obj -440 -749 lib/hvoice;
#X text -598 -1018 FUNDAMENTAL;
#X text -255 -1017 HARMONIC;
#X obj 196 -527 lib/midiout_sysex;
#X obj 150 -1079 uzi 128;
#X obj 189 -1056 - 1;
#X obj 190 -983 lib/tabread-two inst_fn;
#X obj 163 -813 spigot;
#X obj 163 -1009 t a a;
#X floatatom 163 -788 5 0 0 1 KEY_NOTE_ON_INSTRUMENT - -;
#X floatatom 189 -1033 5 0 0 0 - - -;
#X msg 190 -842 1;
#X msg 220 -842 0;
#X obj 190 -896 sel;
#X msg 259 -958 0;
#X msg 260 -940 1;
#X obj 190 -923 route \$1;
#X text 206 -1011 INSTRUMENT ARRAY INDEX SEEKER;
#X obj -709 -779 vradio 15 1 0 2 empty gui_int_waveform empty 0 -8
0 10 -262144 -1 -1 0;
#X text -692 -779 SINE;
#X text -692 -764 SAW;
#X text -724 -797 WAVEFORM;
#X text -741 -810 INTERNAL SYNTH;
#X obj 196 -662 vradio 15 1 0 2 empty gui_midi_sysex_main_on-off MIDI_SYSEX_OUT
0 -8 0 10 -262144 -1 -1 0;
#X text 216 -662 OFF;
#X text 216 -647 ON;
#X msg -587 -850 stop;
#X text -583 -801 2 POLY FUNDAMENTAL TONES;
#X obj -544 -824 pack 0 0 0;
#X obj -631 -877 nbx 4 18 -1e+37 1e+37 0 0 gui_ft_fn-note empty ft_fn-note
0 -8 0 15 -204786 -1 -1 0 256;
#X obj -538 -877 nbx 4 16 -1e+37 1e+37 0 0 gui_ft_vel empty ft_vel
0 -8 0 13 -262130 -1 -1 0 256;
#X obj -292 -877 nbx 4 18 -1e+37 1e+37 0 0 gui_ht_fn_note empty ht_fn_note
0 -8 0 15 -204800 -1 -1 6 256;
#X obj -199 -877 nbx 4 16 -1e+37 1e+37 0 0 gui_ht_vel empty ht_vel
0 -8 0 13 -262130 -1 -1 0 256;
#X obj -573 -1125 nbx 4 18 -1e+37 1e+37 0 0 gui_note_in_array_index
empty note_in_array_index 0 -8 0 15 -261234 -1 -1 62 256;
#X obj -595 -914 t b a a a;
#X obj -256 -914 t b a a a;
#X obj -323 -525 send gui_vumeter;
#X obj -547 -472 tabwrite~ gui-scope;
#X obj -348 -1142 r gui-piano;
#X obj -348 -1125 unpack f f;
#X obj -531 -1091 pack 0 0 0;
#X obj -531 -1066 s gui_midi_in;
#X obj -597 -636 t a a;
#X obj 163 -757 spigot;
#X text 171 -1100 MIDI NOTE OUT FOR;
#X obj 286 -662 vradio 15 1 0 2 empty gui_midi_pitchbend_main_on-off
MIDI_PITCH_BEND_OUT 0 -8 0 10 -262144 -1 -1 0;
#X text 306 -663 OFF;
#X text 306 -645 ON;
#X obj 267 -600 moses 1;
#X obj 212 -621 == 0;
#X obj 267 -621 == 0;
#X obj 253 -757 spigot;
#X obj 253 -728 lib/pitch-bend_poly;
#X obj 211 -579 s gui_midi_sysex_main_chk;
#X obj 212 -559 s gui_midi_pitchbend_main_chk;
#X obj -784 -1142 r init_signal;
#X text -780 -1126 PATCH INITIALIZATION SIGNAL;
#X obj -784 -1078 t b b b;
#X obj -745 -618 lib/control-settings;
#X text -228 -427 Line out to soundcard;
#X text 202 -1088 PITCHBEND/SYSEX OUT;
#X obj -555 -749 lib/xenfvoice;
#X obj -368 -749 lib/hvoice;
#X obj -296 -749 lib/hvoice;
#X obj -223 -749 lib/hvoice;
#X obj -149 -749 lib/hvoice;
#X obj -74 -749 lib/hvoice;
#X obj 72 -749 lib/hvoice;
#X obj -1 -749 lib/hvoice;
#X obj -648 -749 lib/xenfvoice;
#X obj -597 -672 unpack f f f f;
#X obj 222 -810 r gui_sysex_chanout_value;
#X obj 212 -600 moses 1;
#X obj 163 -729 noteout;
#X obj 176 -498 lib/usefuls/midi_thru;
#X obj -112 -523 / 127;
#X obj -109 -548 hsl 128 15 0 127 0 0 empty gui_int_output_volume empty
-2 -8 0 10 -262144 -1 -1 1800 1;
#X obj -112 -466 line~;
#X obj -112 -495 pack 0 50;
#X floatatom 23 -532 5 0 0 0 - - -;
#X floatatom 23 -506 5 0 0 0 - - -;
#X text -86 -595 << SETUP OUTPUT VOLUME;
#X text -73 -528 Final amplifier;
#X msg -112 -593 18;
#X obj -106 -572 send gui_int_output_volume_default;
#X text 68 -457 Copyright 2013-Today by Walter Mantovani;
#X text 22 -431 Licensed under 'GNU Affero General Public License v.3.0'
;
#X text 68 -444 armonici.it@gmail.com // www.armonici.it;
#X obj 190 -866 b;
#X obj 220 -866 b;
#X obj 150 -1116 b;
#X connect 1 0 6 0;
#X connect 6 0 77 0;
#X connect 7 0 80 1;
#X connect 8 0 21 0;
#X connect 9 0 22 0;
#X connect 11 0 109 0;
#X connect 11 1 101 0;
#X connect 13 0 2 1;
#X connect 13 0 2 0;
#X connect 13 0 18 0;
#X connect 13 0 77 0;
#X connect 15 0 97 0;
#X connect 18 0 17 0;
#X connect 18 0 76 0;
#X connect 19 0 73 0;
#X connect 19 0 34 0;
#X connect 19 1 7 0;
#X connect 19 1 35 1;
#X connect 19 1 37 1;
#X connect 19 1 92 1;
#X connect 19 1 113 1;
#X connect 19 2 20 0;
#X connect 20 0 80 2;
#X connect 21 0 40 1;
#X connect 21 1 102 1;
#X connect 21 2 103 1;
#X connect 21 3 104 1;
#X connect 21 4 105 1;
#X connect 21 5 106 1;
#X connect 21 6 108 1;
#X connect 21 7 107 1;
#X connect 22 0 8 0;
#X connect 22 1 8 1;
#X connect 22 2 8 2;
#X connect 30 0 68 0;
#X connect 30 1 68 1;
#X connect 30 2 68 2;
#X connect 31 0 69 0;
#X connect 31 0 74 0;
#X connect 31 1 70 0;
#X connect 31 1 30 1;
#X connect 32 0 71 0;
#X connect 32 0 75 0;
#X connect 32 1 72 0;
#X connect 32 1 22 1;
#X connect 34 0 39 0;
#X connect 35 0 31 0;
#X connect 36 0 35 0;
#X connect 37 0 32 0;
#X connect 38 0 37 0;
#X connect 39 0 36 0;
#X connect 39 1 38 0;
#X connect 40 0 13 0;
#X connect 40 1 10 0;
#X connect 44 2 45 0;
#X connect 45 0 50 0;
#X connect 46 0 56 0;
#X connect 47 0 49 0;
#X connect 48 0 47 0;
#X connect 48 1 46 0;
#X connect 49 0 83 0;
#X connect 49 0 91 0;
#X connect 50 0 48 0;
#X connect 51 0 47 1;
#X connect 52 0 47 1;
#X connect 53 0 128 0;
#X connect 53 1 129 0;
#X connect 54 0 56 1;
#X connect 55 0 56 1;
#X connect 56 0 53 0;
#X connect 56 1 129 0;
#X connect 58 0 40 2;
#X connect 58 0 101 1;
#X connect 58 0 102 2;
#X connect 58 0 103 2;
#X connect 58 0 104 2;
#X connect 58 0 105 2;
#X connect 58 0 106 2;
#X connect 58 0 107 2;
#X connect 58 0 108 2;
#X connect 58 0 109 1;
#X connect 63 0 43 0;
#X connect 63 0 89 0;
#X connect 63 0 83 1;
#X connect 66 0 30 0;
#X connect 68 0 11 0;
#X connect 73 0 80 0;
#X connect 74 0 130 0;
#X connect 74 1 54 0;
#X connect 74 2 53 1;
#X connect 74 3 30 0;
#X connect 75 0 130 0;
#X connect 75 1 55 0;
#X connect 75 2 53 1;
#X connect 75 3 22 0;
#X connect 78 0 79 0;
#X connect 79 0 34 0;
#X connect 79 0 73 0;
#X connect 79 1 35 1;
#X connect 79 1 37 1;
#X connect 79 1 92 1;
#X connect 79 1 113 1;
#X connect 80 0 81 0;
#X connect 82 0 40 0;
#X connect 82 0 92 2;
#X connect 82 0 102 0;
#X connect 82 0 103 0;
#X connect 82 0 104 0;
#X connect 82 0 105 0;
#X connect 82 0 106 0;
#X connect 82 0 107 0;
#X connect 82 0 108 0;
#X connect 82 1 98 1;
#X connect 83 0 113 0;
#X connect 85 0 90 0;
#X connect 85 0 91 1;
#X connect 88 0 93 0;
#X connect 89 0 112 0;
#X connect 90 0 88 0;
#X connect 91 0 92 0;
#X connect 95 0 15 0;
#X connect 97 0 123 0;
#X connect 97 1 58 0;
#X connect 97 2 98 0;
#X connect 101 0 110 0;
#X connect 101 1 13 0;
#X connect 101 2 12 0;
#X connect 102 0 13 0;
#X connect 102 1 23 0;
#X connect 103 0 13 0;
#X connect 103 1 24 0;
#X connect 104 0 13 0;
#X connect 104 1 25 0;
#X connect 105 0 13 0;
#X connect 105 1 26 0;
#X connect 106 0 13 0;
#X connect 106 1 27 0;
#X connect 107 0 13 0;
#X connect 107 1 29 0;
#X connect 108 0 13 0;
#X connect 108 1 28 0;
#X connect 109 0 110 0;
#X connect 109 1 13 0;
#X connect 109 2 14 0;
#X connect 110 0 82 0;
#X connect 111 0 113 2;
#X connect 112 0 94 0;
#X connect 115 0 118 0;
#X connect 115 0 120 0;
#X connect 116 0 115 0;
#X connect 116 0 119 0;
#X connect 117 0 13 1;
#X connect 118 0 117 0;
#X connect 123 0 116 0;
#X connect 123 0 124 0;
#X connect 128 0 51 0;
#X connect 129 0 52 0;
#X connect 130 0 44 0;
