#N canvas 125 152 1232 531 10;
#X obj 228 25 r gui_ht-tone;
#X obj 313 25 r gui_ht-velocity;
#X obj 323 45 r gui_ht-midicent;
#X obj 332 65 r gui_ht-frequency;
#X obj 228 142 route 1 2 3 4 5 6 7 8 9 10 11 12 13 14 15 16;
#X obj 228 111 pack 0 0 0 0 0;
#X obj 228 47 t a a;
#X obj 261 272 s \$1-h-note;
#X obj 261 251 s \$1-h-cent;
#X obj 261 230 s \$1-h-oct;
#X obj 261 209 s \$1-h-freq;
#X obj 381 209 s \$2-h-freq;
#X obj 381 230 s \$2-h-oct;
#X obj 381 251 s \$2-h-cent;
#X obj 381 272 s \$2-h-note;
#X obj 501 209 s \$3-h-freq;
#X obj 501 230 s \$3-h-oct;
#X obj 501 251 s \$3-h-cent;
#X obj 501 272 s \$3-h-note;
#X obj 621 209 s \$4-h-freq;
#X obj 621 230 s \$4-h-oct;
#X obj 621 251 s \$4-h-cent;
#X obj 621 272 s \$4-h-note;
#X obj 741 209 s \$5-h-freq;
#X obj 741 230 s \$5-h-oct;
#X obj 741 251 s \$5-h-cent;
#X obj 741 272 s \$5-h-note;
#X obj 861 209 s \$6-h-freq;
#X obj 861 230 s \$6-h-oct;
#X obj 861 251 s \$6-h-cent;
#X obj 861 272 s \$6-h-note;
#X obj 981 209 s \$7-h-freq;
#X obj 981 230 s \$7-h-oct;
#X obj 981 251 s \$7-h-cent;
#X obj 981 272 s \$7-h-note;
#X obj 1101 209 s \$8-h-freq;
#X obj 1101 230 s \$8-h-oct;
#X obj 1101 251 s \$8-h-cent;
#X obj 1101 272 s \$8-h-note;
#X obj 261 349 s \$9-h-freq;
#X obj 261 370 s \$9-h-oct;
#X obj 261 391 s \$9-h-cent;
#X obj 261 412 s \$9-h-note;
#X obj 381 349 s \$10-h-freq;
#X obj 381 370 s \$10-h-oct;
#X obj 381 391 s \$10-h-cent;
#X obj 381 412 s \$10-h-note;
#X obj 501 349 s \$11-h-freq;
#X obj 501 370 s \$11-h-oct;
#X obj 501 391 s \$11-h-cent;
#X obj 501 412 s \$11-h-note;
#X obj 621 349 s \$12-h-freq;
#X obj 621 370 s \$12-h-oct;
#X obj 621 391 s \$12-h-cent;
#X obj 621 412 s \$12-h-note;
#X obj 741 349 s \$13-h-freq;
#X obj 741 370 s \$13-h-oct;
#X obj 741 391 s \$13-h-cent;
#X obj 741 412 s \$13-h-note;
#X obj 861 349 s \$14-h-freq;
#X obj 861 370 s \$14-h-oct;
#X obj 861 391 s \$14-h-cent;
#X obj 861 412 s \$14-h-note;
#X obj 981 349 s \$15-h-freq;
#X obj 981 370 s \$15-h-oct;
#X obj 981 391 s \$15-h-cent;
#X obj 981 412 s \$15-h-note;
#X obj 1101 349 s \$16-h-freq;
#X obj 1101 370 s \$16-h-oct;
#X obj 1101 391 s \$16-h-cent;
#X obj 1101 412 s \$16-h-note;
#X obj 262 293 s \$1-h;
#X obj 381 293 s \$2-h;
#X obj 501 293 s \$3-h;
#X obj 621 293 s \$4-h;
#X obj 741 293 s \$5-h;
#X obj 860 293 s \$6-h;
#X obj 981 293 s \$7-h;
#X obj 1101 293 s \$8-h;
#X obj 262 433 s \$9-h;
#X obj 381 433 s \$10-h;
#X obj 501 433 s \$11-h;
#X obj 621 433 s \$12-h;
#X obj 741 433 s \$13-h;
#X obj 861 433 s \$14-h;
#X obj 981 433 s \$15-h;
#X obj 1100 433 s \$16-h;
#X obj 665 129 send gui_ft_notename_label;
#X obj 832 129 send gui_ft_cents_label;
#X obj 747 97 ../tools/midinotename_labeler;
#X obj 666 39 r gui_ft-data;
#X obj 666 64 unpack f f f f;
#X obj 828 183 gui_hstack_infoer;
#X text 593 82 freq|rel-tone|vel|midicent;
#X obj 981 129 send gui_ft_interval_label;
#X obj 708 183 gui_hstack_infoer;
#X obj 468 183 gui_hstack_infoer;
#X obj 348 183 gui_hstack_infoer;
#X obj 228 183 gui_hstack_infoer;
#X obj 588 183 gui_hstack_infoer;
#X obj 948 183 gui_hstack_infoer;
#X obj 1068 183 gui_hstack_infoer;
#X obj 228 323 gui_hstack_infoer;
#X obj 348 323 gui_hstack_infoer;
#X obj 468 323 gui_hstack_infoer;
#X obj 588 323 gui_hstack_infoer;
#X obj 708 323 gui_hstack_infoer;
#X obj 828 323 gui_hstack_infoer;
#X obj 948 323 gui_hstack_infoer;
#X obj 1068 323 gui_hstack_infoer;
#X obj 10 10 cnv 15 200 820 empty empty empty 20 12 0 14 -1 -66577
0;
#X obj 15 15 cnv 15 190 810 empty empty empty 20 12 0 14 -233017 -66577
0;
#X obj 26 774 cnv 15 100 40 empty \$1-h 1 43 20 0 25 -261689 -33289
0;
#X obj 33 674 cnv 15 85 40 empty \$3-h 3 35 20 0 25 -225271 -33289
0;
#X obj 43 574 cnv 15 65 40 empty \$5-h 5 26 20 0 25 -262131 -33289
0;
#X obj 43 474 cnv 15 65 40 empty \$7-h 7 26 20 0 25 -228992 -33289
0;
#X obj 53 374 cnv 15 45 40 empty \$9-h 9 16 20 0 25 -261681 -33289
0;
#X obj 53 274 cnv 15 45 40 empty \$11-h 11 7 20 0 25 -237549 -33289
0;
#X obj 53 174 cnv 15 45 40 empty \$13-h 13 7 20 0 25 -225280 -33289
0;
#X obj 53 74 cnv 15 45 40 empty \$15-h 15 7 20 0 25 -257472 -33289
0;
#X obj 26 724 cnv 15 100 40 empty \$2-h 2 43 20 0 25 -261689 -33289
0;
#X obj 26 624 cnv 15 100 40 empty \$4-h 4 43 20 0 25 -261689 -33289
0;
#X obj 26 424 cnv 15 100 40 empty \$8-h 8 43 20 0 25 -261689 -33289
0;
#X obj 26 24 cnv 15 100 40 empty \$16-h 16 35 20 0 25 -261689 -33289
0;
#X obj 33 524 cnv 15 85 40 empty \$6-h 6 35 20 0 25 -225271 -33289
0;
#X obj 33 224 cnv 15 85 40 empty \$12-h 12 28 20 0 25 -225271 -33289
0;
#X obj 43 324 cnv 15 65 40 empty \$10-h 10 19 20 0 25 -262131 -33289
0;
#X obj 43 124 cnv 15 65 40 empty \$14-h 14 19 20 0 25 -228992 -33289
0;
#X obj 129 770 cnv 15 65 15 empty \$1-h-note G3 5 8 0 14 -233017 -233017
0;
#X obj 129 786 cnv 15 65 15 empty \$1-h-cent 0 5 8 0 14 -233017 -233017
0;
#X obj 129 802 cnv 15 65 15 empty \$1-h-freq 195.998 5 8 0 14 -233017
-233017 0;
#X obj 129 720 cnv 15 65 15 empty \$2-h-note C-1 5 8 0 14 -233017 -233017
0;
#X obj 129 736 cnv 15 65 15 empty \$2-h-cent 0 5 8 0 14 -233017 -233017
0;
#X obj 129 752 cnv 15 65 15 empty \$2-h-freq 0 5 8 0 14 -233017 -233017
0;
#X obj 129 670 cnv 15 65 15 empty \$3-h-note D5 5 8 0 14 -233017 -233017
0;
#X obj 129 686 cnv 15 65 15 empty \$3-h-cent 1.96 5 8 0 14 -233017
-233017 0;
#X obj 129 702 cnv 15 65 15 empty \$3-h-freq 587.993 5 8 0 14 -233017
-233017 0;
#X obj 129 620 cnv 15 65 15 empty \$4-h-note G5 5 8 0 14 -233017 -233017
0;
#X obj 129 636 cnv 15 65 15 empty \$4-h-cent 0 5 8 0 14 -233017 -233017
0;
#X obj 129 652 cnv 15 65 15 empty \$4-h-freq 783.991 5 8 0 14 -233017
-233017 0;
#X obj 129 570 cnv 15 65 15 empty \$5-h-note E5 5 8 0 14 -233017 -233017
0;
#X obj 129 586 cnv 15 65 15 empty \$5-h-cent -13.69 5 8 0 14 -233017
-233017 0;
#X obj 129 602 cnv 15 65 15 empty \$5-h-freq 654.064 5 8 0 14 -233017
-233017 0;
#X obj 129 520 cnv 15 65 15 empty \$6-h-note D6 5 8 0 14 -233017 -233017
0;
#X obj 129 536 cnv 15 65 15 empty \$6-h-cent +1.96 5 8 0 14 -233017
-233017 0;
#X obj 129 552 cnv 15 65 15 empty \$6-h-freq 1175.99 5 8 0 14 -233017
-233017 0;
#X obj 129 470 cnv 15 65 15 empty \$7-h-note F6 5 8 0 14 -233017 -233017
0;
#X obj 129 486 cnv 15 65 15 empty \$7-h-cent -31.17 5 8 0 14 -233017
-233017 0;
#X obj 129 502 cnv 15 65 15 empty \$7-h-freq 1371.98 5 8 0 14 -233017
-233017 0;
#X obj 129 420 cnv 15 65 15 empty \$8-h-note G\$6 5 8 0 14 -233017
-233017 0;
#X obj 129 436 cnv 15 65 15 empty \$8-h-cent -45 5 8 0 14 -233017 -233017
0;
#X obj 129 452 cnv 15 65 15 empty \$8-h-freq 1618.6 5 8 0 14 -233017
-233017 0;
#X obj 129 370 cnv 15 65 15 empty \$9-h-note G6 5 8 0 14 -233017 -233017
0;
#X obj 129 386 cnv 15 65 15 empty \$9-h-cent +3.91 5 8 0 14 -233017
-233017 0;
#X obj 129 402 cnv 15 65 15 empty \$9-h-freq 1571.53 5 8 0 14 -233017
-233017 0;
#X obj 129 320 cnv 15 65 15 empty \$10-h-note B6 5 8 0 14 -233017 -233017
0;
#X obj 129 336 cnv 15 65 15 empty \$10-h-cent +41.31 5 8 0 14 -233017
-233017 0;
#X obj 129 352 cnv 15 65 15 empty \$10-h-freq 2023.24 5 8 0 14 -233017
-233017 0;
#X obj 129 270 cnv 15 65 15 empty \$11-h-note B6 5 8 0 14 -233017 -233017
0;
#X obj 129 286 cnv 15 65 15 empty \$11-h-cent -48.68 5 8 0 14 -233017
-233017 0;
#X obj 129 302 cnv 15 65 15 empty \$11-h-freq 1920.76 5 8 0 14 -233017
-233017 0;
#X obj 129 220 cnv 15 65 15 empty \$12-h-note D\$7 5 8 0 14 -233017
-233017 0;
#X obj 129 236 cnv 15 65 15 empty \$12-h-cent -43.05 5 8 0 14 -233017
-233017 0;
#X obj 129 252 cnv 15 65 15 empty \$12-h-freq 2427.89 5 8 0 14 -233017
-233017 0;
#X obj 129 170 cnv 15 65 15 empty \$13-h-note C-1 5 8 0 14 -233017
-233017 0;
#X obj 129 186 cnv 15 65 15 empty \$13-h-cent 0 5 8 0 14 -233017 -233017
0;
#X obj 129 202 cnv 15 65 15 empty \$13-h-freq 0 5 8 0 14 -233017 -233017
0;
#X obj 129 120 cnv 15 65 15 empty \$14-h-note F7 5 8 0 14 -233017 -233017
0;
#X obj 129 136 cnv 15 65 15 empty \$14-h-cent +23.83 5 8 0 14 -233017
-233017 0;
#X obj 129 152 cnv 15 65 15 empty \$14-h-freq 2832.54 5 8 0 14 -233017
-233017 0;
#X obj 129 70 cnv 15 65 15 empty \$15-h-note F\$7 5 8 0 14 -233017
-233017 0;
#X obj 129 86 cnv 15 65 15 empty \$15-h-cent -11.73 5 8 0 14 -233017
-233017 0;
#X obj 129 102 cnv 15 65 15 empty \$15-h-freq 2939.97 5 8 0 14 -233017
-233017 0;
#X obj 129 20 cnv 15 65 15 empty \$16-h-note G\$7 5 8 0 14 -233017
-233017 0;
#X obj 129 36 cnv 15 65 15 empty \$16-h-cent -45 5 8 0 14 -233017 -233017
0;
#X obj 129 52 cnv 15 65 15 empty \$16-h-freq 3237.19 5 8 0 14 -233017
-233017 0;
#X text 627 514 Copyright 2013-Today by Walter Mantovani;
#X text 581 540 Licensed under 'GNU Affero General Public License v.3.0'
;
#X text 627 527 armonici.it@gmail.com // www.armonici.it;
#X connect 0 0 6 0;
#X connect 1 0 5 1;
#X connect 2 0 5 2;
#X connect 3 0 5 3;
#X connect 4 0 98 0;
#X connect 4 1 97 0;
#X connect 4 2 96 0;
#X connect 4 3 99 0;
#X connect 4 4 95 0;
#X connect 4 5 92 0;
#X connect 4 6 100 0;
#X connect 4 7 101 0;
#X connect 4 8 102 0;
#X connect 4 9 103 0;
#X connect 4 10 104 0;
#X connect 4 11 105 0;
#X connect 4 12 106 0;
#X connect 4 13 107 0;
#X connect 4 14 108 0;
#X connect 4 15 109 0;
#X connect 5 0 4 0;
#X connect 6 0 5 0;
#X connect 6 1 5 4;
#X connect 89 0 87 0;
#X connect 89 1 88 0;
#X connect 89 2 94 0;
#X connect 90 0 91 0;
#X connect 91 3 89 0;
#X connect 92 0 30 0;
#X connect 92 1 29 0;
#X connect 92 2 28 0;
#X connect 92 3 27 0;
#X connect 92 4 76 0;
#X connect 95 0 26 0;
#X connect 95 1 25 0;
#X connect 95 2 24 0;
#X connect 95 3 23 0;
#X connect 95 4 75 0;
#X connect 96 0 18 0;
#X connect 96 1 17 0;
#X connect 96 2 16 0;
#X connect 96 3 15 0;
#X connect 96 4 73 0;
#X connect 97 0 14 0;
#X connect 97 1 13 0;
#X connect 97 2 12 0;
#X connect 97 3 11 0;
#X connect 97 4 72 0;
#X connect 98 0 7 0;
#X connect 98 1 8 0;
#X connect 98 2 9 0;
#X connect 98 3 10 0;
#X connect 98 4 71 0;
#X connect 99 0 22 0;
#X connect 99 1 21 0;
#X connect 99 2 20 0;
#X connect 99 3 19 0;
#X connect 99 4 74 0;
#X connect 100 0 34 0;
#X connect 100 1 33 0;
#X connect 100 2 32 0;
#X connect 100 3 31 0;
#X connect 100 4 77 0;
#X connect 101 0 38 0;
#X connect 101 1 37 0;
#X connect 101 2 36 0;
#X connect 101 3 35 0;
#X connect 101 4 78 0;
#X connect 102 0 42 0;
#X connect 102 1 41 0;
#X connect 102 2 40 0;
#X connect 102 3 39 0;
#X connect 102 4 79 0;
#X connect 103 0 46 0;
#X connect 103 1 45 0;
#X connect 103 2 44 0;
#X connect 103 3 43 0;
#X connect 103 4 80 0;
#X connect 104 0 50 0;
#X connect 104 1 49 0;
#X connect 104 2 48 0;
#X connect 104 3 47 0;
#X connect 104 4 81 0;
#X connect 105 0 54 0;
#X connect 105 1 53 0;
#X connect 105 2 52 0;
#X connect 105 3 51 0;
#X connect 105 4 82 0;
#X connect 106 0 58 0;
#X connect 106 1 57 0;
#X connect 106 2 56 0;
#X connect 106 3 55 0;
#X connect 106 4 83 0;
#X connect 107 0 62 0;
#X connect 107 1 61 0;
#X connect 107 2 60 0;
#X connect 107 3 59 0;
#X connect 107 4 84 0;
#X connect 108 0 66 0;
#X connect 108 1 65 0;
#X connect 108 2 64 0;
#X connect 108 3 63 0;
#X connect 108 4 85 0;
#X connect 109 0 70 0;
#X connect 109 1 69 0;
#X connect 109 2 68 0;
#X connect 109 3 67 0;
#X connect 109 4 86 0;
#X coords 0 -1 1 1 200 820 2 10 10;
