#N canvas 393 191 291 300 10;
#X obj 100 102 vsl 102 15 0 127 0 0 empty empty empty 0 -9 0 10 -262144
-1 -1 1400 1;
#X obj 101 101 cnv 15 100 18 empty empty HStack 28 9 0 14 -1 -262144
0;
#X obj 175 140 MouseState;
#X obj 100 235 oneshot;
#X msg 175 218 clear;
#X obj 175 166 == 0;
#X obj 175 192 sel 1;
#X obj 100 140 b;
#X obj 100 267 pddplink gui_hstack.pd -box;
#X connect 0 0 7 0;
#X connect 2 0 5 0;
#X connect 3 0 8 0;
#X connect 4 0 3 0;
#X connect 5 0 6 0;
#X connect 6 0 4 0;
#X connect 7 0 3 0;
#X coords 0 -1 1 1 102 20 2 100 100;
