#N canvas 186 22 1062 817 10;
#N canvas 57 84 450 300 (subpatch) 0;
#X array ctrl_fn_gui 256 float 2;
#X coords 0 128 255 -128 256 140 1 0 0;
#X restore 0 14 graph;
#N canvas 57 84 450 300 (subpatch) 0;
#X array inst_fn_gui 256 float 2;
#X coords 0 128 255 -128 256 140 1 0 0;
#X restore 266 14 graph;
#N canvas 268 140 450 278 (subpatch) 0;
#X array ff_base_table_gui 65 float 2;
#X coords 0 -32 64 32 66 140 1 0 0;
#X restore 1 173 graph;
#N canvas 268 140 450 278 (subpatch) 0;
#X array ff_table_gui 195 float 2;
#X coords 0 3000 194 -32 195 140 1 0 0;
#X restore 266 173 graph;
#N canvas 268 140 450 278 (subpatch) 0;
#X array hf_table_gui 256 float 2;
#X coords 0 28000 255 0 256 140 1 0 0;
#X restore 1 331 graph;
#N canvas 268 140 450 278 (subpatch) 0;
#X array sf_table_gui 256 float 2;
#X coords 0 1000 255 0 256 140 1 0 0;
#X restore 266 331 graph;
#N canvas 268 140 450 278 (subpatch) 0;
#X array inst_table_gui 384 float 2;
#X coords 0 2.09715e+06 383 0 384 140 1 0 0;
#X restore 1 490 graph;
#N canvas 0 22 450 278 (subpatch) 0;
#X array bulk-tuning-dump_gui 521 float 2;
#X coords 0 255 520 0 521 140 1 0 0;
#X restore 1 650 graph;
#X msg 542 53 copy ctrl_fn;
#X obj 542 87 arraycopy ctrl_fn_gui;
#X msg 692 53 copy inst_fn;
#X obj 692 87 arraycopy inst_fn_gui;
#X msg 555 544 copy inst_table;
#X obj 555 578 arraycopy inst_table_gui;
#X msg 549 208 copy ff_base_table;
#X obj 549 242 arraycopy ff_base_table_gui;
#X msg 745 208 copy ff_table;
#X obj 745 242 arraycopy ff_table_gui;
#X msg 550 373 copy hf_table;
#X obj 550 407 arraycopy hf_table_gui;
#X msg 747 373 copy sf_table;
#X obj 747 407 arraycopy sf_table_gui;
#X msg 556 690 copy bulk-tuning-dump;
#X obj 556 724 arraycopy bulk-tuning-dump_gui;
#X text 268 14 x : 0 > 127 MIDI NOTES;
#X text 72 174 x : 0 > 64 FUNDAMENTAL TONES;
#X text 3 14 x : 0 > 127 MIDI NOTES;
#X text 3 24 y : -128 > +128 values;
#X text 26 36 (FTfn RN \, FTfn RN );
#X text 268 24 y : -128 > +128 values;
#X text 268 183 y : -32 > 3000 (Hz etc.);
#X text 289 36 (fn \, RN);
#X text 268 173 x : 0 > 64 FUNDAMENTAL TONES (FTfn RN);
#X text 289 194 (FTfn RN \, Freq \, Midi.cent);
#X text 4 332 x : 0 > 127 HARMONICS (HTfn RN);
#X text 24 355 (Freq \, Midi.cent);
#X text 72 184 y : -32 > +32 FT SCALA STEPS;
#X text 288 355 (Freq \, Midi.cent);
#X text 268 332 x : 0 > 127 SUBHARMONICS (HTfn RN);
#X text 5 491 x : 0 > 127 MIDI INSTRUMENT NOTES;
#X text 268 342 y : 0 > 1000 (Hz etc.);
#X text 4 342 y : 0 > 28000 (Hz etc.);
#X text 25 514 (Midi.cent \, Midi21bit \, Freq);
#X text 5 651 x : 0 > 521 SysEx Bytes;
#X text 5 661 y : 0 > 255 values;
#X text 5 501 y : 0 > 2.09715e+06 (14mu \, Hz etc.);
#X obj 923 329 r gui_array_refresh;
#N canvas 57 84 450 300 (subpatch) 0;
#X array used_keys_gui 128 float 2;
#X coords 0 127 127 0 128 140 1 0 0;
#X restore 394 490 graph;
#X text 403 629 0 > 127 used keys;
#X msg 725 544 copy used_keys;
#X obj 725 578 arraycopy used_keys_gui;
#X connect 8 0 9 0;
#X connect 10 0 11 0;
#X connect 12 0 13 0;
#X connect 14 0 15 0;
#X connect 16 0 17 0;
#X connect 18 0 19 0;
#X connect 20 0 21 0;
#X connect 22 0 23 0;
#X connect 46 0 10 0;
#X connect 46 0 8 0;
#X connect 46 0 14 0;
#X connect 46 0 16 0;
#X connect 46 0 18 0;
#X connect 46 0 20 0;
#X connect 46 0 12 0;
#X connect 46 0 22 0;
#X connect 46 0 49 0;
#X connect 49 0 50 0;
#X coords 0 -1 1 1 523 792 2 0 0;
