#N canvas 405 478 798 312 10;
#X obj 62 108 != 0;
#X msg -34 155 color 6 12;
#X msg 80 155 color 16 0;
#X obj 62 130 sel 0;
#X text 101 107 1;
#X msg 288 154 color 2 0;
#X msg 470 5 color 3 12;
#X msg 543 5 color 13 0;
#X msg 470 33 color 6 12;
#X msg 543 33 color 16 0;
#X msg 470 61 color 5 12;
#X msg 543 61 color 15 0;
#X msg 470 89 color 8 12;
#X msg 543 89 color 18 0;
#X msg 470 117 color 4 12;
#X msg 543 117 color 14 0;
#X msg 470 173 color 7 12;
#X msg 543 173 color 17 0;
#X msg 470 201 color 9 12;
#X msg 543 201 color 19 0;
#X obj 363 5 sel 1 2 4 8 16;
#X obj 363 33 sel 3 6 12;
#X obj 363 61 sel 5 10;
#X obj 363 89 sel 7 14;
#X obj 363 117 sel 9;
#X obj 363 145 sel 11;
#X obj 363 173 sel 13;
#X obj 363 201 sel 15;
#X obj 511 262 list trim;
#X obj 511 237 list prepend set;
#X obj 620 262 list trim;
#X obj 620 237 list prepend set;
#X obj 62 83 unpack f f f f;
#X obj 62 59 inlet;
#X obj 14 257 outlet;
#X obj 90 257 outlet;
#X obj 167 257 outlet;
#X obj 237 257 outlet;
#X obj 303 257 outlet;
#X msg 461 145 color -1.50069e+07 12;
#X msg 602 145 color -1.12561e+07 0;
#X msg 217 154 color 10 10;
#X obj 237 208 ../tools/gui_labeler;
#X obj 14 207 ../tools/midinotename_labeler;
#X text 6 274 note name;
#X text 90 274 cents;
#X text 144 274 midi_interval;
#X text 231 274 frequency;
#X text 293 275 h-num color;
#X connect 0 0 3 0;
#X connect 1 0 38 0;
#X connect 2 0 38 0;
#X connect 3 0 1 0;
#X connect 3 0 41 0;
#X connect 3 1 2 0;
#X connect 3 1 5 0;
#X connect 5 0 34 0;
#X connect 5 0 35 0;
#X connect 5 0 36 0;
#X connect 5 0 37 0;
#X connect 6 0 29 0;
#X connect 7 0 31 0;
#X connect 8 0 29 0;
#X connect 9 0 31 0;
#X connect 10 0 29 0;
#X connect 11 0 31 0;
#X connect 12 0 29 0;
#X connect 13 0 31 0;
#X connect 14 0 29 0;
#X connect 15 0 31 0;
#X connect 16 0 29 0;
#X connect 17 0 31 0;
#X connect 18 0 29 0;
#X connect 19 0 31 0;
#X connect 20 0 6 0;
#X connect 20 0 7 0;
#X connect 20 1 6 0;
#X connect 20 1 7 0;
#X connect 20 2 6 0;
#X connect 20 2 7 0;
#X connect 20 3 6 0;
#X connect 20 3 7 0;
#X connect 20 4 7 0;
#X connect 20 4 6 0;
#X connect 21 0 8 0;
#X connect 21 0 9 0;
#X connect 21 1 8 0;
#X connect 21 1 9 0;
#X connect 21 2 8 0;
#X connect 21 2 9 0;
#X connect 22 0 10 0;
#X connect 22 0 11 0;
#X connect 22 1 10 0;
#X connect 22 1 11 0;
#X connect 23 0 12 0;
#X connect 23 0 13 0;
#X connect 23 1 12 0;
#X connect 23 1 13 0;
#X connect 24 0 14 0;
#X connect 24 0 15 0;
#X connect 25 0 39 0;
#X connect 25 0 40 0;
#X connect 26 0 16 0;
#X connect 26 0 17 0;
#X connect 27 0 18 0;
#X connect 27 0 19 0;
#X connect 28 0 1 0;
#X connect 29 0 28 0;
#X connect 30 0 2 0;
#X connect 31 0 30 0;
#X connect 32 0 0 0;
#X connect 32 1 43 0;
#X connect 32 2 42 0;
#X connect 32 3 20 0;
#X connect 32 3 21 0;
#X connect 32 3 22 0;
#X connect 32 3 23 0;
#X connect 32 3 24 0;
#X connect 32 3 25 0;
#X connect 32 3 26 0;
#X connect 32 3 27 0;
#X connect 33 0 32 0;
#X connect 39 0 29 0;
#X connect 40 0 31 0;
#X connect 41 0 34 0;
#X connect 41 0 35 0;
#X connect 41 0 36 0;
#X connect 41 0 37 0;
#X connect 42 0 37 0;
#X connect 43 0 34 0;
#X connect 43 1 35 0;
#X connect 43 2 36 0;
