#N canvas 360 93 263 235 10;
#X obj 15 12 vsl 54 15 0 127 0 0 empty empty empty 0 -9 0 10 -262144
-1 -1 400 1;
#X obj 15 147 pddplink dsp-help.pd -box;
#X obj 16 11 cnv 15 52 18 empty empty HStack 2 8 0 14 -204800 -66577
0;
#X obj 90 20 MouseState;
#X obj 15 115 oneshot;
#X msg 90 98 clear;
#X obj 90 46 == 0;
#X obj 90 72 sel 1;
#X obj 15 50 b;
#X connect 0 0 8 0;
#X connect 3 0 6 0;
#X connect 4 0 1 0;
#X connect 5 0 4 0;
#X connect 6 0 7 0;
#X connect 7 0 5 0;
#X connect 8 0 4 0;
