#N canvas 314 22 1087 786 10;
#N canvas 310 132 159 147 - 0;
#X obj 24 64 moses 1;
#X obj 84 64 moses 1;
#X obj 24 43 == 0;
#X obj 84 43 == 0;
#X obj 24 18 inlet;
#X obj 84 18 inlet;
#X obj 24 88 outlet;
#X obj 84 88 outlet;
#X connect 0 0 6 0;
#X connect 1 0 7 0;
#X connect 2 0 0 0;
#X connect 3 0 1 0;
#X connect 4 0 2 0;
#X connect 5 0 3 0;
#X restore 7 108 pd -;
#N canvas 310 132 159 147 - 0;
#X obj 24 64 moses 1;
#X obj 84 64 moses 1;
#X obj 24 43 == 0;
#X obj 84 43 == 0;
#X obj 24 18 inlet;
#X obj 84 18 inlet;
#X obj 24 88 outlet;
#X obj 84 88 outlet;
#X connect 0 0 6 0;
#X connect 1 0 7 0;
#X connect 2 0 0 0;
#X connect 3 0 1 0;
#X connect 4 0 2 0;
#X connect 5 0 3 0;
#X restore 1 84 pd -;
#N canvas 310 132 159 147 - 0;
#X obj 24 64 moses 1;
#X obj 84 64 moses 1;
#X obj 24 43 == 0;
#X obj 84 43 == 0;
#X obj 24 18 inlet;
#X obj 84 18 inlet;
#X obj 24 88 outlet;
#X obj 84 88 outlet;
#X connect 0 0 6 0;
#X connect 1 0 7 0;
#X connect 2 0 0 0;
#X connect 3 0 1 0;
#X connect 4 0 2 0;
#X connect 5 0 3 0;
#X restore 43 108 pd -;
#N canvas 310 132 159 147 - 0;
#X obj 24 64 moses 1;
#X obj 84 64 moses 1;
#X obj 24 43 == 0;
#X obj 84 43 == 0;
#X obj 24 18 inlet;
#X obj 84 18 inlet;
#X obj 24 88 outlet;
#X obj 84 88 outlet;
#X connect 0 0 6 0;
#X connect 1 0 7 0;
#X connect 2 0 0 0;
#X connect 3 0 1 0;
#X connect 4 0 2 0;
#X connect 5 0 3 0;
#X restore 37 84 pd -;
#N canvas 310 132 159 147 - 0;
#X obj 24 64 moses 1;
#X obj 84 64 moses 1;
#X obj 24 43 == 0;
#X obj 84 43 == 0;
#X obj 24 18 inlet;
#X obj 84 18 inlet;
#X obj 24 88 outlet;
#X obj 84 88 outlet;
#X connect 0 0 6 0;
#X connect 1 0 7 0;
#X connect 2 0 0 0;
#X connect 3 0 1 0;
#X connect 4 0 2 0;
#X connect 5 0 3 0;
#X restore 79 108 pd -;
#N canvas 310 132 159 147 - 0;
#X obj 24 64 moses 1;
#X obj 84 64 moses 1;
#X obj 24 43 == 0;
#X obj 84 43 == 0;
#X obj 24 18 inlet;
#X obj 84 18 inlet;
#X obj 24 88 outlet;
#X obj 84 88 outlet;
#X connect 0 0 6 0;
#X connect 1 0 7 0;
#X connect 2 0 0 0;
#X connect 3 0 1 0;
#X connect 4 0 2 0;
#X connect 5 0 3 0;
#X restore 73 84 pd -;
#N canvas 310 132 159 147 - 0;
#X obj 24 64 moses 1;
#X obj 84 64 moses 1;
#X obj 24 43 == 0;
#X obj 84 43 == 0;
#X obj 24 18 inlet;
#X obj 84 18 inlet;
#X obj 24 88 outlet;
#X obj 84 88 outlet;
#X connect 0 0 6 0;
#X connect 1 0 7 0;
#X connect 2 0 0 0;
#X connect 3 0 1 0;
#X connect 4 0 2 0;
#X connect 5 0 3 0;
#X restore 115 108 pd -;
#N canvas 310 132 159 147 - 0;
#X obj 24 64 moses 1;
#X obj 84 64 moses 1;
#X obj 24 43 == 0;
#X obj 84 43 == 0;
#X obj 24 18 inlet;
#X obj 84 18 inlet;
#X obj 24 88 outlet;
#X obj 84 88 outlet;
#X connect 0 0 6 0;
#X connect 1 0 7 0;
#X connect 2 0 0 0;
#X connect 3 0 1 0;
#X connect 4 0 2 0;
#X connect 5 0 3 0;
#X restore 109 84 pd -;
#N canvas 310 132 159 147 - 0;
#X obj 24 64 moses 1;
#X obj 84 64 moses 1;
#X obj 24 43 == 0;
#X obj 84 43 == 0;
#X obj 24 18 inlet;
#X obj 84 18 inlet;
#X obj 24 88 outlet;
#X obj 84 88 outlet;
#X connect 0 0 6 0;
#X connect 1 0 7 0;
#X connect 2 0 0 0;
#X connect 3 0 1 0;
#X connect 4 0 2 0;
#X connect 5 0 3 0;
#X restore 151 108 pd -;
#N canvas 310 132 159 147 - 0;
#X obj 24 64 moses 1;
#X obj 84 64 moses 1;
#X obj 24 43 == 0;
#X obj 84 43 == 0;
#X obj 24 18 inlet;
#X obj 84 18 inlet;
#X obj 24 88 outlet;
#X obj 84 88 outlet;
#X connect 0 0 6 0;
#X connect 1 0 7 0;
#X connect 2 0 0 0;
#X connect 3 0 1 0;
#X connect 4 0 2 0;
#X connect 5 0 3 0;
#X restore 145 84 pd -;
#N canvas 310 132 159 147 - 0;
#X obj 24 64 moses 1;
#X obj 84 64 moses 1;
#X obj 24 43 == 0;
#X obj 84 43 == 0;
#X obj 24 18 inlet;
#X obj 84 18 inlet;
#X obj 24 88 outlet;
#X obj 84 88 outlet;
#X connect 0 0 6 0;
#X connect 1 0 7 0;
#X connect 2 0 0 0;
#X connect 3 0 1 0;
#X connect 4 0 2 0;
#X connect 5 0 3 0;
#X restore 187 108 pd -;
#N canvas 310 132 159 147 - 0;
#X obj 24 64 moses 1;
#X obj 84 64 moses 1;
#X obj 24 43 == 0;
#X obj 84 43 == 0;
#X obj 24 18 inlet;
#X obj 84 18 inlet;
#X obj 24 88 outlet;
#X obj 84 88 outlet;
#X connect 0 0 6 0;
#X connect 1 0 7 0;
#X connect 2 0 0 0;
#X connect 3 0 1 0;
#X connect 4 0 2 0;
#X connect 5 0 3 0;
#X restore 181 84 pd -;
#N canvas 310 132 159 147 - 0;
#X obj 24 64 moses 1;
#X obj 84 64 moses 1;
#X obj 24 43 == 0;
#X obj 84 43 == 0;
#X obj 24 18 inlet;
#X obj 84 18 inlet;
#X obj 24 88 outlet;
#X obj 84 88 outlet;
#X connect 0 0 6 0;
#X connect 1 0 7 0;
#X connect 2 0 0 0;
#X connect 3 0 1 0;
#X connect 4 0 2 0;
#X connect 5 0 3 0;
#X restore 223 108 pd -;
#N canvas 310 132 159 147 - 0;
#X obj 24 64 moses 1;
#X obj 84 64 moses 1;
#X obj 24 43 == 0;
#X obj 84 43 == 0;
#X obj 24 18 inlet;
#X obj 84 18 inlet;
#X obj 24 88 outlet;
#X obj 84 88 outlet;
#X connect 0 0 6 0;
#X connect 1 0 7 0;
#X connect 2 0 0 0;
#X connect 3 0 1 0;
#X connect 4 0 2 0;
#X connect 5 0 3 0;
#X restore 217 84 pd -;
#N canvas 310 132 159 147 - 0;
#X obj 24 64 moses 1;
#X obj 84 64 moses 1;
#X obj 24 43 == 0;
#X obj 84 43 == 0;
#X obj 24 18 inlet;
#X obj 84 18 inlet;
#X obj 24 88 outlet;
#X obj 84 88 outlet;
#X connect 0 0 6 0;
#X connect 1 0 7 0;
#X connect 2 0 0 0;
#X connect 3 0 1 0;
#X connect 4 0 2 0;
#X connect 5 0 3 0;
#X restore 259 108 pd -;
#N canvas 310 132 159 147 - 0;
#X obj 24 64 moses 1;
#X obj 84 64 moses 1;
#X obj 24 43 == 0;
#X obj 84 43 == 0;
#X obj 24 18 inlet;
#X obj 84 18 inlet;
#X obj 24 88 outlet;
#X obj 84 88 outlet;
#X connect 0 0 6 0;
#X connect 1 0 7 0;
#X connect 2 0 0 0;
#X connect 3 0 1 0;
#X connect 4 0 2 0;
#X connect 5 0 3 0;
#X restore 253 84 pd -;
#N canvas 0 22 450 278 (subpatch) 0;
#X array ht_channel-poly 16 float 2;
#X coords 0 16 16 0 64 64 2 0 0;
#X restore 983 -41 graph;
#N canvas 0 22 450 278 (subpatch) 0;
#X array ft_channel-poly 16 float 2;
#X coords 0 16 16 0 64 64 2 0 0;
#X restore 982 134 graph;
#X msg 387 -356 1;
#X msg 387 -336 2;
#X msg 387 -316 3;
#X msg 387 -296 4;
#X msg 387 -276 5;
#X msg 387 -256 6;
#X msg 387 -236 7;
#X msg 387 -216 8;
#X msg 387 -196 9;
#X msg 387 -176 10;
#X msg 387 -156 11;
#X msg 387 -136 12;
#X msg 387 -116 13;
#X msg 387 -96 14;
#X msg 387 -76 15;
#X msg 387 -56 16;
#X obj 51 -98 tgl 15 0 empty empty empty 17 7 0 10 -262144 -1 -1 0
1;
#X obj 51 -44 t a a a a a a a a a a a a a a a a;
#N canvas 0 22 450 278 (subpatch) 0;
#X array ht_channel-onoff 16 float 2;
#X coords 0 1 16 0 64 32 2 0 0;
#X restore 903 -9 graph;
#N canvas 0 22 450 278 (subpatch) 0;
#X array ft_channel-onoff 16 float 2;
#X coords 0 1 16 0 64 32 2 0 0;
#X restore 902 166 graph;
#X obj 387 -35 - 1;
#X floatatom 387 -14 5 0 0 0 - - -;
#X obj 347 -336 t a b;
#X obj 347 -316 t a b;
#X obj 347 -296 t a b;
#X obj 347 -276 t a b;
#X obj 347 -256 t a b;
#X obj 347 -236 t a b;
#X obj 347 -216 t a b;
#X obj 347 -196 t a b;
#X obj 347 -176 t a b;
#X obj 347 -156 t a b;
#X obj 347 -136 t a b;
#X obj 347 -116 t a b;
#X obj 347 -96 t a b;
#X obj 347 -75 t a b;
#X obj 347 -56 t a b;
#X obj 51 -72 t a a;
#X msg 70 -115 1;
#X msg 25 -115 0;
#X obj 450 -301 uzi 16;
#X obj 483 -251 - 1;
#X obj 483 -227 tabread ht_channel-onoff;
#X obj 483 -176 f;
#X obj 507 -176 +;
#X floatatom 468 -126 5 0 0 3 - - -;
#X floatatom 509 -127 5 0 0 0 - - -;
#X obj 450 -347 bng 15 250 50 0 empty empty empty 17 7 0 10 -262144
-1 -1;
#X msg 507 -298 0;
#X obj 425 -103 tabwrite ht_channel-poly;
#X obj 524 -329 uzi 16;
#X obj 557 -309 - 1;
#X obj 450 -325 t b b b;
#X obj 557 -289 t b a;
#X obj 557 -249 tabwrite ht_channel-poly;
#X msg 557 -269 0;
#X obj 483 -201 t b a a;
#X obj 520 -151 spigot;
#X obj 456 -151 spigot;
#X obj 507 -275 t a a a;
#X obj 456 -277 t a a;
#X obj 0 0 cnv 15 300 54 empty empty empty 20 12 0 14 -1 -66577 0;
#X obj 6 6 tgl 18 0 empty empty empty 17 7 0 10 -204786 -258113 -1
0 1;
#X obj 24 6 tgl 18 0 empty empty empty 17 7 0 10 -204786 -258113 -1
0 1;
#X obj 6 30 tgl 18 0 empty empty empty 17 7 0 10 -204800 -258113 -1
0 1;
#X obj 24 30 tgl 18 0 empty empty empty 17 7 0 10 -204800 -258113 -1
0 1;
#X obj 42 6 tgl 18 0 empty empty empty 17 7 0 10 -204786 -258113 -1
0 1;
#X obj 42 30 tgl 18 0 empty empty empty 17 7 0 10 -204800 -258113 -1
0 1;
#X obj 60 30 tgl 18 0 empty empty empty 17 7 0 10 -204800 -258113 -1
0 1;
#X obj 96 6 tgl 18 0 empty empty empty 17 7 0 10 -204786 -258113 -1
0 1;
#X obj 78 30 tgl 18 0 empty empty empty 17 7 0 10 -204800 -258113 -1
0 1;
#X obj 96 30 tgl 18 0 empty empty empty 17 7 0 10 -204800 -258113 -1
0 1;
#X obj 114 6 tgl 18 0 empty empty empty 17 7 0 10 -204786 -258113 -1
0 1;
#X obj 132 6 tgl 18 0 empty empty empty 17 7 0 10 -204786 -258113 -1
0 1;
#X obj 114 30 tgl 18 0 empty empty empty 17 7 0 10 -204800 -258113
-1 0 1;
#X obj 132 30 tgl 18 0 empty empty empty 17 7 0 10 -204800 -258113
-1 0 1;
#X obj 150 6 tgl 18 0 empty empty empty 17 7 0 10 -204786 -258113 -1
0 1;
#X obj 168 6 tgl 18 0 empty empty empty 17 7 0 10 -192176 -258113 -1
0 1;
#X obj 150 30 tgl 18 0 empty empty empty 17 7 0 10 -204800 -258113
-1 0 1;
#X obj 168 30 tgl 18 0 empty empty empty 17 7 0 10 -192252 -258113
-1 0 1;
#X obj 186 6 tgl 18 0 empty empty empty 17 7 0 10 -204786 -258113 -1
0 1;
#X obj 204 6 tgl 18 0 empty empty empty 17 7 0 10 -204786 -258113 -1
0 1;
#X obj 186 30 tgl 18 0 empty empty empty 17 7 0 10 -204800 -258113
-1 0 1;
#X obj 204 30 tgl 18 0 empty empty empty 17 7 0 10 -204800 -258113
-1 0 1;
#X obj 222 6 tgl 18 0 empty empty empty 17 7 0 10 -204786 -258113 -1
0 1;
#X obj 240 6 tgl 18 0 empty empty empty 17 7 0 10 -204786 -258113 -1
0 1;
#X obj 222 30 tgl 18 0 empty empty empty 17 7 0 10 -204800 -258113
-1 0 1;
#X obj 240 30 tgl 18 0 empty empty empty 17 7 0 10 -204800 -258113
-1 0 1;
#X obj 258 6 tgl 18 0 empty empty empty 17 7 0 10 -204786 -258113 -1
0 1;
#X obj 276 6 tgl 18 0 empty empty empty 17 7 0 10 -204786 -258113 -1
0 1;
#X obj 258 30 tgl 18 0 empty empty empty 17 7 0 10 -204800 -258113
-1 0 1;
#X obj 276 30 tgl 18 0 empty empty empty 17 7 0 10 -204800 -258113
-1 0 1;
#X text 12 6 1;
#X text 30 6 2;
#X text 102 6 6;
#X text 120 6 7;
#X text 138 6 8;
#X text 156 6 9;
#X text 170 6 10;
#X text 189 6 11;
#X text 206 6 12;
#X text 224 6 13;
#X text 242 6 14;
#X text 260 6 15;
#X text 278 6 16;
#X text 12 30 1;
#X text 30 30 2;
#X text 48 30 3;
#X text 66 30 4;
#X text 84 30 5;
#X text 102 30 6;
#X text 120 30 7;
#X text 138 30 8;
#X text 156 30 9;
#X text 170 30 10;
#X text 189 30 11;
#X text 206 30 12;
#X text 224 30 13;
#X text 242 30 14;
#X text 260 30 15;
#X text 278 30 16;
#X text 48 6 3;
#X obj 347 -356 t a b;
#X obj 347 2 tabwrite ht_channel-onoff;
#X obj 347 -15 t b a;
#X msg 387 27 1;
#X msg 387 47 2;
#X msg 387 67 3;
#X msg 387 87 4;
#X msg 387 107 5;
#X msg 387 127 6;
#X msg 387 147 7;
#X msg 387 167 8;
#X msg 387 187 9;
#X msg 387 207 10;
#X msg 387 227 11;
#X msg 387 247 12;
#X msg 387 267 13;
#X msg 387 287 14;
#X msg 387 307 15;
#X msg 387 327 16;
#X obj 387 348 - 1;
#X floatatom 387 369 5 0 0 0 - - -;
#X obj 347 47 t a b;
#X obj 347 67 t a b;
#X obj 347 87 t a b;
#X obj 347 107 t a b;
#X obj 347 127 t a b;
#X obj 347 147 t a b;
#X obj 347 167 t a b;
#X obj 347 187 t a b;
#X obj 347 207 t a b;
#X obj 347 227 t a b;
#X obj 347 247 t a b;
#X obj 347 267 t a b;
#X obj 347 287 t a b;
#X obj 347 308 t a b;
#X obj 347 327 t a b;
#X obj 450 82 uzi 16;
#X obj 483 132 - 1;
#X obj 483 207 f;
#X obj 507 207 +;
#X floatatom 468 257 5 0 0 3 - - -;
#X floatatom 509 256 5 0 0 0 - - -;
#X obj 450 36 bng 15 250 50 0 empty empty empty 17 7 0 10 -262144 -1
-1;
#X msg 507 85 0;
#X obj 524 54 uzi 16;
#X obj 557 74 - 1;
#X obj 450 58 t b b b;
#X obj 557 94 t b a;
#X msg 557 114 0;
#X obj 483 182 t b a a;
#X obj 520 232 spigot;
#X obj 456 232 spigot;
#X obj 507 108 t a a a;
#X obj 456 106 t a a;
#X obj 347 27 t a b;
#X obj 347 368 t b a;
#X obj 47 224 tgl 15 0 empty empty empty 17 7 0 10 -262144 -1 -1 0
1;
#X obj 47 171 t a a a a a a a a a a a a a a a a;
#X obj 47 198 t a a;
#X msg 64 239 1;
#X msg 19 239 0;
#X obj 347 385 tabwrite ft_channel-onoff;
#X obj 425 280 tabwrite ft_channel-poly;
#X obj 483 156 tabread ft_channel-onoff;
#X obj 557 134 tabwrite ft_channel-poly;
#X obj 10 -150 r chn-ht-all-off;
#X obj 116 -149 r chn-ht-all-on;
#X obj 8 274 r chn-ft-all-off;
#X obj 114 275 r chn-ft-all-on;
#X obj 584 341 list prepend label;
#X obj 584 363 list trim;
#X obj 584 385 s chn-ft-count;
#X obj 584 297 + 1;
#X obj 584 319 l2s;
#X obj 601 -47 list prepend label;
#X obj 601 -25 list trim;
#X obj 601 -69 l2s;
#X obj 601 -3 s chn-ht-count;
#X obj 737 88 list prepend label;
#X obj 737 110 list trim;
#X obj 737 66 l2s;
#X obj 737 43 expr $f1 + $f2 + $f3;
#X msg 737 20 0;
#X obj 737 133 s chn-full-count;
#X obj 778 -72 t b a;
#X obj 766 316 t b a;
#X obj 601 -91 + 1;
#X obj 67 0 cnv 15 170 5 empty empty empty 5 15 1 18 -204786 -66577
0;
#X obj 67 49 cnv 5 170 5 empty empty empty 5 15 1 18 -204800 -66577
0;
#X obj 646 -102 s chn-ht-count_poly;
#X obj 705 365 s chn-ft-count_poly;
#X obj 848 -306 ../pitch-bend_mode4_sender;
#X obj 78 6 tgl 18 0 empty empty empty 17 7 0 10 -204786 -258113 -1
0 1;
#X text 84 6 5;
#X obj 60 6 tgl 18 0 empty empty empty 17 7 0 10 -204786 -258113 -1
0 1;
#X text 66 6 4;
#X text 851 -343 MIDI SET SENDING functions;
#X obj 848 -326 ../pitch-bend_range_sender;
#X obj 848 -286 ../pitch-bend_gmonoff_sender;
#X obj 33 -315 r gui_sysex_chanout_input;
#X obj 33 -290 i;
#X obj 33 -244 s gui_sysex_chanout_value;
#X floatatom 33 -266 5 0 0 0 - - -;
#X obj 128 -291 loadbang;
#X obj 128 -269 delay 200;
#X msg 87 -268 1;
#X obj 848 -256 ../pitch-bend_noteoff_sender;
#X obj 848 -226 ../common_ch-noteoff_sender;
#X obj 848 -206 ../common_resetctrl_sender;
#X obj 848 -186 ../common_localctrl_sender;
#X obj 848 -166 ../common_chvolume_sender;
#X obj 848 -146 ../common_exprmax_sender;
#X connect 0 0 82 0;
#X connect 0 1 80 0;
#X connect 1 0 83 0;
#X connect 1 1 81 0;
#X connect 2 0 85 0;
#X connect 2 1 84 0;
#X connect 3 0 86 0;
#X connect 3 1 234 0;
#X connect 4 0 88 0;
#X connect 4 1 232 0;
#X connect 5 0 89 0;
#X connect 5 1 87 0;
#X connect 6 0 92 0;
#X connect 6 1 90 0;
#X connect 7 0 93 0;
#X connect 7 1 91 0;
#X connect 8 0 96 0;
#X connect 8 1 94 0;
#X connect 9 0 97 0;
#X connect 9 1 95 0;
#X connect 10 0 100 0;
#X connect 10 1 98 0;
#X connect 11 0 101 0;
#X connect 11 1 99 0;
#X connect 12 0 104 0;
#X connect 12 1 102 0;
#X connect 13 0 105 0;
#X connect 13 1 103 0;
#X connect 14 0 108 0;
#X connect 14 1 106 0;
#X connect 15 0 109 0;
#X connect 15 1 107 0;
#X connect 18 0 38 0;
#X connect 19 0 38 0;
#X connect 20 0 38 0;
#X connect 21 0 38 0;
#X connect 22 0 38 0;
#X connect 23 0 38 0;
#X connect 24 0 38 0;
#X connect 25 0 38 0;
#X connect 26 0 38 0;
#X connect 27 0 38 0;
#X connect 28 0 38 0;
#X connect 29 0 38 0;
#X connect 30 0 38 0;
#X connect 31 0 38 0;
#X connect 32 0 38 0;
#X connect 33 0 38 0;
#X connect 34 0 55 0;
#X connect 35 0 107 0;
#X connect 35 1 106 0;
#X connect 35 2 103 0;
#X connect 35 3 102 0;
#X connect 35 4 99 0;
#X connect 35 5 98 0;
#X connect 35 6 95 0;
#X connect 35 7 94 0;
#X connect 35 8 91 0;
#X connect 35 9 90 0;
#X connect 35 10 87 0;
#X connect 35 11 232 0;
#X connect 35 12 234 0;
#X connect 35 13 84 0;
#X connect 35 14 81 0;
#X connect 35 15 80 0;
#X connect 38 0 39 0;
#X connect 39 0 141 1;
#X connect 40 0 142 0;
#X connect 40 1 19 0;
#X connect 41 0 142 0;
#X connect 41 1 20 0;
#X connect 42 0 142 0;
#X connect 42 1 21 0;
#X connect 43 0 142 0;
#X connect 43 1 22 0;
#X connect 44 0 142 0;
#X connect 44 1 23 0;
#X connect 45 0 142 0;
#X connect 45 1 24 0;
#X connect 46 0 142 0;
#X connect 46 1 25 0;
#X connect 47 0 142 0;
#X connect 47 1 26 0;
#X connect 48 0 142 0;
#X connect 48 1 27 0;
#X connect 49 0 142 0;
#X connect 49 1 28 0;
#X connect 50 0 142 0;
#X connect 50 1 29 0;
#X connect 51 0 142 0;
#X connect 51 1 30 0;
#X connect 52 0 142 0;
#X connect 52 1 31 0;
#X connect 53 0 142 0;
#X connect 53 1 32 0;
#X connect 54 0 142 0;
#X connect 54 1 33 0;
#X connect 55 0 35 0;
#X connect 56 0 34 0;
#X connect 57 0 34 0;
#X connect 58 2 78 0;
#X connect 59 0 60 0;
#X connect 60 0 74 0;
#X connect 61 0 62 0;
#X connect 61 0 75 0;
#X connect 62 0 61 1;
#X connect 63 0 67 0;
#X connect 64 0 67 1;
#X connect 64 0 226 0;
#X connect 65 0 70 0;
#X connect 66 0 77 0;
#X connect 68 2 69 0;
#X connect 69 0 71 0;
#X connect 70 0 58 0;
#X connect 70 1 66 0;
#X connect 70 2 68 0;
#X connect 71 0 73 0;
#X connect 71 1 72 1;
#X connect 73 0 72 0;
#X connect 73 0 216 0;
#X connect 73 0 224 0;
#X connect 74 0 61 0;
#X connect 74 1 62 1;
#X connect 74 2 75 1;
#X connect 74 2 76 1;
#X connect 75 0 64 0;
#X connect 76 0 63 0;
#X connect 77 0 61 1;
#X connect 77 1 62 0;
#X connect 77 2 62 1;
#X connect 77 2 75 1;
#X connect 77 2 76 1;
#X connect 78 0 76 0;
#X connect 78 1 59 0;
#X connect 80 0 0 0;
#X connect 80 0 140 0;
#X connect 81 0 1 0;
#X connect 81 0 40 0;
#X connect 82 0 0 1;
#X connect 82 0 194 0;
#X connect 83 0 1 1;
#X connect 83 0 161 0;
#X connect 84 0 2 0;
#X connect 84 0 41 0;
#X connect 85 0 2 1;
#X connect 85 0 162 0;
#X connect 86 0 3 1;
#X connect 86 0 163 0;
#X connect 87 0 5 0;
#X connect 87 0 44 0;
#X connect 88 0 4 1;
#X connect 88 0 164 0;
#X connect 89 0 5 1;
#X connect 89 0 165 0;
#X connect 90 0 6 0;
#X connect 90 0 45 0;
#X connect 91 0 7 0;
#X connect 91 0 46 0;
#X connect 92 0 6 1;
#X connect 92 0 166 0;
#X connect 93 0 7 1;
#X connect 93 0 167 0;
#X connect 94 0 8 0;
#X connect 94 0 47 0;
#X connect 95 0 9 0;
#X connect 95 0 48 0;
#X connect 96 0 8 1;
#X connect 96 0 168 0;
#X connect 97 0 9 1;
#X connect 97 0 169 0;
#X connect 98 0 10 0;
#X connect 98 0 49 0;
#X connect 99 0 11 0;
#X connect 99 0 50 0;
#X connect 100 0 10 1;
#X connect 100 0 170 0;
#X connect 101 0 11 1;
#X connect 101 0 171 0;
#X connect 102 0 12 0;
#X connect 102 0 51 0;
#X connect 103 0 13 0;
#X connect 103 0 52 0;
#X connect 104 0 12 1;
#X connect 104 0 172 0;
#X connect 105 0 13 1;
#X connect 105 0 173 0;
#X connect 106 0 14 0;
#X connect 106 0 53 0;
#X connect 107 0 15 0;
#X connect 107 0 54 0;
#X connect 108 0 14 1;
#X connect 108 0 174 0;
#X connect 109 0 15 1;
#X connect 109 0 175 0;
#X connect 140 0 142 0;
#X connect 140 1 18 0;
#X connect 142 0 65 0;
#X connect 142 1 141 0;
#X connect 143 0 159 0;
#X connect 144 0 159 0;
#X connect 145 0 159 0;
#X connect 146 0 159 0;
#X connect 147 0 159 0;
#X connect 148 0 159 0;
#X connect 149 0 159 0;
#X connect 150 0 159 0;
#X connect 151 0 159 0;
#X connect 152 0 159 0;
#X connect 153 0 159 0;
#X connect 154 0 159 0;
#X connect 155 0 159 0;
#X connect 156 0 159 0;
#X connect 157 0 159 0;
#X connect 158 0 159 0;
#X connect 159 0 160 0;
#X connect 160 0 201 1;
#X connect 161 0 195 0;
#X connect 161 1 144 0;
#X connect 162 0 195 0;
#X connect 162 1 145 0;
#X connect 163 0 195 0;
#X connect 163 1 146 0;
#X connect 164 0 195 0;
#X connect 164 1 147 0;
#X connect 165 0 195 0;
#X connect 165 1 148 0;
#X connect 166 0 195 0;
#X connect 166 1 149 0;
#X connect 167 0 195 0;
#X connect 167 1 150 0;
#X connect 168 0 195 0;
#X connect 168 1 151 0;
#X connect 169 0 195 0;
#X connect 169 1 152 0;
#X connect 170 0 195 0;
#X connect 170 1 153 0;
#X connect 171 0 195 0;
#X connect 171 1 154 0;
#X connect 172 0 195 0;
#X connect 172 1 155 0;
#X connect 173 0 195 0;
#X connect 173 1 156 0;
#X connect 174 0 195 0;
#X connect 174 1 157 0;
#X connect 175 0 195 0;
#X connect 175 1 158 0;
#X connect 176 2 193 0;
#X connect 177 0 203 0;
#X connect 178 0 179 0;
#X connect 178 0 190 0;
#X connect 179 0 178 1;
#X connect 180 0 202 0;
#X connect 181 0 202 1;
#X connect 181 0 212 0;
#X connect 182 0 186 0;
#X connect 183 0 192 0;
#X connect 183 0 213 0;
#X connect 184 2 185 0;
#X connect 185 0 187 0;
#X connect 186 0 176 0;
#X connect 186 1 183 0;
#X connect 186 2 184 0;
#X connect 187 0 188 0;
#X connect 187 1 204 1;
#X connect 188 0 204 0;
#X connect 188 0 225 0;
#X connect 189 0 178 0;
#X connect 189 1 179 1;
#X connect 189 2 190 1;
#X connect 189 2 191 1;
#X connect 190 0 181 0;
#X connect 191 0 180 0;
#X connect 192 0 178 1;
#X connect 192 1 179 0;
#X connect 192 2 179 1;
#X connect 192 2 190 1;
#X connect 192 2 191 1;
#X connect 193 0 191 0;
#X connect 193 1 177 0;
#X connect 194 0 195 0;
#X connect 194 1 143 0;
#X connect 195 0 182 0;
#X connect 195 1 201 0;
#X connect 196 0 198 0;
#X connect 197 0 109 0;
#X connect 197 1 108 0;
#X connect 197 2 105 0;
#X connect 197 3 104 0;
#X connect 197 4 101 0;
#X connect 197 5 100 0;
#X connect 197 6 97 0;
#X connect 197 7 96 0;
#X connect 197 8 93 0;
#X connect 197 9 92 0;
#X connect 197 10 89 0;
#X connect 197 11 88 0;
#X connect 197 12 86 0;
#X connect 197 13 85 0;
#X connect 197 14 83 0;
#X connect 197 15 82 0;
#X connect 198 0 197 0;
#X connect 199 0 196 0;
#X connect 200 0 196 0;
#X connect 203 0 189 0;
#X connect 205 0 57 0;
#X connect 206 0 56 0;
#X connect 207 0 200 0;
#X connect 208 0 199 0;
#X connect 209 0 210 0;
#X connect 210 0 211 0;
#X connect 212 0 213 0;
#X connect 212 0 225 0;
#X connect 213 0 209 0;
#X connect 213 0 230 0;
#X connect 214 0 215 0;
#X connect 215 0 217 0;
#X connect 216 0 214 0;
#X connect 216 0 229 0;
#X connect 218 0 219 0;
#X connect 219 0 223 0;
#X connect 220 0 218 0;
#X connect 221 0 220 0;
#X connect 222 0 221 0;
#X connect 224 0 222 0;
#X connect 224 1 221 1;
#X connect 225 0 222 0;
#X connect 225 1 221 2;
#X connect 226 0 216 0;
#X connect 226 0 224 0;
#X connect 232 0 43 0;
#X connect 232 0 4 0;
#X connect 234 0 3 0;
#X connect 234 0 42 0;
#X connect 239 0 240 0;
#X connect 240 0 242 0;
#X connect 242 0 241 0;
#X connect 243 0 244 0;
#X connect 244 0 245 0;
#X connect 245 0 242 0;
#X coords 0 -1 1 1 300 54 2 0 0;
