#N canvas 368 319 572 467 10;
#X obj 178 113 tabread ft_channel-poly;
#X obj 17 113 tabread ht_channel-poly;
#X text 34 98 HARMONICS CHANNELS;
#X text 188 97 FUNDAMENTALS CHANNELS;
#X obj 38 32 uzi 32;
#X obj 71 62 moses 17;
#X obj 17 79 - 1;
#X obj 178 79 - 17;
#X obj 17 140 sel 0;
#X obj 178 140 sel 0;
#X floatatom 44 166 5 0 0 0 - - -;
#X floatatom 205 166 5 0 0 0 - - -;
#X obj 118 307 ctlout;
#X msg 101 276 0;
#X obj 101 242 t b b a;
#X obj 78 -133 r gui_pitchbend_localctrl_send;
#X msg 130 276 122;
#X obj 78 -107 t b a;
#X obj 213 240 prepend set;
#X obj 213 196 sel 0;
#X obj 249 196 sel 1;
#X msg 213 216 0;
#X msg 248 216 127;
#X text 55 225 LOCAL CONTROL ON/OFF;
#X obj 331 -13 spigot;
#X floatatom 387 -8 5 0 0 0 - - -;
#X obj 387 -30 r gui_midi_sysex_main_on-off;
#X obj 361 112 r gui_sysex_chanout_value;
#X obj 361 137 prepend set;
#X msg 331 167 1;
#X text 373 96 SYSEX NOTE-OUT CHANNEL;
#X obj 99 -30 r gui_midi_pitchbend_main_on-off;
#X obj 38 -13 spigot;
#X floatatom 99 -8 5 0 0 0 - - -;
#X text 280 276 Copyright 2013-Today by Walter Mantovani;
#X text 258 302 Licensed under 'GPLv3' or 'CC BY-SA v3 unported';
#X text 280 289 armonici.it@gmail.com // www.armonici.it;
#X connect 0 0 9 0;
#X connect 1 0 8 0;
#X connect 4 2 5 0;
#X connect 5 0 6 0;
#X connect 5 1 7 0;
#X connect 6 0 1 0;
#X connect 7 0 0 0;
#X connect 8 1 10 0;
#X connect 9 1 11 0;
#X connect 10 0 14 0;
#X connect 11 0 14 0;
#X connect 13 0 12 0;
#X connect 14 0 13 0;
#X connect 14 1 16 0;
#X connect 14 2 12 2;
#X connect 15 0 17 0;
#X connect 16 0 12 1;
#X connect 17 0 32 0;
#X connect 17 0 24 0;
#X connect 17 1 19 0;
#X connect 17 1 20 0;
#X connect 18 0 13 0;
#X connect 19 0 21 0;
#X connect 20 0 22 0;
#X connect 21 0 18 0;
#X connect 22 0 18 0;
#X connect 24 0 29 0;
#X connect 26 0 24 1;
#X connect 26 0 25 0;
#X connect 27 0 28 0;
#X connect 28 0 29 0;
#X connect 29 0 14 0;
#X connect 31 0 32 1;
#X connect 31 0 33 0;
#X connect 32 0 4 0;
