#N canvas 496 199 602 416 10;
#X obj 174 113 tabread ft_channel-poly;
#X obj 17 113 tabread ht_channel-poly;
#X text 34 98 HARMONICS CHANNELS;
#X text 184 97 FUNDAMENTALS CHANNELS;
#X obj 48 32 uzi 32;
#X obj 81 62 moses 17;
#X obj 17 79 - 1;
#X obj 174 79 - 17;
#X obj 17 140 sel 0;
#X obj 174 140 sel 0;
#X floatatom 44 166 5 0 0 0 - - -;
#X floatatom 201 166 5 0 0 0 - - -;
#X obj 151 317 ctlout;
#X obj 141 247 t b b a;
#X msg 141 281 127;
#X obj 239 -68 r gui_pitchbend_exprmax_send;
#X msg 170 281 11;
#X text 85 230 CHANNEL EXPRESSION TO MAX;
#X obj 351 8 spigot;
#X floatatom 407 13 5 0 0 0 - - -;
#X obj 407 -9 r gui_midi_sysex_main_on-off;
#X obj 381 113 r gui_sysex_chanout_value;
#X obj 381 138 prepend set;
#X msg 351 168 7;
#X text 393 97 SYSEX NOTE-OUT CHANNEL;
#X obj 129 -9 r gui_midi_pitchbend_main_on-off;
#X obj 68 8 spigot;
#X floatatom 129 13 5 0 0 0 - - -;
#X text 308 288 Copyright 2013-Today by Walter Mantovani;
#X text 286 314 Licensed under 'GPLv3' or 'CC BY-SA v3 unported';
#X text 308 301 armonici.it@gmail.com // www.armonici.it;
#X connect 0 0 9 0;
#X connect 1 0 8 0;
#X connect 4 2 5 0;
#X connect 5 0 6 0;
#X connect 5 1 7 0;
#X connect 6 0 1 0;
#X connect 7 0 0 0;
#X connect 8 1 10 0;
#X connect 9 1 11 0;
#X connect 10 0 13 0;
#X connect 11 0 13 0;
#X connect 13 0 14 0;
#X connect 13 1 16 0;
#X connect 13 2 12 2;
#X connect 14 0 12 0;
#X connect 15 0 26 0;
#X connect 15 0 18 0;
#X connect 16 0 12 1;
#X connect 18 0 23 0;
#X connect 20 0 18 1;
#X connect 20 0 19 0;
#X connect 21 0 22 0;
#X connect 22 0 23 0;
#X connect 23 0 13 0;
#X connect 25 0 26 1;
#X connect 25 0 27 0;
#X connect 26 0 4 0;
