#N canvas 57 81 667 411 10;
#X obj 214 169 tabread ft_channel-poly;
#X obj 27 169 tabread ht_channel-poly;
#X text 44 154 HARMONICS CHANNELS;
#X text 224 153 FUNDAMENTALS CHANNELS;
#X obj 68 88 uzi 32;
#X obj 101 118 moses 17;
#X obj 27 135 - 1;
#X obj 214 135 - 17;
#X obj 27 196 sel 0;
#X obj 214 196 sel 0;
#X floatatom 54 222 5 0 0 0 - - -;
#X floatatom 241 222 5 0 0 0 - - -;
#X obj 90 352 ctlout;
#X obj 81 289 t b b a;
#X obj 302 -13 r gui_pitchbend_chvolume_send;
#X msg 107 323 7;
#X msg 78 323 127;
#X text 45 271 CHANNEL VOLUME TO MAX;
#X obj 411 61 spigot;
#X floatatom 467 66 5 0 0 0 - - -;
#X obj 467 44 r gui_midi_sysex_main_on-off;
#X obj 441 166 r gui_sysex_chanout_value;
#X obj 441 191 prepend set;
#X msg 411 221 7;
#X text 453 150 SYSEX NOTE-OUT CHANNEL;
#X obj 129 44 r gui_midi_pitchbend_main_on-off;
#X obj 68 61 spigot;
#X floatatom 129 66 5 0 0 0 - - -;
#X connect 0 0 9 0;
#X connect 1 0 8 0;
#X connect 4 2 5 0;
#X connect 5 0 6 0;
#X connect 5 1 7 0;
#X connect 6 0 1 0;
#X connect 7 0 0 0;
#X connect 8 1 10 0;
#X connect 9 1 11 0;
#X connect 10 0 13 0;
#X connect 11 0 13 0;
#X connect 13 0 16 0;
#X connect 13 1 15 0;
#X connect 13 2 12 2;
#X connect 14 0 26 0;
#X connect 14 0 18 0;
#X connect 15 0 12 1;
#X connect 16 0 12 0;
#X connect 18 0 23 0;
#X connect 20 0 18 1;
#X connect 20 0 19 0;
#X connect 21 0 22 0;
#X connect 22 0 23 0;
#X connect 23 0 13 0;
#X connect 25 0 26 1;
#X connect 25 0 27 0;
#X connect 26 0 4 0;
