#N canvas 682 56 644 450 10;
#X obj 218 163 tabread ft_channel-poly;
#X obj 46 163 tabread ht_channel-poly;
#X text 63 148 HARMONICS CHANNELS;
#X text 228 147 FUNDAMENTALS CHANNELS;
#X obj 82 82 uzi 32;
#X obj 115 112 moses 17;
#X obj 46 129 - 1;
#X obj 218 129 - 17;
#X obj 46 190 sel 0;
#X obj 218 190 sel 0;
#X floatatom 73 216 5 0 0 0 - - -;
#X floatatom 245 216 5 0 0 0 - - -;
#X msg 129 335 64;
#X msg 100 335 0;
#X obj 100 305 t b b a;
#X text 84 288 HOLD PEDAL OFF;
#X obj 73 245 t a a;
#X obj 245 248 t a a;
#X obj 162 375 ctlout;
#X msg 245 335 0;
#X obj 245 305 t b b a;
#X msg 274 335 121;
#X text 209 288 RESET ALL CONTROLLERS;
#X obj 278 -33 r gui_pitchbend_resetctrl_send;
#X obj 143 19 r gui_midi_pitchbend_main_on-off;
#X obj 371 36 spigot;
#X obj 82 36 spigot;
#X floatatom 143 41 5 0 0 0 - - -;
#X floatatom 427 41 5 0 0 0 - - -;
#X obj 427 19 r gui_midi_sysex_main_on-off;
#X obj 401 148 r gui_sysex_chanout_value;
#X obj 401 173 prepend set;
#X msg 371 203 1;
#X obj 371 252 t a a;
#X text 413 132 SYSEX NOTE-OUT CHANNEL;
#X connect 0 0 9 0;
#X connect 1 0 8 0;
#X connect 4 2 5 0;
#X connect 5 0 6 0;
#X connect 5 1 7 0;
#X connect 6 0 1 0;
#X connect 7 0 0 0;
#X connect 8 1 10 0;
#X connect 9 1 11 0;
#X connect 10 0 16 0;
#X connect 11 0 17 0;
#X connect 12 0 18 1;
#X connect 13 0 18 0;
#X connect 14 0 13 0;
#X connect 14 1 12 0;
#X connect 14 2 18 2;
#X connect 16 0 20 0;
#X connect 16 1 14 0;
#X connect 17 0 20 0;
#X connect 17 1 14 0;
#X connect 19 0 18 0;
#X connect 20 0 19 0;
#X connect 20 1 21 0;
#X connect 20 2 18 2;
#X connect 21 0 18 1;
#X connect 23 0 26 0;
#X connect 23 0 25 0;
#X connect 24 0 26 1;
#X connect 24 0 27 0;
#X connect 25 0 32 0;
#X connect 26 0 4 0;
#X connect 29 0 25 1;
#X connect 29 0 28 0;
#X connect 30 0 31 0;
#X connect 31 0 32 0;
#X connect 32 0 33 0;
#X connect 33 0 20 0;
#X connect 33 1 14 0;
