#N canvas 274 164 637 490 10;
#X obj 248 -137 r gui_pitchbend_ch-noteoff_send;
#X obj 225 63 tabread ft_channel-poly;
#X obj 17 63 tabread ht_channel-poly;
#X text 34 48 HARMONICS CHANNELS;
#X text 235 47 FUNDAMENTALS CHANNELS;
#X obj 78 -18 uzi 32;
#X obj 111 12 moses 17;
#X obj 17 29 - 1;
#X obj 225 29 - 17;
#X obj 17 90 sel 0;
#X obj 225 90 sel 0;
#X floatatom 44 116 5 0 0 0 - - -;
#X floatatom 252 116 5 0 0 0 - - -;
#X obj 148 320 ctlout;
#X obj 39 222 t b b a;
#X text 23 205 HOLD PEDAL OFF;
#X text 244 205 soft reset;
#X msg 252 256 0;
#X obj 252 220 t b b a;
#X msg 282 256 123;
#X text 237 195 ALL NOTE OFF;
#X text 135 207 soft reset;
#X obj 143 222 t b b a;
#X msg 172 256 123;
#X text 128 197 ALL NOTE OFF;
#X msg 143 256 127;
#X text 121 186 (exp. val=127);
#X msg 39 256 0;
#X msg 68 256 64;
#X obj 44 149 t a a a;
#X obj 252 151 t a a a;
#X obj 144 -81 r gui_midi_pitchbend_main_on-off;
#X obj 391 -64 spigot;
#X obj 78 -64 spigot;
#X floatatom 144 -59 5 0 0 0 - - -;
#X floatatom 447 -59 5 0 0 0 - - -;
#X obj 421 57 r gui_sysex_chanout_value;
#X obj 421 82 prepend set;
#X msg 391 112 7;
#X obj 391 151 t a a a;
#X obj 447 -81 r gui_midi_sysex_main_on-off;
#X text 432 41 SYSEX NOTE-OUT CHANNEL;
#X text 364 277 Copyright 2013-Today by Walter Mantovani;
#X text 342 303 Licensed under 'GPLv3' or 'CC BY-SA v3 unported';
#X text 364 290 armonici.it@gmail.com // www.armonici.it;
#X connect 0 0 33 0;
#X connect 0 0 32 0;
#X connect 1 0 10 0;
#X connect 2 0 9 0;
#X connect 5 2 6 0;
#X connect 6 0 7 0;
#X connect 6 1 8 0;
#X connect 7 0 2 0;
#X connect 8 0 1 0;
#X connect 9 1 11 0;
#X connect 10 1 12 0;
#X connect 11 0 29 0;
#X connect 12 0 30 0;
#X connect 14 0 27 0;
#X connect 14 1 28 0;
#X connect 14 2 13 2;
#X connect 17 0 13 0;
#X connect 18 0 17 0;
#X connect 18 1 19 0;
#X connect 18 2 13 2;
#X connect 19 0 13 1;
#X connect 22 0 25 0;
#X connect 22 1 23 0;
#X connect 22 2 13 2;
#X connect 23 0 13 1;
#X connect 25 0 13 0;
#X connect 27 0 13 0;
#X connect 28 0 13 1;
#X connect 29 0 18 0;
#X connect 29 1 22 0;
#X connect 29 2 14 0;
#X connect 30 0 18 0;
#X connect 30 1 22 0;
#X connect 30 2 14 0;
#X connect 31 0 33 1;
#X connect 31 0 34 0;
#X connect 32 0 38 0;
#X connect 33 0 5 0;
#X connect 36 0 37 0;
#X connect 37 0 38 0;
#X connect 38 0 39 0;
#X connect 39 0 18 0;
#X connect 39 1 22 0;
#X connect 39 2 14 0;
#X connect 40 0 32 1;
#X connect 40 0 35 0;
