#N canvas 150 73 776 742 10;
#X obj -720 -1119 inlet;
#X obj -127 -1119 inlet;
#X text -730 -1135 INIT BANG;
#X text -176 -1136 FUNDAMENTAL TONE CHANGE;
#X obj -172 -542 bng 15 250 50 0 empty gui_load_ctrl_map LOAD_CONTROLLER_MAP
17 7 0 10 -1 -4034 -13381;
#X obj -172 -521 bng 15 250 50 0 empty gui_load_inst_map LOAD_INSTRUMENT_MAP
17 7 0 10 -1 -4034 -13381;
#X obj -720 -729 vradio 15 1 0 2 empty gui_fm_method empty 0 -8 0 10
-262144 -1 -1 0;
#X obj -720 -691 sel 0 1;
#X obj -720 -665 bng 15 250 50 0 empty empty empty 17 7 0 10 -262144
-1 -1;
#X obj -701 -664 bng 15 250 50 0 empty empty empty 17 7 0 10 -262144
-1 -1;
#X text -742 -597 << set values >>;
#X text -766 -647 SETUP FOUNDAMENTAL MOTHER TONE;
#X text -700 -730 MIDI NOTE (0-127);
#X text -700 -715 FREQUENCY (Hz);
#X obj -720 -1020 vradio 17 1 0 9 empty gui_ft_mode SETUP_FUNDAMENTAL_TONE
0 -8 0 10 -262144 -1 -1 0;
#X msg -780 -594 M 48;
#X text -701 -1021 n-EDx (equal temperament);
#X text -702 -986 HARM/SUBHARM TRANSPOSED;
#X text -702 -967 HARM/SUBHARM NATURAL;
#X text -303 -1069 (unit \, division);
#X text -299 -735 n-EDx;
#X text -701 -933 SCALA files;
#X text -701 -917 TUN files;
#X text -701 -900 MTX files;
#X text -701 -883 LMSO files;
#X text -737 -1022 >>;
#X text -737 -988 >>;
#X text -737 -971 >>;
#X text -737 -936 >>;
#X text -737 -920 >>;
#X text -737 -903 >>;
#X text -737 -887 >>;
#X obj -720 -856 t b a;
#X text -288 -1060 click/bang;
#X text -306 -1051 to set new parms;
#X obj -233 -937 hradio 18 1 0 5 empty gui_ft_sub_transp SUBHARMONICS
0 -8 0 10 -262144 -1 -1 0;
#X obj -233 -877 hradio 18 1 0 5 empty gui_ft_har_transp HARMONICS
0 -8 0 10 -262144 -1 -1 0;
#X text -226 -877 0 -1 -2 -3 -4;
#X text -226 -937 0 +1 +2 +3 +4;
#X obj -371 -919 t b a;
#X text -340 -823 RECLICK AFTER CHANGE VARIABLES;
#X msg -442 -1073 1;
#X obj -636 -628 r fm_input_value_f;
#X obj -780 -628 r fm_input_value_m;
#X obj -780 -546 mtof;
#X floatatom -780 -529 10 0 0 0 - - -;
#X obj -780 -574 route M;
#X floatatom -636 -529 10 0 0 0 - - -;
#X obj -636 -574 route F;
#X obj -636 -546 ftom;
#X obj -682 -433 s fm_input_value;
#X msg -331 -707 2 12;
#X obj -305 -1036 s gui_ft_sub_transp_default;
#X obj -331 -750 r gui_nedx_ud-list;
#X obj -331 -673 unpack f f;
#X obj -331 -656 s gui_nedx_unit_value;
#X obj -331 -638 s gui_nedx_division_value;
#X msg -636 -594 F 440;
#X obj -720 -1090 t b b;
#X obj -172 -470 midi-map;
#X obj -478 -674 ft-map_select;
#X obj -344 -805 tools/pack2parallel;
#X obj -780 -471 list trim;
#X obj -780 -505 l2s;
#X obj -780 -488 prepend label;
#X obj -780 -454 s gui_fm_freq;
#X obj -636 -471 list trim;
#X obj -636 -505 l2s;
#X obj -636 -488 prepend label;
#X obj -636 -454 s gui_fm_midi;
#X text -472 -1089 default value;
#X obj -544 -454 s gui_fm_notename;
#X obj -544 -513 tools/midinotename_labeler;
#X obj -424 -454 s gui_fm_cents;
#X text -322 -437 Copyright 2013-Today by Walter Mantovani;
#X text -368 -411 Licensed under 'GNU Affero General Public License
v.3.0';
#X text -322 -424 armonici.it@gmail.com // www.armonici.it;
#X connect 0 0 58 0;
#X connect 1 0 59 4;
#X connect 4 0 59 0;
#X connect 5 0 59 1;
#X connect 6 0 7 0;
#X connect 7 0 8 0;
#X connect 7 1 9 0;
#X connect 8 0 15 0;
#X connect 9 0 57 0;
#X connect 14 0 32 0;
#X connect 15 0 46 0;
#X connect 15 0 59 3;
#X connect 32 0 6 0;
#X connect 32 1 60 0;
#X connect 35 0 39 0;
#X connect 36 0 61 1;
#X connect 39 0 36 0;
#X connect 39 1 61 0;
#X connect 41 0 35 0;
#X connect 41 0 52 0;
#X connect 42 0 57 0;
#X connect 43 0 15 0;
#X connect 44 0 45 0;
#X connect 45 0 63 0;
#X connect 46 0 44 0;
#X connect 46 0 50 0;
#X connect 46 0 67 0;
#X connect 46 0 72 0;
#X connect 47 0 67 0;
#X connect 47 0 72 0;
#X connect 48 0 49 0;
#X connect 48 0 50 0;
#X connect 48 0 63 0;
#X connect 49 0 47 0;
#X connect 51 0 54 0;
#X connect 51 0 60 1;
#X connect 53 0 51 0;
#X connect 54 0 55 0;
#X connect 54 1 56 0;
#X connect 57 0 48 0;
#X connect 57 0 59 3;
#X connect 58 0 14 0;
#X connect 58 1 41 0;
#X connect 60 0 59 2;
#X connect 60 1 51 0;
#X connect 60 1 35 0;
#X connect 61 0 60 2;
#X connect 62 0 65 0;
#X connect 63 0 64 0;
#X connect 64 0 62 0;
#X connect 66 0 69 0;
#X connect 67 0 68 0;
#X connect 68 0 66 0;
#X connect 72 0 71 0;
#X connect 72 1 73 0;
