#N canvas 438 369 366 45 10;
#X text 58 -317 Copyright 2013-Today by Walter Mantovani;
#X text 12 -291 Licensed under 'GNU Affero General Public License v.3.0'
;
#X text 58 -304 armonici.it@gmail.com // www.armonici.it;
