#N canvas 122 418 751 314 10;
#X obj -697 -754 inlet;
#X msg -679 -697 NEDX 2 12;
#X msg -679 -646 HS NATURAL 0 0;
#X obj -697 -697 vradio 17 1 0 9 empty empty empty 0 -8 0 10 -262144
-1 -1 0;
#X obj -733 -697 sel 0;
#X obj -733 -663 sel 2;
#X obj -733 -646 sel 3;
#X obj -733 -611 sel 5;
#X obj -733 -595 sel 6;
#X obj -733 -578 sel 7;
#X obj -733 -561 sel 8;
#X obj -749 -610 bng 15 250 50 0 empty empty empty 17 7 0 10 -262144
-1 -1;
#X obj -749 -593 bng 15 250 50 0 empty empty empty 17 7 0 10 -262144
-1 -1;
#X obj -749 -576 bng 15 250 50 0 empty empty empty 17 7 0 10 -262144
-1 -1;
#X obj -749 -559 bng 15 250 50 0 empty empty empty 17 7 0 10 -262144
-1 -1;
#X obj -706 -536 bng 15 250 50 0 empty empty empty 17 7 0 10 -262144
-1 -1;
#X obj -679 -504 outlet;
#X obj -590 -714 list trim;
#X obj -590 -754 inlet;
#X obj -590 -734 list prepend set NEDX;
#X obj -537 -500 outlet;
#X obj -768 -697 t b b;
#X msg -679 -612 FILE SCL;
#X msg -679 -595 FILE TUN;
#X msg -679 -578 FILE MTX;
#X msg -679 -561 FILE LMSO;
#X msg -679 -663 HS TRANSPOSED 0 0;
#X msg -689 -537 WRONG FT SELECTION OR IMMISSION;
#X obj -438 -714 list trim;
#X obj -438 -755 inlet;
#X obj -438 -734 list prepend set HS TRANSPOSED;
#X obj -244 -718 list trim;
#X obj -244 -738 list prepend set HS NATURAL;
#X obj -767 -663 t b b;
#X text -575 -486 reload variables bang;
#X text -748 -487 generated command string;
#X obj -767 -646 t b b;
#X connect 0 0 3 0;
#X connect 1 0 16 0;
#X connect 2 0 16 0;
#X connect 3 0 4 0;
#X connect 4 0 21 0;
#X connect 4 1 5 0;
#X connect 5 0 33 0;
#X connect 5 1 6 0;
#X connect 6 0 36 0;
#X connect 6 1 7 0;
#X connect 7 0 11 0;
#X connect 7 1 8 0;
#X connect 8 0 12 0;
#X connect 8 1 9 0;
#X connect 9 0 13 0;
#X connect 9 1 10 0;
#X connect 10 0 14 0;
#X connect 10 1 15 0;
#X connect 11 0 22 0;
#X connect 12 0 23 0;
#X connect 13 0 24 0;
#X connect 14 0 25 0;
#X connect 15 0 27 0;
#X connect 17 0 1 0;
#X connect 18 0 19 0;
#X connect 19 0 17 0;
#X connect 21 0 1 0;
#X connect 21 1 20 0;
#X connect 22 0 16 0;
#X connect 23 0 16 0;
#X connect 24 0 16 0;
#X connect 25 0 16 0;
#X connect 26 0 16 0;
#X connect 27 0 16 0;
#X connect 28 0 26 0;
#X connect 29 0 30 0;
#X connect 29 0 32 0;
#X connect 30 0 28 0;
#X connect 31 0 2 0;
#X connect 32 0 31 0;
#X connect 33 0 26 0;
#X connect 33 1 20 0;
#X connect 36 0 2 0;
#X connect 36 1 20 0;
