#N canvas 501 42 749 401 10;
#X msg 137 -4 2;
#X floatatom 465 -93 8 0 0 0 - - -;
#X obj 157 -81 bng 15 250 50 0 empty empty empty 17 7 0 10 -262144
-1 -1;
#X msg 209 -5 12;
#X obj 106 71 expr (pow($f1 \, ( $f2 / $f3))) * $f4;
#X obj 157 -44 t b b;
#X text 137 12 unit;
#X text 202 11 division;
#X obj 157 -148 inlet;
#X obj 465 -148 inlet;
#X text 135 -164 relative tone;
#X obj 90 183 outlet;
#X text 427 -164 fundamental mother;
#X obj 279 -148 inlet;
#X text 245 -159 unit;
#X text 321 -159 division;
#X obj 157 -118 t a a a;
#X obj 666 183 outlet;
#X text 647 201 relative tone;
#X floatatom 106 101 8 0 0 0 - - -;
#X text 84 201 frequency;
#X obj 28 134 ftom;
#X obj 63 117 t a a;
#X obj 28 183 outlet;
#X text 20 201 midi-cent;
#X text 34 210 note;
#X obj 569 -148 inlet;
#X text 551 -164 array index;
#X obj 569 183 outlet;
#X text 555 201 array index;
#X obj 222 -64 list trim;
#X obj 222 -88 list prepend set;
#X obj 339 -64 list trim;
#X obj 339 -88 list prepend set;
#X text 166 -5 n-EDx;
#X text 464 -75 frequency;
#X obj 279 -118 unpack f f;
#X text 233 171 Copyright 2013-Today by Walter Mantovani;
#X text 187 197 Licensed under 'GNU Affero General Public License v.3.0'
;
#X text 233 184 armonici.it@gmail.com // www.armonici.it;
#X connect 0 0 4 0;
#X connect 1 0 4 3;
#X connect 2 0 5 0;
#X connect 3 0 4 2;
#X connect 4 0 19 0;
#X connect 5 0 0 0;
#X connect 5 1 3 0;
#X connect 8 0 16 0;
#X connect 9 0 1 0;
#X connect 13 0 36 0;
#X connect 16 0 2 0;
#X connect 16 1 4 1;
#X connect 16 2 17 0;
#X connect 19 0 22 0;
#X connect 21 0 23 0;
#X connect 22 0 21 0;
#X connect 22 1 11 0;
#X connect 26 0 28 0;
#X connect 30 0 0 0;
#X connect 31 0 30 0;
#X connect 32 0 3 0;
#X connect 33 0 32 0;
#X connect 36 0 31 0;
#X connect 36 1 33 0;
