#N canvas 408 25 990 736 10;
#X floatatom 295 -63 8 0 0 0 - - -;
#X obj 157 -148 inlet;
#X obj 295 -148 inlet;
#X text 108 -133 relative tone;
#X obj 206 533 outlet;
#X text 229 -133 fundamental mother;
#X obj 795 533 outlet;
#X text 776 551 relative tone;
#X floatatom 222 406 8 0 0 0 - - -;
#X text 200 551 frequency;
#X obj 144 484 ftom;
#X obj 179 467 t a a;
#X obj 144 533 outlet;
#X text 136 551 midi-cent;
#X text 150 560 note;
#X obj 708 -148 inlet;
#X text 688 -133 array index;
#X obj 708 533 outlet;
#X text 694 551 array index;
#X text 294 -45 frequency;
#X obj 129 -83 moses 0;
#X obj 168 33 sel 0;
#X floatatom 195 61 5 0 0 0 - - -;
#X obj 168 63 bng 15 250 50 0 empty empty empty 17 7 0 10 -262144 -1
-1;
#X obj 76 -22 * -1;
#X floatatom 76 61 5 0 0 0 - - -;
#X obj 76 33 expr 1 / $f1;
#X floatatom 57 -134 5 0 0 0 test - -;
#X obj 195 101 *;
#X obj 341 200 moses 8;
#X obj 302 176 moses 4;
#X obj 263 151 moses 2;
#X obj 380 225 moses 16;
#X obj 168 6 t a a;
#X obj 76 99 *;
#X obj 76 6 t a a;
#X obj 425 249 moses 32;
#X obj 470 272 sel 32;
#X obj 295 59 t a a;
#X obj 60 532 outlet;
#X floatatom 76 405 8 0 0 0 - - -;
#X text 54 550 frequency;
#X obj -2 483 ftom;
#X obj 33 466 t a a;
#X obj -2 532 outlet;
#X text -10 550 midi-cent;
#X text 4 559 note;
#X msg 503 296 0;
#X msg 263 176 1;
#X msg 302 200 2;
#X msg 341 224 4;
#X msg 380 249 8;
#X msg 425 273 16;
#X msg 470 296 16;
#X obj 768 341 sel 0;
#X obj 103 324 *;
#X obj 222 325 /;
#X obj 76 129 t a a;
#X obj 195 131 t a a;
#X obj 157 -118 t a a;
#X text 147 506 TRANSPOSED;
#X text 9 506 NATURAL;
#X text 61 -53 SUBHARMONICS;
#X text 157 -52 HARMONICS;
#X msg 411 31 1;
#X msg 513 31 0;
#X obj 411 -18 route NATURAL;
#X msg 390 -55 1;
#X msg 510 -55 0;
#X obj 390 -104 route TRANSPOSED;
#X obj 419 -148 inlet;
#X obj 483 -77 t a b;
#X obj 486 9 t b b;
#X obj 347 100 print FUNDAMENTAL TUNING;
#X msg 347 72 WRONG SELECTION OR IMMISSION - set NATURAL or TRANSPOSED
;
#X obj 76 443 spigot;
#X obj 222 443 spigot;
#X msg 417 -55 0;
#X msg 438 31 0;
#X msg 322 360 1;
#X msg 361 360 2;
#X msg 393 360 4;
#X msg 428 360 8;
#X msg 465 360 16;
#X obj 361 332 sel 0 1 2 3 4;
#X text 69 152 SUBHARMONICS;
#X text 185 150 HARMONICS;
#X text 200 423 TRANSPOSED;
#X text 62 423 NATURAL;
#X msg -106 360 1;
#X msg -68 360 2;
#X msg -35 360 4;
#X msg 0 360 8;
#X msg 37 360 16;
#X obj -68 332 sel 0 1 2 3 4;
#X obj 222 377 /;
#X obj 193 377 *;
#X obj 563 152 unpack f f;
#X text 380 -133 ft HS tuning method;
#X obj 390 -77 t b b a;
#X obj 411 9 t b b a;
#X text 563 136 FINAL OCTAVE TRANSPONSE;
#X text 508 169 TODO: separate 'transposed' from 'natural';
#X obj 76 197 *;
#X obj 114 197 /;
#X text 353 495 Copyright 2013-Today by Walter Mantovani;
#X text 307 521 Licensed under 'GNU Affero General Public License v.3.0'
;
#X text 353 508 armonici.it@gmail.com // www.armonici.it;
#X connect 0 0 38 0;
#X connect 1 0 59 0;
#X connect 2 0 0 0;
#X connect 8 0 76 0;
#X connect 10 0 12 0;
#X connect 11 0 10 0;
#X connect 11 1 4 0;
#X connect 15 0 17 0;
#X connect 20 0 24 0;
#X connect 20 1 33 0;
#X connect 21 0 23 0;
#X connect 21 1 22 0;
#X connect 22 0 28 0;
#X connect 24 0 35 0;
#X connect 25 0 34 0;
#X connect 26 0 25 0;
#X connect 27 0 59 0;
#X connect 28 0 58 0;
#X connect 29 0 50 0;
#X connect 29 1 32 0;
#X connect 30 0 49 0;
#X connect 30 1 29 0;
#X connect 31 0 48 0;
#X connect 31 1 30 0;
#X connect 32 0 51 0;
#X connect 32 1 36 0;
#X connect 33 0 21 0;
#X connect 33 1 31 0;
#X connect 34 0 57 0;
#X connect 35 0 26 0;
#X connect 35 1 31 0;
#X connect 36 0 52 0;
#X connect 36 1 37 0;
#X connect 37 0 53 0;
#X connect 37 1 47 0;
#X connect 38 0 34 1;
#X connect 38 1 28 1;
#X connect 40 0 75 0;
#X connect 42 0 44 0;
#X connect 43 0 42 0;
#X connect 43 1 39 0;
#X connect 47 0 56 1;
#X connect 48 0 55 1;
#X connect 48 0 56 1;
#X connect 49 0 55 1;
#X connect 49 0 56 1;
#X connect 50 0 55 1;
#X connect 50 0 56 1;
#X connect 51 0 55 1;
#X connect 51 0 56 1;
#X connect 52 0 55 1;
#X connect 52 0 56 1;
#X connect 53 0 55 1;
#X connect 53 0 56 1;
#X connect 54 1 6 0;
#X connect 55 0 96 0;
#X connect 56 0 95 0;
#X connect 57 0 103 0;
#X connect 57 1 55 0;
#X connect 58 0 104 0;
#X connect 58 1 56 0;
#X connect 59 0 20 0;
#X connect 59 1 54 0;
#X connect 64 0 75 1;
#X connect 65 0 75 1;
#X connect 66 0 100 0;
#X connect 66 1 72 0;
#X connect 67 0 76 1;
#X connect 68 0 76 1;
#X connect 69 0 99 0;
#X connect 69 1 71 0;
#X connect 70 0 69 0;
#X connect 71 0 66 0;
#X connect 71 1 68 0;
#X connect 72 0 74 0;
#X connect 72 1 65 0;
#X connect 74 0 73 0;
#X connect 75 0 43 0;
#X connect 76 0 11 0;
#X connect 77 0 75 1;
#X connect 78 0 76 1;
#X connect 79 0 95 1;
#X connect 79 0 104 1;
#X connect 80 0 95 1;
#X connect 80 0 104 1;
#X connect 81 0 95 1;
#X connect 81 0 104 1;
#X connect 82 0 95 1;
#X connect 82 0 104 1;
#X connect 83 0 95 1;
#X connect 83 0 104 1;
#X connect 84 0 79 0;
#X connect 84 1 80 0;
#X connect 84 2 81 0;
#X connect 84 3 82 0;
#X connect 84 4 83 0;
#X connect 89 0 96 1;
#X connect 89 0 103 1;
#X connect 90 0 96 1;
#X connect 90 0 103 1;
#X connect 91 0 96 1;
#X connect 91 0 103 1;
#X connect 92 0 96 1;
#X connect 92 0 103 1;
#X connect 93 0 96 1;
#X connect 93 0 103 1;
#X connect 94 0 89 0;
#X connect 94 1 90 0;
#X connect 94 2 91 0;
#X connect 94 3 92 0;
#X connect 94 4 93 0;
#X connect 95 0 8 0;
#X connect 96 0 8 0;
#X connect 97 0 94 0;
#X connect 97 1 84 0;
#X connect 99 0 67 0;
#X connect 99 1 77 0;
#X connect 99 2 97 0;
#X connect 100 0 64 0;
#X connect 100 1 78 0;
#X connect 100 2 97 0;
#X connect 103 0 40 0;
#X connect 104 0 40 0;
