#N canvas 291 170 628 585 10;
#X obj 69 28 inlet;
#X obj 69 55 unpack f f;
#X floatatom -249 239 5 0 0 3 - - -;
#X obj -76 499 outlet~;
#X obj 264 499 outlet;
#X obj 264 469 != 0;
#X obj -113 28 inlet;
#X text 233 515 pressure monitor;
#X text -72 515 audio;
#X floatatom -113 108 5 0 0 1 array_index - -;
#X obj -74 191 tabread-two hf_table;
#X obj -74 220 unpack f f;
#X floatatom -74 247 10 0 0 0 - - -;
#X floatatom -249 332 10 0 0 0 - - -;
#X obj -74 155 - 1;
#X text -245 346 harmonic MIDI note;
#X obj 283 28 inlet;
#X floatatom 283 62 5 0 0 0 - - -;
#X obj -97 450 *~;
#X obj -47 325 vline~;
#X obj -97 325 vline~;
#X obj -97 356 osc~;
#X obj -47 356 phasor~;
#X obj -82 388 == 0;
#X obj -32 388 == 1;
#X obj -47 451 *~;
#X obj -97 417 *~;
#X obj -47 418 *~;
#X text 104 310 zero velocity == noteoff;
#X obj 126 336 / 127;
#X obj 126 361 pack 0 50;
#X obj 126 389 line~;
#X floatatom 177 336 5 0 0 1 attack_(ms) - -;
#X text 16 12 relative note and velocity;
#X text 246 12 internal waveform;
#X text -144 0 fundamental tone;
#X text -131 11 change bang;
#X obj -249 372 s gui_ht-midicent;
#X obj -249 279 s gui_ht-velocity;
#X obj -249 424 s gui_ht-frequency;
#X obj -74 287 t a a;
#X obj -248 175 s gui_ht-tone;
#X obj -113 129 t a b a;
#X obj -113 81 spigot;
#X text -88 176 HARMONIC FREQUENCY TABLE;
#X text -245 356 to GUI;
#X text -245 263 to GUI;
#X text -245 253 velocity;
#X text -247 295 ht midi velocity;
#X text -247 191 harmonic tone (ht);
#X text -250 387 ht midi note.cent;
#X text -248 439 ht frequency;
#X text -70 260 harmonic frequency;
#X text -20 529 Copyright 2013-Today by Walter Mantovani;
#X text -66 555 Licensed under 'GNU Affero General Public License v.3.0'
;
#X text -20 542 armonici.it@gmail.com // www.armonici.it;
#X obj 135 186 list trim;
#X obj 135 169 list prepend set;
#X msg 135 210 6;
#X obj 69 119 route 0;
#X obj 69 193 b;
#X obj 108 145 t f f;
#X obj -113 55 b;
#X text 144 143 HT cache;
#X text 144 153 for HT0-key feature;
#X connect 0 0 1 0;
#X connect 1 0 59 0;
#X connect 1 1 2 0;
#X connect 1 1 5 0;
#X connect 1 1 29 0;
#X connect 2 0 38 0;
#X connect 5 0 4 0;
#X connect 5 0 43 1;
#X connect 6 0 62 0;
#X connect 9 0 42 0;
#X connect 10 0 11 0;
#X connect 11 0 12 0;
#X connect 11 1 13 0;
#X connect 12 0 40 0;
#X connect 13 0 37 0;
#X connect 14 0 10 0;
#X connect 16 0 17 0;
#X connect 17 0 23 0;
#X connect 17 0 24 0;
#X connect 18 0 3 0;
#X connect 19 0 22 0;
#X connect 20 0 21 0;
#X connect 21 0 26 0;
#X connect 22 0 27 0;
#X connect 23 0 26 1;
#X connect 24 0 27 1;
#X connect 25 0 3 0;
#X connect 26 0 18 0;
#X connect 27 0 25 0;
#X connect 29 0 30 0;
#X connect 30 0 31 0;
#X connect 31 0 25 1;
#X connect 31 0 18 1;
#X connect 32 0 30 1;
#X connect 40 0 39 0;
#X connect 40 1 19 0;
#X connect 40 1 20 0;
#X connect 42 0 41 0;
#X connect 42 1 2 0;
#X connect 42 2 14 0;
#X connect 43 0 9 0;
#X connect 56 0 58 0;
#X connect 57 0 56 0;
#X connect 58 0 9 0;
#X connect 59 0 60 0;
#X connect 59 1 61 0;
#X connect 60 0 58 0;
#X connect 61 0 9 0;
#X connect 61 1 57 0;
#X connect 62 0 43 0;
