#N canvas 139 180 844 575 10;
#X obj 362 0 spell;
#X msg 41 344 107;
#X msg 69 344 100;
#X msg 97 344 104;
#X msg 124 344 101;
#X msg 152 344 20;
#X msg 180 344 20;
#X msg 208 344 20;
#X msg 235 344 20;
#X msg 262 344 20;
#X msg 290 344 20;
#X msg 318 344 20;
#X msg 345 344 20;
#X floatatom -3 373 5 0 0 0 - - -;
#X floatatom 30 373 5 0 0 0 - - -;
#X floatatom 63 372 5 0 0 0 - - -;
#X floatatom 96 372 5 0 0 0 - - -;
#X floatatom 129 372 5 0 0 0 - - -;
#X floatatom 162 372 5 0 0 0 - - -;
#X floatatom 196 372 5 0 0 0 - - -;
#X floatatom 229 372 5 0 0 0 - - -;
#X floatatom 262 372 5 0 0 0 - - -;
#X floatatom 295 372 5 0 0 0 - - -;
#X floatatom 328 372 5 0 0 0 - - -;
#X floatatom 361 372 5 0 0 0 - - -;
#X msg 372 344 20;
#X msg 400 344 20;
#X msg 428 344 20;
#X msg 455 344 20;
#X floatatom 394 372 5 0 0 0 - - -;
#X floatatom 427 372 5 0 0 0 - - -;
#X floatatom 460 372 5 0 0 0 - - -;
#X floatatom 493 372 5 0 0 0 - - -;
#X obj 615 213 list prepend set;
#X obj 615 236 list trim;
#X msg 615 190 20;
#X obj 345 -100 inlet;
#X obj 119 -42 t b b b b b b b b b b b b b b b b;
#X obj 230 436 outlet;
#X obj 385 71 + 1;
#X obj 362 71 f;
#X obj 362 153 pack 0 0;
#X obj 362 25 t b a;
#N canvas 54 213 1168 259 ascii___________________splitter16 0;
#X obj -383 -151 list prepend set;
#X obj -383 -128 list trim;
#X obj -273 -151 list prepend set;
#X obj -273 -128 list trim;
#X obj -166 -151 list prepend set;
#X obj -166 -128 list trim;
#X obj -56 -151 list prepend set;
#X obj -56 -128 list trim;
#X obj 53 -151 list prepend set;
#X obj 53 -128 list trim;
#X obj 163 -151 list prepend set;
#X obj 163 -128 list trim;
#X obj 270 -151 list prepend set;
#X obj 270 -128 list trim;
#X obj 380 -151 list prepend set;
#X obj 380 -128 list trim;
#X obj 491 -151 list prepend set;
#X obj 491 -128 list trim;
#X obj 601 -151 list prepend set;
#X obj 601 -128 list trim;
#X obj 708 -151 list prepend set;
#X obj 708 -128 list trim;
#X obj 818 -151 list prepend set;
#X obj 818 -128 list trim;
#X obj 927 -151 list prepend set;
#X obj 927 -128 list trim;
#X obj 1037 -151 list prepend set;
#X obj 1037 -128 list trim;
#X obj 1144 -151 list prepend set;
#X obj 1144 -128 list trim;
#X obj 1254 -151 list prepend set;
#X obj 1254 -128 list trim;
#X obj -383 -65 outlet;
#X obj -273 -65 outlet;
#X obj -166 -65 outlet;
#X obj -56 -65 outlet;
#X obj 53 -65 outlet;
#X obj 163 -65 outlet;
#X obj 270 -65 outlet;
#X obj 380 -65 outlet;
#X obj 491 -65 outlet;
#X obj 601 -65 outlet;
#X obj 708 -65 outlet;
#X obj 818 -65 outlet;
#X obj 927 -65 outlet;
#X obj 1037 -65 outlet;
#X obj 1144 -65 outlet;
#X obj 1254 -65 outlet;
#X obj 268 -268 inlet;
#X obj 268 -237 route 0 1 2 3 4 5 6 7 8 9 10 11 12 13 14 15;
#X connect 0 0 1 0;
#X connect 1 0 32 0;
#X connect 2 0 3 0;
#X connect 3 0 33 0;
#X connect 4 0 5 0;
#X connect 5 0 34 0;
#X connect 6 0 7 0;
#X connect 7 0 35 0;
#X connect 8 0 9 0;
#X connect 9 0 36 0;
#X connect 10 0 11 0;
#X connect 11 0 37 0;
#X connect 12 0 13 0;
#X connect 13 0 38 0;
#X connect 14 0 15 0;
#X connect 15 0 39 0;
#X connect 16 0 17 0;
#X connect 17 0 40 0;
#X connect 18 0 19 0;
#X connect 19 0 41 0;
#X connect 20 0 21 0;
#X connect 21 0 42 0;
#X connect 22 0 23 0;
#X connect 23 0 43 0;
#X connect 24 0 25 0;
#X connect 25 0 44 0;
#X connect 26 0 27 0;
#X connect 27 0 45 0;
#X connect 28 0 29 0;
#X connect 29 0 46 0;
#X connect 30 0 31 0;
#X connect 31 0 47 0;
#X connect 48 0 49 0;
#X connect 49 0 0 0;
#X connect 49 1 2 0;
#X connect 49 2 4 0;
#X connect 49 3 6 0;
#X connect 49 4 8 0;
#X connect 49 5 10 0;
#X connect 49 6 12 0;
#X connect 49 7 14 0;
#X connect 49 8 16 0;
#X connect 49 9 18 0;
#X connect 49 10 20 0;
#X connect 49 11 22 0;
#X connect 49 12 24 0;
#X connect 49 13 26 0;
#X connect 49 14 28 0;
#X connect 49 15 30 0;
#X restore 362 190 pd ascii___________________splitter16;
#X floatatom 362 95 5 0 0 0 - - -;
#X msg 416 54 0;
#X obj 362 118 moses 16;
#X obj 345 -59 t b b b b;
#X obj 387 -99 bng 15 250 50 0 empty empty empty 17 7 0 10 -262144
-1 -1;
#X msg 362 -25 TheHarmonync;
#X obj 577 63 list prepend set;
#X obj 577 83 list trim;
#X msg 550 -51 TheHarmonync;
#X obj 550 -23 t a a;
#X obj 550 -75 t b a;
#X text 478 -100 TUNING NAME;
#X text 638 -49 TUNING NAME;
#X obj 550 -100 r gui_sysex_name_input;
#X obj 550 40 s gui_sysex_name_value;
#X obj 550 -1 list prepend label;
#X obj 550 19 list trim;
#X obj 716 -101 loadbang;
#X obj 716 -79 delay 200;
#X text 519 412 Copyright 2013-Today by Walter Mantovani;
#X text 473 438 Licensed under 'GNU Affero General Public License v.3.0'
;
#X text 519 425 armonici.it@gmail.com // www.armonici.it;
#X connect 0 0 42 0;
#X connect 1 0 13 0;
#X connect 2 0 14 0;
#X connect 3 0 15 0;
#X connect 4 0 16 0;
#X connect 5 0 17 0;
#X connect 6 0 18 0;
#X connect 7 0 19 0;
#X connect 8 0 20 0;
#X connect 9 0 21 0;
#X connect 10 0 22 0;
#X connect 11 0 23 0;
#X connect 12 0 24 0;
#X connect 13 0 38 0;
#X connect 14 0 38 0;
#X connect 15 0 38 0;
#X connect 16 0 38 0;
#X connect 17 0 38 0;
#X connect 18 0 38 0;
#X connect 19 0 38 0;
#X connect 20 0 38 0;
#X connect 21 0 38 0;
#X connect 22 0 38 0;
#X connect 23 0 38 0;
#X connect 24 0 38 0;
#X connect 25 0 29 0;
#X connect 26 0 30 0;
#X connect 27 0 31 0;
#X connect 28 0 32 0;
#X connect 29 0 38 0;
#X connect 30 0 38 0;
#X connect 31 0 38 0;
#X connect 32 0 38 0;
#X connect 33 0 34 0;
#X connect 34 0 1 0;
#X connect 34 0 2 0;
#X connect 34 0 3 0;
#X connect 34 0 4 0;
#X connect 34 0 5 0;
#X connect 34 0 6 0;
#X connect 34 0 7 0;
#X connect 34 0 8 0;
#X connect 34 0 9 0;
#X connect 34 0 10 0;
#X connect 34 0 11 0;
#X connect 34 0 12 0;
#X connect 34 0 25 0;
#X connect 34 0 26 0;
#X connect 34 0 27 0;
#X connect 34 0 28 0;
#X connect 35 0 33 0;
#X connect 36 0 47 0;
#X connect 37 0 28 0;
#X connect 37 1 27 0;
#X connect 37 2 26 0;
#X connect 37 3 25 0;
#X connect 37 4 12 0;
#X connect 37 5 11 0;
#X connect 37 6 10 0;
#X connect 37 7 9 0;
#X connect 37 8 8 0;
#X connect 37 9 7 0;
#X connect 37 10 6 0;
#X connect 37 11 5 0;
#X connect 37 12 4 0;
#X connect 37 13 3 0;
#X connect 37 14 2 0;
#X connect 37 15 1 0;
#X connect 39 0 40 1;
#X connect 40 0 39 0;
#X connect 40 0 44 0;
#X connect 41 0 43 0;
#X connect 42 0 40 0;
#X connect 42 1 41 1;
#X connect 43 0 1 0;
#X connect 43 1 2 0;
#X connect 43 2 3 0;
#X connect 43 3 4 0;
#X connect 43 4 5 0;
#X connect 43 5 6 0;
#X connect 43 6 7 0;
#X connect 43 7 8 0;
#X connect 43 8 9 0;
#X connect 43 9 10 0;
#X connect 43 10 11 0;
#X connect 43 11 12 0;
#X connect 43 12 25 0;
#X connect 43 13 26 0;
#X connect 43 14 27 0;
#X connect 43 15 28 0;
#X connect 44 0 46 0;
#X connect 45 0 40 1;
#X connect 46 0 41 0;
#X connect 47 0 37 0;
#X connect 47 1 49 0;
#X connect 47 2 35 0;
#X connect 47 3 45 0;
#X connect 48 0 47 0;
#X connect 49 0 0 0;
#X connect 50 0 51 0;
#X connect 51 0 49 0;
#X connect 52 0 53 0;
#X connect 53 0 59 0;
#X connect 53 1 50 0;
#X connect 54 0 52 0;
#X connect 54 1 52 0;
#X connect 57 0 54 0;
#X connect 59 0 60 0;
#X connect 60 0 58 0;
#X connect 61 0 62 0;
#X connect 62 0 52 0;
