#N canvas 39 31 1392 850 10;
#N canvas 57 84 450 300 (subpatch) 0;
#X array ctrl_fn 256 float 2;
#X coords 0 128 255 -128 256 140 1 0 0;
#X restore 25 78 graph;
#X obj 411 -467 openpanel;
#X obj 411 -344 textfile;
#X msg 411 -434 read \$1;
#X msg 426 -391 rewind;
#X obj 426 -366 bng 15 250 50 0 empty empty empty 17 7 0 10 -262144
-1 -1;
#X obj 426 -411 bng 15 250 50 0 empty empty empty 17 7 0 10 -262144
-1 -1;
#X obj 411 -507 bng 15 250 50 0 empty empty <<_Open_INSTRUMENT_MAP
17 7 0 10 -262144 -1 -1;
#X floatatom 429 -147 5 0 0 0 - - -;
#X floatatom 472 -147 5 0 0 0 - - -;
#X floatatom 518 -147 5 0 0 0 - - -;
#X obj 365 -312 list;
#X obj 411 -258 t b a;
#X floatatom 1552 -394 5 0 0 0 - - -;
#X obj 1470 -294 *;
#X floatatom 1538 -501 10 0 0 0 - - -;
#X obj 1513 -532 inlet;
#X floatatom 1505 -277 10 0 0 0 - - -;
#X text 91 60 (controller \, function);
#X text 427 62 (instrument \, function);
#X obj 472 -74 t b a;
#X floatatom 40 292 5 0 0 1 index - -;
#X obj 40 368 list prepend set;
#X obj 40 396 list trim;
#X obj 40 266 bng 15 250 50 0 empty empty empty 17 7 0 10 -262144 -1
-1;
#X floatatom 494 294 5 0 0 1 index - -;
#X obj 494 368 list prepend set;
#X obj 494 396 list trim;
#X obj 494 266 bng 15 250 50 0 empty empty empty 17 7 0 10 -262144
-1 -1;
#X obj 411 -295 list split 3;
#X obj 429 -30 pack 0 0;
#N canvas 57 84 450 300 (subpatch) 0;
#X array inst_fn 256 float 2;
#X coords 0 128 255 -128 256 140 1 0 0;
#X restore 364 79 graph;
#X obj 40 340 tabread-two ctrl_fn;
#X obj 494 340 tabread-two inst_fn;
#X msg 438 -220 \$2 \$3 \$1;
#N canvas 268 140 450 278 (subpatch) 0;
#X array hf_table 256 float 2;
#X coords 0 28000 255 0 256 140 1 0 0;
#X restore 1347 120 graph;
#X obj 1620 -351 - 1;
#N canvas 268 140 450 278 (subpatch) 0;
#X array ff_table 195 float 2;
#X coords 0 3000 194 -32 195 140 1 0 0;
#X restore 803 178 graph;
#X text 1473 318 of the actual fundamental.;
#X text 433 218 0 > 127 MIDI NOTES;
#X text 86 217 0 > 127 MIDI NOTES;
#X text 1436 242 0 > 127 HARMONICS;
#X text 264 102 -128 > +128 values;
#X floatatom 1163 -242 8 0 0 0 - - -;
#X floatatom 1163 -315 8 0 0 0 MIDI - -;
#X obj 1163 -285 mtof;
#X obj 1163 -469 vsl 22 128 0 127 0 0 empty empty empty 0 -9 0 10 -262144
-1 -1 0 1;
#X floatatom 767 -225 5 0 0 0 relative_tone - -;
#X obj 756 -362 list;
#X obj 756 -308 t b a;
#X obj 756 -336 list split 2;
#X msg 783 -279 \$2 \$1;
#X obj 783 -252 unpack f f;
#X floatatom 851 -225 5 0 0 1 array_index - -;
#N canvas 268 140 450 278 (subpatch) 0;
#X array ff_base_table 65 float 2;
#X coords 0 -32 64 32 66 140 1 0 0;
#X restore 779 -113 graph;
#X obj 69 -459 openpanel;
#X obj 69 -344 textfile;
#X msg 69 -434 read \$1;
#X msg 84 -391 rewind;
#X obj 84 -366 bng 15 250 50 0 empty empty empty 17 7 0 10 -262144
-1 -1;
#X obj 84 -411 bng 15 250 50 0 empty empty empty 17 7 0 10 -262144
-1 -1;
#X obj 69 -507 bng 15 250 50 0 empty empty <<_Open_CONTROLLER_MAP 17
7 0 10 -262144 -1 -1;
#X floatatom 75 -147 5 0 0 0 - - -;
#X floatatom 130 -147 5 0 0 0 - - -;
#X floatatom 203 -147 5 0 0 0 - - -;
#X obj 23 -312 list;
#X obj 69 -258 t b a;
#X obj 130 -74 t b a;
#X obj 69 -295 list split 3;
#X obj 87 -30 pack 0 0;
#X msg 96 -220 \$2 \$3 \$1;
#X obj 87 11 tabwrite-two ctrl_fn;
#X obj 429 11 tabwrite-two inst_fn;
#X obj 756 -387 textfile;
#X msg 771 -436 rewind;
#X obj 771 -411 bng 15 250 50 0 empty empty empty 17 7 0 10 -262144
-1 -1;
#X obj 771 -456 bng 15 250 50 0 empty empty empty 17 7 0 10 -262144
-1 -1;
#X obj 756 -506 bng 15 250 50 0 empty empty <<_Load_FUNDAMENTAL_BASE_MAP
17 7 0 10 -262144 -1 -1;
#X obj 767 -162 tabwrite ff_base_table;
#X obj 1163 -531 inlet;
#X floatatom 1238 -315 5 0 0 1 FREQUENCY - -;
#X text 662 397 MID = 1 param (0-127 MIDI notes) - eg (60) for Middle
C;
#X text 664 410 H = 1 param (subharmonics or octave/unit inversion
- 1 or 2 ways ) - (1-128 Harmonics);
#X text 664 436 F = 1 param (Frequency in Hz);
#X obj 664 348 route TET MID H F;
#X obj 1163 -501 route M F;
#X floatatom 1038 292 5 0 0 1 index - -;
#X obj 1038 368 list prepend set;
#X obj 1038 396 list trim;
#X obj 1038 266 bng 15 250 50 0 empty empty empty 17 7 0 10 -262144
-1 -1;
#X text 1356 124 0 > 28000 Hz;
#X floatatom 752 74 5 0 0 1 index - -;
#X obj 752 53 bng 15 250 50 0 empty empty empty 17 7 0 10 -262144 -1
-1;
#X obj 752 95 tabread ff_base_table;
#X obj 752 117 list prepend set;
#X obj 752 139 list trim;
#X msg 752 161 -32;
#X obj 756 -532 loadbang;
#X obj 411 -532 inlet;
#X obj 69 -532 inlet;
#X text 812 -533 [AUTO-LOAD BASSE MAP];
#X obj 479 -481 loadbang;
#X floatatom 1051 89 5 0 0 0 relative_note - -;
#X floatatom 1091 89 5 0 0 3 freq. - -;
#X floatatom 1171 89 5 0 0 1 array_index - -;
#X obj 1091 121 t b a;
#X obj 956 -34 pack 0 0 0 0;
#X obj 1057 57 unpack f f f f;
#X floatatom 1131 89 5 0 0 2 midicent - -;
#X obj 1131 121 t b a;
#X obj 1051 157 pack 0 0 0;
#X obj 1051 187 tabwrite-three ff_table;
#X obj 1038 340 tabread-three ff_table;
#X obj 1400 -249 ftom;
#X obj 1400 -212 pack 0 0 0;
#X floatatom 1374 -104 10 0 0 0 - - -;
#X floatatom 1447 -104 5 0 0 0 - - -;
#X floatatom 1497 -104 5 0 0 0 - - -;
#X obj 1417 -31 t b a;
#X obj 1400 -138 unpack f f f;
#X obj 1374 13 pack 0 0;
#X obj 1374 54 tabwrite-two hf_table;
#X msg 1400 -182 \$2 \$1 \$3;
#X floatatom 1235 289 5 0 0 1 index - -;
#X obj 1235 365 list prepend set;
#X obj 1235 393 list trim;
#X obj 1235 265 bng 15 250 50 0 empty empty empty 17 7 0 10 -262144
-1 -1;
#X obj 1235 326 tabread-two hf_table;
#X obj 1427 -277 t a a;
#X floatatom 2100 -462 5 0 0 1 index - -;
#X obj 2044 -515 bng 15 250 50 0 empty empty empty 17 7 0 10 -262144
-1 -1;
#X obj 2100 -409 tabread-two inst_fn;
#X floatatom 1991 -284 5 0 0 0 fundamental - -;
#X floatatom 2266 -284 5 0 0 1 harmonic - -;
#X obj 1991 -260 moses 128;
#X floatatom 1991 -238 5 0 0 0 - - -;
#X obj 479 -458 t b b;
#X obj 1966 -243 bng 15 250 50 0 empty empty empty 17 7 0 10 -262144
-1 -1;
#X obj 2266 -260 moses 128;
#X floatatom 2266 -238 5 0 0 0 - - -;
#X obj 2246 -243 bng 15 250 50 0 empty empty empty 17 7 0 10 -262144
-1 -1;
#X floatatom 1991 -174 5 0 0 1 index - -;
#X obj 1991 -139 tabread-three ff_table;
#X obj 1991 -205 + 32;
#X obj 1991 -107 unpack f f f;
#X floatatom 2060 -66 10 0 0 3 midicent - -;
#X floatatom 1992 -66 10 0 0 3 frequency - -;
#X floatatom 2237 -171 5 0 0 1 index - -;
#X obj 2237 -139 tabread-two hf_table;
#X obj 2237 -205 - 1;
#X floatatom 2309 -66 10 0 0 3 midicent - -;
#X floatatom 2237 -66 10 0 0 3 frequency - -;
#X obj 2237 -107 unpack f f;
#X obj 2178 -222 sel 0;
#X msg 2178 -67 0;
#N canvas 268 140 450 278 (subpatch) 0;
#X array inst_table 384 float 2;
#X coords 0 2.09715e+06 383 0 384 140 1 0 0;
#X restore 1970 267 graph;
#X text 2055 247 (harmonic_function \, frequency);
#X obj 2059 -243 bng 15 250 50 0 empty empty empty 17 7 0 10 -262144
-1 -1;
#X obj 2331 -243 bng 15 250 50 0 empty empty empty 17 7 0 10 -262144
-1 -1;
#X obj 2100 -436 t a a;
#X obj 2157 -205 bng 15 250 50 0 empty empty empty 17 7 0 10 -262144
-1 -1;
#X msg 2205 -67 127;
#X obj 2178 -94 t b b b;
#X floatatom 2013 116 10 0 0 3 midicent - -;
#X floatatom 2096 116 10 0 0 3 midi21bit - -;
#X floatatom 2262 116 10 0 0 3 index - -;
#X obj 2096 148 t b a;
#X floatatom 2189 116 10 0 0 3 frequency - -;
#X obj 2189 148 t b a;
#X text 2127 407 0 > 127 MIDI INSTRUMENT NOTES;
#X obj 2060 -515 uzi 128;
#X floatatom 2382 238 5 0 0 1 index - -;
#X obj 2382 314 list prepend set;
#X obj 2382 342 list trim;
#X obj 2382 212 bng 15 250 50 0 empty empty empty 17 7 0 10 -262144
-1 -1;
#X msg 2382 390 44 720896 103.826;
#X obj 142 -464 loadbang;
#X obj 267 -274 - 1;
#X msg 168 -274 128 128;
#X obj 193 -322 uzi 128;
#X obj 204 -298 t b a;
#X msg 40 444 0 0;
#X msg 1038 442 -6 92.4986 42;
#X msg 1235 442 0 0;
#X obj 168 -252 tabwrite-two ctrl_fn;
#X obj 2122 -17 t a a;
#X obj 2162 0 * 16384;
#X obj 2113 26 pack 0 0 0 0;
#X floatatom 1959 -90 5 0 0 0 - - -;
#X obj 2114 80 unpack f f f f;
#X obj 2096 179 pack 0 0 0;
#X obj 2096 210 tabwrite-three inst_table;
#X text 2212 0 MTS semitone steps;
#X msg 2113 53 \$2 \$3 \$1 \$4;
#X obj 2382 286 tabread-three inst_table;
#X obj 2245 -315 tabwrite-three inst_table;
#X obj 2099 -490 - 1;
#X msg 2245 -423 128;
#X msg 2289 -423 16384;
#X obj 2303 -381 *;
#X msg 2337 -423 0;
#X obj 2245 -398 t a a;
#X obj 2245 -339 pack 0 0 0;
#X obj 2273 -364 - 1;
#X msg 494 444 128 0;
#X text 1976 273 0 > 2.09715e+06;
#X obj 96 -181 unpack f f f;
#X obj 2100 -364 route 0 1;
#X obj 2152 -532 t b b b;
#X obj 2392 -470 - 1;
#X obj 2289 -515 uzi 128;
#X obj 2328 -487 t b a;
#X obj 2273 -515 bng 15 250 50 0 empty empty empty 17 7 0 10 -262144
-1 -1;
#X obj 2263 -470 t b b b;
#X obj 2254 -446 t b b;
#X text 2203 -531 array initialization;
#X text 705 26 0 > 64 FUNDAMENTAL TONES;
#X text 1133 -197 fundamental mother;
#X obj 1163 -216 t b a;
#X obj 851 -201 t a a;
#X obj 767 -200 t a a;
#X text 158 -336 array initialization;
#X text 661 370 TET = 2 params. (unit \, division \, fundamental mother)
- eg. (2 \, 12) for 12-EDO;
#X obj 438 -181 unpack f f f;
#X obj 1130 -71 fundamental_hs;
#X obj 945 -71 fundamental_n-edx;
#X obj 985 -532 inlet;
#X obj 985 -483 print FUNDAMENTAL TUNING;
#X obj 1090 -35 pack 0 0 0 0;
#X obj 1193 -35 pack 0 0 0 0;
#X msg 1090 27 \$4 \$2 \$1 \$3;
#X msg 956 28 \$4 \$2 \$1 \$3;
#X msg 1193 26 \$4 \$2 \$1 \$3;
#X obj 899 -88 spigot;
#X obj 1083 -88 spigot;
#X obj 893 -269 print FUNDAMENTAL TUNING;
#X obj 912 -396 t b;
#X obj 1034 -367 tools/route_nedx;
#X obj 974 -396 tools/route_hs;
#X obj 912 -424 tools/route_file;
#X text 1540 -517 incoming foundamental tone freqency;
#X text 1601 -503 real-time bang every change;
#X text 1678 -53 when ends to calculate harmonics;
#X text 1676 -41 it starts to calculate inst_table;
#X msg 912 -294 FILE NOT IMPLEMENTED YET;
#X msg 893 -317 WRONG FT SELECTION OR IMMISSION;
#X obj 1513 -420 uzi 128;
#X obj 1513 -445 t b a a;
#X floatatom 1729 -277 10 0 0 0 - - -;
#X obj 1574 -249 ftom;
#X obj 1574 -212 pack 0 0 0;
#X floatatom 1548 -104 10 0 0 0 - - -;
#X floatatom 1621 -104 5 0 0 0 - - -;
#X floatatom 1671 -104 5 0 0 0 - - -;
#X obj 1591 -31 t b a;
#X obj 1574 -138 unpack f f f;
#X obj 1548 13 pack 0 0;
#X msg 1574 -182 \$2 \$1 \$3;
#X obj 1601 -277 t a a;
#X obj 1679 -78 sel 127;
#X obj 1643 -294 expr $f2/$f1;
#X obj 1620 -331 t a a;
#X obj 1552 -368 t a a a;
#X obj 1548 54 tabwrite-two sf_table;
#N canvas 268 140 450 278 (subpatch) 0;
#X array sf_table 256 float 2;
#X coords 0 1000 255 0 256 140 1 0 0;
#X restore 1664 120 graph;
#X text 1688 122 0 > 1000 Hz;
#X text 1660 145 (subharmonic_function \, frequency \, midicent_note)
;
#X text 1471 273 The arrays [hf_table] and [sf_table] contain;
#X text 1471 287 from 0 to 127 harmonics/subharmonics;
#X text 1470 302 (key 0 is the first sub/harmonic and so on);
#X text 1768 240 0 > 127 SUBHARMONICS;
#X text 1457 -260 HARMONICS;
#X text 1654 -260 SUBHARMONICS;
#X text 1022 -532 ft tuning method;
#X obj 498 -386 route read;
#X obj 498 -361 s gui_path_inst_map;
#X obj 171 -358 s gui_path_ctrl_map;
#X obj 171 -383 route read;
#X obj 155 -437 delay 200;
#X obj 489 -437 delay 200;
#X obj 543 -99 tabwrite used_keys;
#X obj 602 -149 f;
#X obj 625 -149 + 1;
#X floatatom 601 -125 5 0 0 0 - - -;
#X msg 650 -166 0;
#X obj 650 -197 bng 15 250 50 0 empty empty empty 17 7 0 10 -262144
-1 -1;
#X text 584 -180 ARRAY INDEX;
#X text 592 -167 GENERATOR;
#X obj 566 -164 bng 15 250 50 0 empty empty empty 17 7 0 10 -262144
-1 -1;
#X obj 601 -63 value used_keys_n;
#X obj 1513 -472 *;
#X obj 1379 -521 r gui_ht-multiplyer;
#X obj 1378 -496 t b f;
#X text 1372 -534 FROM GUI HT MULTIPLYER;
#X text 1200 -537 << SETUP FUNDAMENTAL;
#X text 1193 -528 << MOTHER TONE;
#X obj 1513 -502 f;
#X obj 2152 -499 send all-tuning_ok;
#X text 206 -132 index;
#X text 194 -122 (midi key);
#X text 435 -131 Fn;
#X text 526 -133 index;
#X text 514 -123 (midi key);
#X text 464 -131 Relative;
#X text 792 214 -32 > 3000 (Hz);
#X text 81 -132 FTfn RN;
#X text 133 -131 HTfn RN;
#X text 1341 142 (harmonic RT \, frequency \, midicent_note);
#X text 1381 -90 freq;
#X text 1438 -89 midi.cent;
#X text 1498 -132 index;
#X text 758 189 (relative note \, frequency \, midicent_note);
#X text 475 -122 Note;
#X text 1486 -122 (HTfn RN);
#X text 819 320 0 > 64 FOUNDAMENTAL TONES;
#X text 727 -81 -32 > +32 SCALA STEPS;
#X text 1553 -90 freq;
#X text 1610 -89 midi.cent;
#X text 1674 -129 index;
#X text 1662 -119 (HTfn RN);
#X text 2082 100 (Key \, MSB \, LSB);
#X obj 182 -227 s \$1_recolor_keyboard;
#X obj 69 -319 t b a b;
#X obj 411 -320 t a b;
#X obj 514 -251 tabwrite-two inst_fn;
#X obj 613 -273 - 1;
#X msg 514 -273 128 128;
#X obj 554 -321 uzi 128;
#X obj 565 -297 t b a;
#X text 513 -335 array initialization;
#X obj 411 -488 t b;
#X msg 479 -415 read ../keymaps/inst1_fn.himap;
#X text 1552 391 Copyright 2013-Today by Walter Mantovani;
#X text 1506 417 Licensed under 'GNU Affero General Public License
v.3.0';
#X text 1552 404 armonici.it@gmail.com // www.armonici.it;
#X msg 136 -418 read ../keymaps/ctrl1_fn.hcmap;
#X msg 756 -482 read ../keymaps/fundamental.htab;
#X connect 1 0 3 0;
#X connect 2 0 323 0;
#X connect 3 0 2 0;
#X connect 3 0 6 0;
#X connect 3 0 274 0;
#X connect 4 0 2 0;
#X connect 4 0 5 0;
#X connect 5 0 2 0;
#X connect 6 0 4 0;
#X connect 7 0 330 0;
#X connect 8 0 30 0;
#X connect 9 0 20 0;
#X connect 10 0 72 1;
#X connect 10 0 280 0;
#X connect 11 0 29 0;
#X connect 12 0 11 0;
#X connect 12 1 34 0;
#X connect 13 0 262 0;
#X connect 14 0 17 0;
#X connect 14 0 128 0;
#X connect 16 0 15 0;
#X connect 16 0 296 0;
#X connect 20 0 30 0;
#X connect 20 1 30 1;
#X connect 21 0 32 0;
#X connect 22 0 23 0;
#X connect 23 0 181 0;
#X connect 24 0 21 0;
#X connect 25 0 33 0;
#X connect 26 0 27 0;
#X connect 27 0 204 0;
#X connect 28 0 25 0;
#X connect 29 0 12 0;
#X connect 29 1 11 1;
#X connect 30 0 72 0;
#X connect 32 0 22 0;
#X connect 33 0 26 0;
#X connect 34 0 223 0;
#X connect 36 0 261 0;
#X connect 43 0 218 0;
#X connect 44 0 45 0;
#X connect 45 0 43 0;
#X connect 46 0 44 0;
#X connect 47 0 220 0;
#X connect 48 0 50 0;
#X connect 49 0 48 0;
#X connect 49 1 51 0;
#X connect 50 0 49 0;
#X connect 50 1 48 1;
#X connect 51 0 52 0;
#X connect 52 0 47 0;
#X connect 52 1 53 0;
#X connect 53 0 219 0;
#X connect 55 0 57 0;
#X connect 56 0 322 0;
#X connect 57 0 56 0;
#X connect 57 0 60 0;
#X connect 57 0 277 0;
#X connect 58 0 56 0;
#X connect 58 0 59 0;
#X connect 59 0 56 0;
#X connect 60 0 58 0;
#X connect 61 0 55 0;
#X connect 62 0 69 0;
#X connect 63 0 67 0;
#X connect 64 0 71 1;
#X connect 65 0 68 0;
#X connect 66 0 65 0;
#X connect 66 1 70 0;
#X connect 67 0 69 0;
#X connect 67 1 69 1;
#X connect 68 0 66 0;
#X connect 68 1 65 1;
#X connect 69 0 71 0;
#X connect 70 0 206 0;
#X connect 73 0 48 0;
#X connect 74 0 73 0;
#X connect 74 0 75 0;
#X connect 75 0 73 0;
#X connect 76 0 74 0;
#X connect 77 0 336 0;
#X connect 79 0 85 0;
#X connect 80 0 43 0;
#X connect 85 0 46 0;
#X connect 85 1 80 0;
#X connect 86 0 112 0;
#X connect 87 0 88 0;
#X connect 88 0 182 0;
#X connect 89 0 86 0;
#X connect 91 0 93 0;
#X connect 92 0 91 0;
#X connect 93 0 94 0;
#X connect 94 0 95 0;
#X connect 95 0 96 0;
#X connect 97 0 77 0;
#X connect 98 0 7 0;
#X connect 99 0 61 0;
#X connect 101 0 136 0;
#X connect 102 0 110 0;
#X connect 103 0 105 0;
#X connect 104 0 111 1;
#X connect 105 0 110 0;
#X connect 105 1 110 1;
#X connect 106 0 231 0;
#X connect 107 0 102 0;
#X connect 107 1 103 0;
#X connect 107 2 108 0;
#X connect 107 3 104 0;
#X connect 108 0 109 0;
#X connect 109 0 110 0;
#X connect 109 1 110 2;
#X connect 110 0 111 0;
#X connect 112 0 87 0;
#X connect 113 0 114 0;
#X connect 114 0 122 0;
#X connect 115 0 120 0;
#X connect 116 0 118 0;
#X connect 117 0 121 1;
#X connect 118 0 120 0;
#X connect 118 1 120 1;
#X connect 119 0 115 0;
#X connect 119 1 116 0;
#X connect 119 2 117 0;
#X connect 120 0 121 0;
#X connect 122 0 119 0;
#X connect 123 0 127 0;
#X connect 124 0 125 0;
#X connect 125 0 183 0;
#X connect 126 0 123 0;
#X connect 127 0 124 0;
#X connect 128 0 113 0;
#X connect 128 1 114 1;
#X connect 129 0 159 0;
#X connect 130 0 170 0;
#X connect 131 0 207 0;
#X connect 132 0 134 0;
#X connect 133 0 138 0;
#X connect 134 0 135 0;
#X connect 134 0 137 0;
#X connect 134 1 157 0;
#X connect 135 0 143 0;
#X connect 136 0 279 0;
#X connect 138 0 139 0;
#X connect 138 0 140 0;
#X connect 138 1 158 0;
#X connect 139 0 153 0;
#X connect 141 0 142 0;
#X connect 142 0 144 0;
#X connect 143 0 141 0;
#X connect 144 0 188 0;
#X connect 144 1 146 0;
#X connect 144 2 145 0;
#X connect 145 0 185 0;
#X connect 146 0 187 0;
#X connect 147 0 148 0;
#X connect 148 0 152 0;
#X connect 149 0 147 0;
#X connect 150 0 185 0;
#X connect 151 0 187 0;
#X connect 152 0 151 0;
#X connect 152 1 150 0;
#X connect 153 0 160 0;
#X connect 153 0 162 0;
#X connect 153 1 149 0;
#X connect 154 0 187 0;
#X connect 159 0 131 0;
#X connect 159 1 187 3;
#X connect 161 0 185 0;
#X connect 162 0 154 0;
#X connect 162 1 161 0;
#X connect 163 0 190 0;
#X connect 164 0 166 0;
#X connect 165 0 191 1;
#X connect 166 0 190 0;
#X connect 166 1 190 1;
#X connect 167 0 168 0;
#X connect 168 0 190 0;
#X connect 168 1 190 2;
#X connect 170 2 196 0;
#X connect 171 0 194 0;
#X connect 172 0 173 0;
#X connect 173 0 175 0;
#X connect 174 0 171 0;
#X connect 176 0 278 0;
#X connect 177 0 184 1;
#X connect 178 0 184 0;
#X connect 179 2 180 0;
#X connect 180 0 178 0;
#X connect 180 1 177 0;
#X connect 185 0 187 1;
#X connect 185 1 186 0;
#X connect 186 0 187 2;
#X connect 187 0 193 0;
#X connect 189 0 163 0;
#X connect 189 1 164 0;
#X connect 189 2 167 0;
#X connect 189 3 165 0;
#X connect 190 0 191 0;
#X connect 193 0 189 0;
#X connect 194 0 172 0;
#X connect 196 0 129 0;
#X connect 197 0 201 0;
#X connect 198 0 199 1;
#X connect 199 0 203 0;
#X connect 200 0 202 2;
#X connect 201 0 202 0;
#X connect 201 1 199 0;
#X connect 202 0 195 0;
#X connect 203 0 202 1;
#X connect 206 0 62 0;
#X connect 206 1 63 0;
#X connect 206 2 64 0;
#X connect 207 0 132 0;
#X connect 207 1 133 0;
#X connect 208 0 297 0;
#X connect 208 1 170 0;
#X connect 208 2 210 0;
#X connect 209 0 195 1;
#X connect 210 2 211 0;
#X connect 211 0 213 0;
#X connect 211 1 209 0;
#X connect 212 0 210 0;
#X connect 213 0 214 0;
#X connect 213 2 200 0;
#X connect 214 0 197 0;
#X connect 214 1 198 0;
#X connect 218 0 77 0;
#X connect 218 1 225 2;
#X connect 218 1 224 1;
#X connect 219 0 78 1;
#X connect 219 1 225 3;
#X connect 219 1 224 3;
#X connect 220 0 78 0;
#X connect 220 1 233 0;
#X connect 220 1 234 0;
#X connect 223 0 8 0;
#X connect 223 1 9 0;
#X connect 223 2 10 0;
#X connect 223 2 288 0;
#X connect 224 0 228 0;
#X connect 224 1 228 1;
#X connect 224 2 229 0;
#X connect 224 3 229 1;
#X connect 224 4 228 2;
#X connect 224 4 229 2;
#X connect 224 5 228 3;
#X connect 224 5 229 3;
#X connect 225 0 106 0;
#X connect 225 1 106 1;
#X connect 225 2 106 2;
#X connect 225 3 106 3;
#X connect 226 0 227 0;
#X connect 226 0 239 0;
#X connect 228 0 230 0;
#X connect 229 0 232 0;
#X connect 230 0 107 0;
#X connect 231 0 107 0;
#X connect 232 0 107 0;
#X connect 233 0 225 0;
#X connect 234 0 224 0;
#X connect 236 0 244 0;
#X connect 237 0 233 1;
#X connect 237 1 234 1;
#X connect 237 2 225 1;
#X connect 237 3 245 0;
#X connect 237 4 233 1;
#X connect 238 0 234 1;
#X connect 238 1 233 1;
#X connect 238 2 224 2;
#X connect 238 3 237 0;
#X connect 238 4 234 1;
#X connect 239 0 236 0;
#X connect 239 1 233 1;
#X connect 239 1 234 1;
#X connect 239 2 238 0;
#X connect 244 0 235 0;
#X connect 245 0 235 0;
#X connect 246 2 13 0;
#X connect 247 0 246 0;
#X connect 247 1 14 1;
#X connect 247 2 260 1;
#X connect 249 0 250 0;
#X connect 250 0 257 0;
#X connect 251 0 256 0;
#X connect 252 0 254 0;
#X connect 253 0 259 0;
#X connect 253 0 263 1;
#X connect 254 0 256 0;
#X connect 254 1 256 1;
#X connect 255 0 251 0;
#X connect 255 1 252 0;
#X connect 255 2 253 0;
#X connect 256 0 263 0;
#X connect 257 0 255 0;
#X connect 258 0 249 0;
#X connect 258 1 250 1;
#X connect 259 0 208 0;
#X connect 260 0 248 0;
#X connect 260 0 258 0;
#X connect 261 0 114 2;
#X connect 261 1 250 2;
#X connect 262 0 14 0;
#X connect 262 1 260 0;
#X connect 262 2 36 0;
#X connect 274 0 275 0;
#X connect 277 0 276 0;
#X connect 278 0 335 0;
#X connect 279 0 331 0;
#X connect 281 0 282 0;
#X connect 281 0 283 0;
#X connect 282 0 281 1;
#X connect 283 0 280 1;
#X connect 283 0 289 0;
#X connect 284 0 281 1;
#X connect 285 0 284 0;
#X connect 288 0 281 0;
#X connect 290 0 247 0;
#X connect 291 0 292 0;
#X connect 292 0 296 0;
#X connect 292 1 290 1;
#X connect 296 0 290 0;
#X connect 322 0 321 0;
#X connect 322 1 68 0;
#X connect 322 2 179 0;
#X connect 323 0 29 0;
#X connect 323 1 327 0;
#X connect 323 1 285 0;
#X connect 325 0 324 1;
#X connect 326 0 324 0;
#X connect 327 2 328 0;
#X connect 328 0 326 0;
#X connect 328 1 325 0;
#X connect 330 0 1 0;
#X connect 331 0 2 0;
#X connect 331 0 6 0;
#X connect 331 0 274 0;
#X connect 335 0 56 0;
#X connect 335 0 60 0;
#X connect 335 0 277 0;
#X connect 336 0 73 0;
#X connect 336 0 76 0;
