#N canvas 46 22 1327 856 10;
#X floatatom 323 117 5 0 0 0 - - -;
#X floatatom 412 116 5 0 0 0 - - -;
#X msg 747 117 247;
#X floatatom 494 -99 5 0 0 1 index - -;
#X floatatom 463 -30 10 0 0 3 midicent - -;
#X floatatom 528 1 16 0 0 0 midipu - -;
#X floatatom 550 -30 10 0 0 3 frequency - -;
#X obj 528 74 expr $f1 & 127;
#X floatatom 528 117 5 0 0 0 - - -;
#X obj 490 54 expr ($f1 >> 7) & 127;
#X floatatom 490 117 5 0 0 0 - - -;
#X obj 451 34 expr ($f1 >> 14) & 127;
#X floatatom 451 117 5 0 0 0 - - -;
#X obj 494 -47 unpack f f f;
#N canvas 0 22 450 278 (subpatch) 0;
#X array bulk-tuning-dump 521 float 2;
#X coords 0 255 520 0 521 140 1 0 0;
#X restore -210 318 graph;
#X msg -203 117 240;
#X msg 133 117 0;
#X msg -114 117 127;
#X msg -49 117 8;
#X obj 10 -309 bng 15 250 50 0 empty empty empty 17 7 0 10 -262144
-1 -1;
#X obj 528 17 t a a a;
#X text -197 145 SYSEX HEADER;
#X text -129 98 DEVICE ID;
#X text -60 86 sub-ID#1;
#X text -53 98 (MTS);
#X text 6 59 sub-ID#2;
#X text 122 78 TUNING;
#X text 121 88 PROGRAM;
#X text 124 98 PRESET;
#X text 9 89 MESSAGE;
#X text 10 99 CODE ID;
#X text 15 69 1 4;
#X text 15 79 2 7;
#X msg -174 117 127;
#X obj 455 -134 uzi 128;
#X obj 494 -117 - 1;
#X obj 390 318 f;
#X obj 413 318 + 1;
#X floatatom 389 342 5 0 0 0 - - -;
#X msg 438 301 0;
#X obj 438 358 == \$1;
#X obj 438 376 sel 1;
#X obj 438 331 bng 15 250 50 0 empty empty empty 17 7 0 10 -262144
-1 -1;
#X msg 508 341 408;
#X obj 344 368 pack 0 0;
#X obj 344 301 t a b;
#X obj 344 393 unpack f f;
#X obj 451 430 tabwrite bulk-tuning-dump;
#X obj 477 193 f;
#X obj 396 216 expr $f1 ^ $f2;
#X obj 344 420 spigot;
#X obj 344 261 list trim;
#X msg 477 172 0;
#X obj 307 203 bng 15 250 50 0 empty empty empty 17 7 0 10 -262144
-1 -1;
#X obj 305 176 t b a a;
#X msg 21 117 2;
#X obj 681 13 f;
#X floatatom 681 37 5 0 0 0 - - -;
#X obj 755 -125 t b b;
#X msg 480 341 407;
#X obj 387 437 midiout;
#X obj 494 -65 tabread-three inst_table;
#X obj -201 -392 inlet;
#X text 443 445 ARRAY just to check the output;
#X text 498 384 for now the sysex message;
#X text 471 398 is generated also when sysex is off;
#X msg 80 117 0;
#X text 76 97 BANK;
#X obj -89 -25 t b b b b b b;
#X text 372 287 ARRAY INDEX;
#X text 380 300 GENERATOR;
#X floatatom 681 117 5 0 0 0 - - -;
#X obj 681 60 & 127;
#X text 671 100 CHECKSUM;
#X text 394 231 CHECKSUM: XORING;
#X msg -143 -127 127;
#X msg -174 -127 126;
#X msg -22 -127 1;
#X msg 8 -127 4;
#X msg 38 -127 2;
#X obj 163 -363 == 0;
#X obj 206 -363 == 1;
#X obj 249 -363 == 2;
#X obj 292 -363 == 3;
#X obj 335 -363 == 4;
#X obj 130 -335 spigot;
#X obj 173 -335 spigot;
#X obj 216 -335 spigot;
#X obj 259 -335 spigot;
#X obj 302 -335 spigot;
#X obj 249 -393 r gui_midi_sysex_method;
#X msg 23 -358 0;
#X obj -201 -375 sel 0;
#X obj -201 -342 s gui_midi_sysex_method_init;
#X obj -201 -357 bng 15 250 50 0 empty empty empty 17 7 0 10 -262144
-1 -1;
#X obj 3 -23 t b b b b b b b;
#X obj 115 -309 bng 15 250 50 0 empty empty empty 17 7 0 10 -262144
-1 -1;
#X obj 10 -282 t b b b b b;
#X obj 115 -282 t b b b b b;
#X text 14 -297 NRT: Bulk Dump;
#X text 119 -297 NRT: Bulk Dump - Bank;
#X text 278 -297 RT: Single Note Change;
#X text 441 -297 RT: Single Note Change - Bank;
#X text 638 -297 NRT: Single Note Change - Bank;
#X obj -174 -86 list prepend set;
#X obj -174 -58 list trim;
#X text -179 99 RT/NRT;
#X obj 21 -86 list prepend set;
#X obj 21 -58 list trim;
#X obj 182 117 midiout_sysex_ascii;
#X obj 872 -226 list prepend set;
#X obj 872 -206 list trim;
#X obj 1032 -377 loadbang;
#X obj 1032 -355 delay 200;
#X msg 845 -338 0;
#X obj 845 -294 i;
#X obj 845 -315 t b a;
#X obj 845 -270 t a a;
#X obj 845 -362 t b a;
#X text 799 -388 BANK #;
#X text 877 -335 BANK #;
#X obj 845 -387 r gui_sysex_bank_input;
#X text 212 100 TUNING NAME;
#X text 663 77 AND with 127;
#X obj 845 -248 s gui_sysex_bank_value;
#X obj 872 -12 list prepend set;
#X obj 872 8 list trim;
#X msg 845 -127 127;
#X obj 845 -80 i;
#X obj 845 -103 t b a;
#X obj 845 -57 t a a;
#X obj 845 -151 t b a;
#X text 877 -124 BANK #;
#X text 791 -177 DEVICE #;
#X obj 845 -176 r gui_sysex_device_input;
#X obj 845 -34 s gui_sysex_device_value;
#X obj 872 198 list prepend set;
#X obj 872 218 list trim;
#X msg 845 85 0;
#X obj 845 129 i;
#X obj 845 107 t b a;
#X obj 845 153 t a a;
#X obj 845 61 t b a;
#X text 785 34 PROGRAM #;
#X text 877 88 PROGRAM #;
#X obj 845 36 r gui_sysex_program_input;
#X obj 845 175 s gui_sysex_program_value;
#X obj 274 -309 bng 15 250 50 0 empty empty empty 17 7 0 10 -262144
-1 -1;
#X obj 274 -282 t b b b b b;
#X floatatom 584 -149 5 0 0 1 index - -;
#X obj 584 -167 - 1;
#X obj 584 -92 t a a;
#X obj 565 200 * 4;
#X obj 565 262 list prepend set;
#X obj 565 284 list trim;
#X obj 333 -17 list prepend set;
#X obj 333 8 list trim;
#X msg 536 341 519;
#X obj 565 305 t b a;
#X obj 564 242 - 1;
#X obj 53 209 i;
#X floatatom 51 248 5 0 0 0 - - -;
#X msg 69 -127 7;
#X obj 545 -184 uzi;
#X msg 323 74 127;
#X obj 572 -201 + 1;
#X obj 565 177 + 1;
#X obj 437 -309 bng 15 250 50 0 empty empty empty 17 7 0 10 -262144
-1 -1;
#X obj 634 -309 bng 15 250 50 0 empty empty empty 17 7 0 10 -262144
-1 -1;
#X obj 634 -282 t b b b b b;
#X obj 565 221 +;
#X msg 609 204 8;
#X msg 639 204 9;
#X obj 508 -282 t b b;
#X obj 345 -282 t b b;
#X obj 715 -282 t b b;
#X text -65 -40 NO BANK;
#X text 54 -38 BANK;
#X obj 437 -282 t b b b b b;
#N canvas 57 84 450 300 (subpatch) 0;
#X array used_keys 128 float 2;
#X coords 0 127 127 0 128 140 1 0 0;
#X restore 705 252 graph;
#X text 714 391 0 > 127 used keys;
#X obj 322 -119 spigot;
#X obj 370 -119 spigot;
#X obj 332 -146 == 0;
#X obj 365 -146 == 1;
#X obj 342 -96 value used_keys_n;
#X msg 312 -96 127;
#X obj 310 -148 bng 15 250 50 0 empty empty empty 17 7 0 10 -262144
-1 -1;
#X obj 333 -64 f;
#X obj 315 -175 r gui_sysex_single_note;
#X obj 566 -130 spigot;
#X obj 606 -130 spigot;
#X obj 606 -112 tabread used_keys;
#X obj -201 -325 s gui_sysex_single_note_init;
#X obj 90 -394 r all-tuning_ok;
#X obj 98 -368 t b b;
#X obj -31 -394 s gui_array_refresh;
#X text 785 412 Copyright 2013-Today by Walter Mantovani;
#X text 739 438 Licensed under 'GNU Affero General Public License v.3.0'
;
#X text 785 425 armonici.it@gmail.com // www.armonici.it;
#X connect 0 0 54 0;
#X connect 1 0 54 0;
#X connect 2 0 51 0;
#X connect 3 0 61 0;
#X connect 5 0 20 0;
#X connect 7 0 8 0;
#X connect 8 0 54 0;
#X connect 9 0 10 0;
#X connect 10 0 54 0;
#X connect 11 0 12 0;
#X connect 12 0 54 0;
#X connect 13 0 4 0;
#X connect 13 1 5 0;
#X connect 13 2 6 0;
#X connect 15 0 51 0;
#X connect 15 0 53 0;
#X connect 16 0 54 0;
#X connect 17 0 54 0;
#X connect 18 0 54 0;
#X connect 19 0 97 0;
#X connect 20 0 7 0;
#X connect 20 1 9 0;
#X connect 20 2 11 0;
#X connect 33 0 54 0;
#X connect 34 2 35 0;
#X connect 35 0 3 0;
#X connect 36 0 37 0;
#X connect 36 0 38 0;
#X connect 37 0 36 1;
#X connect 38 0 44 1;
#X connect 38 0 40 0;
#X connect 39 0 36 1;
#X connect 40 0 41 0;
#X connect 41 0 42 0;
#X connect 42 0 39 0;
#X connect 43 0 40 1;
#X connect 44 0 46 0;
#X connect 45 0 44 0;
#X connect 45 1 36 0;
#X connect 46 0 47 0;
#X connect 46 0 50 0;
#X connect 46 1 47 1;
#X connect 48 0 49 1;
#X connect 49 0 48 1;
#X connect 49 0 56 1;
#X connect 50 0 60 0;
#X connect 51 0 45 0;
#X connect 52 0 48 0;
#X connect 53 0 52 0;
#X connect 54 0 48 0;
#X connect 54 1 49 0;
#X connect 54 2 51 0;
#X connect 55 0 160 0;
#X connect 56 0 57 0;
#X connect 57 0 72 0;
#X connect 58 0 2 0;
#X connect 58 1 56 0;
#X connect 59 0 40 1;
#X connect 61 0 13 0;
#X connect 62 0 50 1;
#X connect 62 0 92 0;
#X connect 66 0 54 0;
#X connect 68 0 16 0;
#X connect 68 1 55 0;
#X connect 68 2 18 0;
#X connect 68 3 17 0;
#X connect 68 4 33 0;
#X connect 68 5 15 0;
#X connect 71 0 51 0;
#X connect 72 0 71 0;
#X connect 75 0 104 0;
#X connect 76 0 104 0;
#X connect 77 0 107 0;
#X connect 78 0 107 0;
#X connect 79 0 107 0;
#X connect 80 0 85 1;
#X connect 81 0 86 1;
#X connect 82 0 87 1;
#X connect 83 0 88 1;
#X connect 84 0 89 1;
#X connect 85 0 19 0;
#X connect 86 0 96 0;
#X connect 87 0 147 0;
#X connect 88 0 167 0;
#X connect 89 0 168 0;
#X connect 90 0 80 0;
#X connect 90 0 81 0;
#X connect 90 0 82 0;
#X connect 90 0 83 0;
#X connect 90 0 84 0;
#X connect 91 0 85 1;
#X connect 91 0 87 1;
#X connect 91 0 88 1;
#X connect 91 0 89 1;
#X connect 91 0 86 1;
#X connect 92 0 91 0;
#X connect 92 1 94 0;
#X connect 94 0 93 0;
#X connect 94 0 193 0;
#X connect 95 0 16 0;
#X connect 95 1 66 0;
#X connect 95 2 55 0;
#X connect 95 3 18 0;
#X connect 95 4 17 0;
#X connect 95 5 33 0;
#X connect 95 6 15 0;
#X connect 96 0 98 0;
#X connect 97 0 58 0;
#X connect 97 1 34 0;
#X connect 97 2 109 0;
#X connect 97 3 68 0;
#X connect 97 4 59 0;
#X connect 97 4 77 0;
#X connect 97 4 76 0;
#X connect 98 0 58 0;
#X connect 98 1 34 0;
#X connect 98 2 109 0;
#X connect 98 3 95 0;
#X connect 98 4 43 0;
#X connect 98 4 76 0;
#X connect 98 4 78 0;
#X connect 104 0 105 0;
#X connect 105 0 33 0;
#X connect 107 0 108 0;
#X connect 108 0 55 0;
#X connect 109 0 54 0;
#X connect 110 0 111 0;
#X connect 111 0 66 0;
#X connect 112 0 113 0;
#X connect 113 0 114 0;
#X connect 113 0 127 0;
#X connect 113 0 138 0;
#X connect 114 0 116 0;
#X connect 115 0 117 0;
#X connect 116 0 115 0;
#X connect 116 1 115 1;
#X connect 117 0 124 0;
#X connect 117 1 110 0;
#X connect 118 0 114 0;
#X connect 118 1 114 0;
#X connect 121 0 118 0;
#X connect 125 0 126 0;
#X connect 126 0 17 0;
#X connect 127 0 129 0;
#X connect 128 0 130 0;
#X connect 129 0 128 0;
#X connect 129 1 128 1;
#X connect 130 0 135 0;
#X connect 130 1 125 0;
#X connect 131 0 127 0;
#X connect 131 1 127 0;
#X connect 134 0 131 0;
#X connect 136 0 137 0;
#X connect 137 0 16 0;
#X connect 138 0 140 0;
#X connect 139 0 141 0;
#X connect 140 0 139 0;
#X connect 140 1 139 1;
#X connect 141 0 146 0;
#X connect 141 1 136 0;
#X connect 142 0 138 0;
#X connect 142 1 138 0;
#X connect 145 0 142 0;
#X connect 147 0 148 0;
#X connect 148 0 2 0;
#X connect 148 1 163 0;
#X connect 148 2 164 0;
#X connect 148 3 68 0;
#X connect 148 4 75 0;
#X connect 148 4 79 0;
#X connect 148 4 174 0;
#X connect 149 0 190 0;
#X connect 149 0 191 0;
#X connect 150 0 149 0;
#X connect 151 0 61 0;
#X connect 151 1 1 0;
#X connect 152 0 170 0;
#X connect 153 0 154 0;
#X connect 154 0 158 0;
#X connect 155 0 156 0;
#X connect 156 0 164 0;
#X connect 157 0 40 1;
#X connect 158 0 157 0;
#X connect 158 1 157 0;
#X connect 159 0 153 0;
#X connect 160 0 54 0;
#X connect 160 0 161 0;
#X connect 162 0 107 0;
#X connect 163 2 150 0;
#X connect 164 0 0 0;
#X connect 165 0 163 1;
#X connect 166 0 152 0;
#X connect 167 0 178 0;
#X connect 168 0 169 0;
#X connect 169 0 2 0;
#X connect 169 1 163 0;
#X connect 169 2 164 0;
#X connect 169 3 95 0;
#X connect 169 4 175 0;
#X connect 169 4 76 0;
#X connect 169 4 162 0;
#X connect 170 0 159 0;
#X connect 171 0 170 1;
#X connect 172 0 170 1;
#X connect 173 0 187 0;
#X connect 173 1 172 0;
#X connect 174 0 187 0;
#X connect 174 1 171 0;
#X connect 175 0 187 0;
#X connect 175 1 172 0;
#X connect 178 0 2 0;
#X connect 178 1 163 0;
#X connect 178 2 164 0;
#X connect 178 3 95 0;
#X connect 178 4 75 0;
#X connect 178 4 162 0;
#X connect 178 4 173 0;
#X connect 181 0 186 0;
#X connect 182 0 185 0;
#X connect 183 0 181 1;
#X connect 183 0 190 1;
#X connect 184 0 182 1;
#X connect 184 0 191 1;
#X connect 185 0 188 0;
#X connect 186 0 188 0;
#X connect 187 0 181 0;
#X connect 187 0 182 0;
#X connect 188 0 165 0;
#X connect 188 0 166 0;
#X connect 188 0 155 0;
#X connect 189 0 183 0;
#X connect 189 0 184 0;
#X connect 190 0 151 0;
#X connect 191 0 192 0;
#X connect 192 0 151 0;
#X connect 194 0 195 0;
#X connect 195 0 196 0;
#X connect 195 1 89 0;
#X connect 195 1 88 0;
#X connect 195 1 87 0;
#X connect 195 1 86 0;
#X connect 195 1 85 0;
