#N canvas 237 227 1086 563 10;
#X floatatom 75 12 5 0 0 3 note_(array_index) - -;
#X floatatom 4 158 10 0 0 3 midicent - -;
#X floatatom 109 197 16 0 0 0 midipu - -;
#X floatatom 161 158 10 0 0 3 frequency - -;
#X obj 75 141 unpack f f f;
#X obj 75 113 tabread-three inst_table;
#X floatatom 4 335 10 0 0 3 PITCHBEND_AMOUNT - -;
#X msg 249 261 2;
#X obj 75 -36 inlet;
#X obj 75 -12 unpack f f f;
#X floatatom 280 335 5 0 0 3 MIDI_CHANNEL - -;
#X floatatom 190 335 5 0 0 3 VELOCITY - -;
#X floatatom 119 335 5 0 0 3 MIDI_NOTE - -;
#X obj 165 493 noteout;
#X obj 98 492 bendout;
#X obj 85 388 pack 0 0 0 0;
#X obj 91 413 unpack f f f f;
#X obj 190 447 t a a;
#X obj 249 -36 inlet;
#X text 255 20 PITCH BEND RANGE;
#X text 219 277 PITCH BEND RANGE;
#X text 364 17 PITCH BEND RESPONSE TIMING;
#X obj 249 -7 unpack f f;
#X obj 249 41 list prepend set;
#X obj 249 69 list trim;
#X msg 372 195 5;
#X obj 370 42 list prepend set;
#X obj 370 70 list trim;
#X obj 110 447 pipe;
#X text 321 212 PITCH BEND RESPONSE TIMING;
#X obj 150 447 != 0;
#X obj 59 447 spigot;
#X obj 534 -36 inlet;
#X obj 352 433 != 0;
#X obj 534 -1 bng 15 250 50 0 empty empty empty 17 7 0 10 -262144 -1
-1;
#X msg 535 22 1;
#X obj 535 50 ==;
#X obj 535 74 sel 1;
#X obj 352 482 outlet;
#X obj 352 457 t a a;
#X msg 605 225 0;
#X obj 571 124 t b b b b;
#X obj 522 124 t b b;
#X obj 535 98 t b b;
#X obj 522 246 delay;
#X obj 102 86 tabread-two inst_fn;
#X text 321 414 PRESSURE MONITOR;
#X text 539 -18 FT TONE CHANGE SIGNAL;
#X obj 914 83 tabread ft_channel-poly;
#X obj 756 83 tabread ht_channel-poly;
#X floatatom 675 153 5 0 0 3 key_function - -;
#X floatatom 168 5 5 0 0 3 poly-note - -;
#X obj 756 261 spigot;
#X obj 756 123 list prepend set;
#X obj 756 152 list trim;
#X obj 805 244 == 1;
#X obj 772 179 t b a;
#X obj 914 261 spigot;
#X obj 914 123 list prepend set;
#X obj 914 152 list trim;
#X msg 914 229 0;
#X obj 930 179 t b a;
#X obj 963 244 == 0;
#X text 765 56 HARMONICS CHANNELS;
#X text 925 56 FUNDAMENTALS CHANNELS;
#X text 809 226 MIDI-OUT CHANNELS;
#X obj 660 58 - 1;
#X obj 688 39 - 1;
#X msg 756 233 4;
#X obj 75 61 t a a;
#X obj 119 44 moses 1;
#X obj 158 66 t a b;
#X obj 166 469 pipe;
#X obj 205 471 pipe;
#X obj 4 279 pitch-bend_tuning-calc;
#X obj 4 221 t a b b;
#X text 778 293 TODO: FIX \, too many checks...;
#X text -11 293 TODO: multimode \, see inside;
#X text 648 443 Copyright 2013-Today by Walter Mantovani;
#X text 602 469 Licensed under 'GNU Affero General Public License v.3.0'
;
#X text 648 456 armonici.it@gmail.com // www.armonici.it;
#X connect 0 0 69 0;
#X connect 1 0 75 0;
#X connect 4 0 1 0;
#X connect 4 1 2 0;
#X connect 4 2 3 0;
#X connect 5 0 4 0;
#X connect 6 0 15 0;
#X connect 7 0 74 1;
#X connect 8 0 9 0;
#X connect 9 0 0 0;
#X connect 9 1 70 0;
#X connect 9 2 51 0;
#X connect 10 0 15 3;
#X connect 11 0 15 2;
#X connect 11 0 33 0;
#X connect 12 0 15 1;
#X connect 15 0 16 0;
#X connect 16 0 31 0;
#X connect 16 1 28 0;
#X connect 16 2 30 0;
#X connect 16 2 72 0;
#X connect 16 3 17 0;
#X connect 17 0 73 0;
#X connect 17 1 14 1;
#X connect 18 0 22 0;
#X connect 22 0 23 0;
#X connect 22 1 26 0;
#X connect 22 1 44 1;
#X connect 23 0 24 0;
#X connect 24 0 7 0;
#X connect 25 0 28 1;
#X connect 25 0 72 1;
#X connect 25 0 73 1;
#X connect 26 0 27 0;
#X connect 27 0 25 0;
#X connect 28 0 13 0;
#X connect 30 0 31 1;
#X connect 31 0 14 0;
#X connect 32 0 34 0;
#X connect 33 0 39 0;
#X connect 34 0 35 0;
#X connect 35 0 36 0;
#X connect 36 0 37 0;
#X connect 37 0 43 0;
#X connect 39 0 38 0;
#X connect 39 1 36 1;
#X connect 40 0 15 2;
#X connect 41 0 6 0;
#X connect 41 1 12 0;
#X connect 41 2 40 0;
#X connect 41 3 10 0;
#X connect 42 0 44 0;
#X connect 42 1 11 0;
#X connect 43 0 42 0;
#X connect 43 1 41 0;
#X connect 44 0 0 0;
#X connect 45 0 50 0;
#X connect 48 0 58 0;
#X connect 49 0 53 0;
#X connect 50 0 56 0;
#X connect 50 0 61 0;
#X connect 51 0 67 0;
#X connect 51 0 66 0;
#X connect 52 0 10 0;
#X connect 53 0 54 0;
#X connect 54 0 68 0;
#X connect 55 0 52 1;
#X connect 56 0 68 0;
#X connect 56 1 55 0;
#X connect 57 0 10 0;
#X connect 58 0 59 0;
#X connect 59 0 60 0;
#X connect 60 0 57 0;
#X connect 61 0 60 0;
#X connect 61 1 62 0;
#X connect 62 0 57 1;
#X connect 66 0 49 0;
#X connect 67 0 48 0;
#X connect 68 0 52 0;
#X connect 69 0 5 0;
#X connect 69 1 45 0;
#X connect 70 0 11 0;
#X connect 70 1 71 0;
#X connect 71 0 11 0;
#X connect 72 0 13 1;
#X connect 73 0 13 2;
#X connect 74 0 6 0;
#X connect 74 1 12 0;
#X connect 75 0 74 0;
#X connect 75 1 7 0;
#X connect 75 2 25 0;
