#N canvas 220 71 874 392 10;
#X text 142 186 soft reset;
#X text 457 118 hard reset;
#X obj 446 295 noteout;
#X obj 407 173 uzi 128;
#X obj 446 201 - 1;
#X msg 465 256 0;
#X obj 446 226 t a b b;
#X msg 499 256 16;
#X obj 499 227 prepend set;
#X msg 358 235 64;
#X msg 327 235 0;
#X obj 327 201 t b b a;
#X msg 150 235 0;
#X obj 150 201 t b b a;
#X msg 181 235 123;
#X text 309 183 HOLD PEDAL OFF;
#X text 135 176 ALL NOTE OFF;
#X msg 33 235 0;
#X obj 33 201 t b b a;
#X text 9 186 PORTAMENTO TIME 0;
#X obj 134 36 uzi 16;
#X obj 474 133 t b a;
#X msg 63 235 5;
#X obj 193 147 t a a;
#X text 234 186 soft reset;
#X obj 242 201 t b b a;
#X msg 274 235 123;
#X text 227 176 ALL NOTE OFF;
#X obj 209 295 ctlout;
#X msg 242 235 127;
#X text 220 165 (exp. val=127);
#X obj 679 149 uzi 128;
#X obj 718 175 - 1;
#X msg 739 263 127;
#X obj 616 192 +;
#X obj 616 216 prepend set;
#X obj 739 295 midiout;
#X msg 631 157 127;
#X msg 697 263 143;
#X msg 771 263 64;
#X obj 769 225 prepend set;
#X obj 718 199 t b b b a;
#X text 579 152 note off;
#X text 555 162 base channel;
#X text 660 247 channel out;
#X text 739 247 key;
#X text 768 247 velocity;
#X text 430 108 ALL NOTES OFF (9nH);
#X text 639 100 ALL NOTES OFF (8nH);
#X text 665 108 hard reset;
#X text 179 37 MIDI-OUT CHANNELS;
#X text 455 169 128 Notes;
#X text 455 179 per Channel;
#X text 727 143 128 Notes;
#X text 727 153 per Channel;
#X obj 134 11 r gui_pitchbend_noteoff9_send;
#X obj 336 34 uzi 16;
#X text 381 35 MIDI-OUT CHANNELS;
#X obj 336 9 r gui_pitchbend_noteoff8_send;
#X obj 369 60 t a a a a;
#X obj 167 62 t a a a a;
#X obj 679 123 t b a b;
#X text 572 22 Copyright 2013-Today by Walter Mantovani;
#X text 526 48 Licensed under 'GNU Affero General Public License v.3.0'
;
#X text 572 35 armonici.it@gmail.com // www.armonici.it;
#X connect 3 2 4 0;
#X connect 4 0 6 0;
#X connect 5 0 2 1;
#X connect 6 0 2 0;
#X connect 6 1 5 0;
#X connect 6 2 7 0;
#X connect 7 0 2 2;
#X connect 8 0 7 0;
#X connect 9 0 28 1;
#X connect 10 0 28 0;
#X connect 11 0 10 0;
#X connect 11 1 9 0;
#X connect 11 2 28 2;
#X connect 12 0 28 0;
#X connect 13 0 12 0;
#X connect 13 1 14 0;
#X connect 13 2 28 2;
#X connect 14 0 28 1;
#X connect 17 0 28 0;
#X connect 18 0 17 0;
#X connect 18 1 22 0;
#X connect 18 2 28 2;
#X connect 20 2 60 0;
#X connect 21 0 3 0;
#X connect 21 1 8 0;
#X connect 22 0 28 1;
#X connect 23 0 13 0;
#X connect 23 1 25 0;
#X connect 25 0 29 0;
#X connect 25 1 26 0;
#X connect 25 2 28 2;
#X connect 26 0 28 1;
#X connect 29 0 28 0;
#X connect 31 2 32 0;
#X connect 32 0 41 0;
#X connect 33 0 36 0;
#X connect 34 0 35 0;
#X connect 35 0 38 0;
#X connect 37 0 34 1;
#X connect 38 0 36 0;
#X connect 39 0 36 0;
#X connect 40 0 33 0;
#X connect 41 0 39 0;
#X connect 41 1 33 0;
#X connect 41 2 38 0;
#X connect 41 3 40 0;
#X connect 55 0 20 0;
#X connect 56 2 59 0;
#X connect 58 0 56 0;
#X connect 59 0 18 0;
#X connect 59 1 23 0;
#X connect 59 2 11 0;
#X connect 59 3 61 0;
#X connect 60 0 18 0;
#X connect 60 1 23 0;
#X connect 60 2 11 0;
#X connect 60 3 21 0;
#X connect 61 0 31 0;
#X connect 61 1 34 0;
#X connect 61 2 37 0;
