#N canvas 71 22 1376 826 10;
#X obj 250 59 poly 2 1;
#X obj 250 89 poly 3 1;
#X obj 250 119 poly 4 1;
#X obj 250 149 poly 5 1;
#X obj 250 179 poly 6 1;
#X obj 250 209 poly 7 1;
#X obj 250 239 poly 8 1;
#X obj 250 269 poly 9 1;
#X obj 250 299 poly 10 1;
#X obj 250 329 poly 11 1;
#X obj 250 359 poly 12 1;
#X obj 250 389 poly 13 1;
#X obj 250 419 poly 14 1;
#X obj 250 449 poly 15 1;
#X obj 250 479 poly 16 1;
#X obj -124 -31 inlet;
#X obj -68 -31 inlet;
#X obj 53 153 list prepend set;
#X obj 53 173 list trim;
#X msg 53 238 0;
#X obj -125 282 pack 0 0 0;
#X obj -54 136 t b a;
#X obj -14 502 route 1 2 3 4 5 6 7 8 9 10 11 12 13 14 15 16;
#X obj 445 496 route 1 2 3 4 5 6 7 8 9 10 11 12 13 14 15 16;
#X obj 350 519 pack 0 0 0 0;
#X text 24 258 VOICES OF POLY;
#X text -120 -47 note;
#X text -76 -47 velocity;
#X obj 372 246 t a a;
#X obj 919 25 loadbang;
#X obj 919 47 delay 200;
#X obj 857 206 pack 0 0;
#X text 1039 -19 PITCH BEND RESPONSE TIMING;
#X text 852 -20 PITCH BEND RANGE;
#X obj 946 152 i;
#X obj 991 152 i;
#X obj 1039 98 t b b a;
#X obj 879 98 t b b a;
#X msg 1039 64 5;
#X msg 847 64 2;
#X obj 847 31 t b a;
#X obj 1039 31 t b a;
#X obj 334 -28 inlet;
#X obj 805 22 tgl 18 0 empty empty c1 4 10 0 10 -262130 -258113 -1
0 1;
#X obj 805 52 tgl 18 0 empty empty c1 4 10 0 10 -262130 -258113 -1
0 1;
#X obj 805 82 tgl 18 0 empty empty c1 4 10 0 10 -262130 -258113 -1
0 1;
#X obj 805 112 tgl 18 0 empty empty c1 4 10 0 10 -262130 -258113 -1
0 1;
#X obj 805 142 tgl 18 0 empty empty c1 4 10 0 10 -262130 -258113 -1
0 1;
#X obj 805 172 tgl 18 0 empty empty c1 4 10 0 10 -262130 -258113 -1
0 1;
#X obj 805 202 tgl 18 0 empty empty c1 4 10 0 10 -262130 -258113 -1
0 1;
#X obj 805 232 tgl 18 0 empty empty c1 4 10 0 10 -262130 -258113 -1
0 1;
#X obj 805 262 tgl 18 0 empty empty c1 4 10 0 10 -262130 -258113 -1
0 1;
#X obj 805 292 tgl 18 0 empty empty c1 4 10 0 10 -262130 -258113 -1
0 1;
#X obj 805 322 tgl 18 0 empty empty c1 4 10 0 10 -262130 -258113 -1
0 1;
#X obj 805 352 tgl 18 0 empty empty c1 4 10 0 10 -262130 -258113 -1
0 1;
#X obj 805 382 tgl 18 0 empty empty c1 4 10 0 10 -262130 -258113 -1
0 1;
#X obj 805 412 tgl 18 0 empty empty c1 4 10 0 10 -262130 -258113 -1
0 1;
#X obj 805 442 tgl 18 0 empty empty c1 4 10 0 10 -262130 -258113 -1
0 1;
#X obj 805 472 tgl 18 0 empty empty c1 4 10 0 10 -262130 -258113 -1
0 1;
#X obj 260 599 poly 1 1;
#X obj 260 629 poly 2 1;
#X obj 260 659 poly 3 1;
#X obj 260 689 poly 4 1;
#X obj 260 719 poly 5 1;
#X obj 260 749 poly 6 1;
#X obj 260 779 poly 7 1;
#X obj 260 809 poly 8 1;
#X obj 260 839 poly 9 1;
#X obj 260 869 poly 10 1;
#X obj 260 899 poly 11 1;
#X obj 260 929 poly 12 1;
#X obj 260 959 poly 13 1;
#X obj 260 989 poly 14 1;
#X obj 260 1019 poly 15 1;
#X obj 260 1049 poly 16 1;
#X obj -4 1072 route 1 2 3 4 5 6 7 8 9 10 11 12 13 14 15 16;
#X obj 455 1066 route 1 2 3 4 5 6 7 8 9 10 11 12 13 14 15 16;
#X obj 360 1089 pack 0 0 0 0;
#X obj 382 816 t a a;
#X obj 867 776 pack 0 0;
#X text 303 560 FT TONE CHANGE SIGNAL;
#X obj 815 592 tgl 18 0 empty empty c1 4 10 0 10 -262130 -258113 -1
0 1;
#X obj 815 622 tgl 18 0 empty empty c1 4 10 0 10 -262130 -258113 -1
0 1;
#X obj 815 652 tgl 18 0 empty empty c1 4 10 0 10 -262130 -258113 -1
0 1;
#X obj 815 682 tgl 18 0 empty empty c1 4 10 0 10 -262130 -258113 -1
0 1;
#X obj 815 712 tgl 18 0 empty empty c1 4 10 0 10 -262130 -258113 -1
0 1;
#X obj 815 742 tgl 18 0 empty empty c1 4 10 0 10 -262130 -258113 -1
0 1;
#X obj 815 772 tgl 18 0 empty empty c1 4 10 0 10 -262130 -258113 -1
0 1;
#X obj 815 802 tgl 18 0 empty empty c1 4 10 0 10 -262130 -258113 -1
0 1;
#X obj 815 832 tgl 18 0 empty empty c1 4 10 0 10 -262130 -258113 -1
0 1;
#X obj 815 862 tgl 18 0 empty empty c1 4 10 0 10 -262130 -258113 -1
0 1;
#X obj 815 892 tgl 18 0 empty empty c1 4 10 0 10 -262130 -258113 -1
0 1;
#X obj 815 922 tgl 18 0 empty empty c1 4 10 0 10 -262130 -258113 -1
0 1;
#X obj 815 952 tgl 18 0 empty empty c1 4 10 0 10 -262130 -258113 -1
0 1;
#X obj 815 982 tgl 18 0 empty empty c1 4 10 0 10 -262130 -258113 -1
0 1;
#X obj 815 1012 tgl 18 0 empty empty c1 4 10 0 10 -262130 -258113 -1
0 1;
#X obj 815 1042 tgl 18 0 empty empty c1 4 10 0 10 -262130 -258113 -1
0 1;
#X obj 344 576 t a;
#X msg 71 791 0;
#X obj -127 835 pack 0 0 0;
#X text 42 811 VOICES OF POLY;
#X obj 53 109 r chn-ht-count_poly;
#X obj 71 727 list prepend set;
#X obj 71 747 list trim;
#X text 88 668 VOICES OF POLY;
#X obj 71 683 r chn-ft-count_poly;
#X obj 53 131 s2l;
#X obj 71 705 s2l;
#X obj -5 -29 tabread-two inst_fn;
#X floatatom -5 2 5 0 0 3 key_function - -;
#X obj -54 106 spigot;
#X obj -5 89 == 1;
#X obj -54 670 spigot;
#X obj -5 653 == 0;
#X text -9 669 FUNDAMENTAL;
#X text -12 107 HARMONIC;
#X obj -124 81 t a a;
#X obj -54 703 t b a;
#X obj 698 23 pitch-bend_tuner;
#X obj 250 29 poly 1 1;
#X obj 914 595 loadbang;
#X obj 914 617 delay 200;
#X text 1039 551 PITCH BEND RESPONSE TIMING;
#X text 852 550 PITCH BEND RANGE;
#X obj 963 722 i;
#X obj 1008 722 i;
#X obj 1039 668 t b b a;
#X obj 879 668 t b b a;
#X msg 1039 634 5;
#X msg 847 634 2;
#X obj 847 601 t b a;
#X obj 1039 601 t b a;
#X obj 847 571 r gui_pitchbend_range_input-ft;
#X obj 1039 570 r gui_pitchbend_timing_input-ft;
#X obj 847 1 r gui_pitchbend_range_input-ht;
#X obj 1039 0 r gui_pitchbend_timing_input-ht;
#X text 163 13 ON;
#X obj 132 14 hradio 15 1 0 2 empty empty empty 0 -8 0 10 -262144 -1
-1 0;
#X text 110 13 OFF;
#X text 306 -44 FT TONE CHANGE SIGNAL;
#X obj 132 -29 r gui_pitchbend_stealing-ht;
#X msg 985 335 1;
#X obj 985 364 s gui_pitchbend_stealing-init;
#X obj 66 584 hradio 15 1 0 2 empty empty empty 0 -8 0 10 -262144 -1
-1 0;
#X text 44 583 OFF;
#X obj 66 560 r gui_pitchbend_stealing-ht;
#X obj 992 229 s gui_pitchbend_timing_value-ht;
#X obj 946 250 s gui_pitchbend_range_value-ht;
#X obj 1009 799 s gui_pitchbend_timing_value-ft;
#X obj 963 821 s gui_pitchbend_range_value-ft;
#X msg 32 710 0;
#X text 25 725 init 0;
#X msg 12 136 0;
#X text 5 151 init 0;
#X obj 708 593 pitch-bend_tuner;
#X obj 698 203 pitch-bend_tuner;
#X obj 698 173 pitch-bend_tuner;
#X obj 698 53 pitch-bend_tuner;
#X obj 698 83 pitch-bend_tuner;
#X obj 698 143 pitch-bend_tuner;
#X obj 698 233 pitch-bend_tuner;
#X obj 698 263 pitch-bend_tuner;
#X obj 698 293 pitch-bend_tuner;
#X obj 698 323 pitch-bend_tuner;
#X obj 698 353 pitch-bend_tuner;
#X obj 698 383 pitch-bend_tuner;
#X obj 698 413 pitch-bend_tuner;
#X obj 698 443 pitch-bend_tuner;
#X obj 698 473 pitch-bend_tuner;
#X obj 708 773 pitch-bend_tuner;
#X obj 708 743 pitch-bend_tuner;
#X obj 708 623 pitch-bend_tuner;
#X obj 708 653 pitch-bend_tuner;
#X obj 708 683 pitch-bend_tuner;
#X obj 708 713 pitch-bend_tuner;
#X obj 708 803 pitch-bend_tuner;
#X obj 708 833 pitch-bend_tuner;
#X obj 708 863 pitch-bend_tuner;
#X obj 708 893 pitch-bend_tuner;
#X obj 708 923 pitch-bend_tuner;
#X obj 708 953 pitch-bend_tuner;
#X obj 708 983 pitch-bend_tuner;
#X obj 708 1013 pitch-bend_tuner;
#X obj 708 1043 pitch-bend_tuner;
#X obj 698 113 pitch-bend_tuner;
#X text 920 1024 Copyright 2013-Today by Walter Mantovani;
#X text 874 1050 Licensed under 'GNU Affero General Public License
v.3.0';
#X text 920 1037 armonici.it@gmail.com // www.armonici.it;
#X connect 0 0 28 0;
#X connect 0 1 24 1;
#X connect 0 2 24 2;
#X connect 1 0 28 0;
#X connect 1 1 24 1;
#X connect 1 2 24 2;
#X connect 2 0 28 0;
#X connect 2 1 24 1;
#X connect 2 2 24 2;
#X connect 3 0 28 0;
#X connect 3 1 24 1;
#X connect 3 2 24 2;
#X connect 4 0 28 0;
#X connect 4 1 24 1;
#X connect 4 2 24 2;
#X connect 5 0 28 0;
#X connect 5 1 24 1;
#X connect 5 2 24 2;
#X connect 6 0 28 0;
#X connect 6 1 24 1;
#X connect 6 2 24 2;
#X connect 7 0 28 0;
#X connect 7 1 24 1;
#X connect 7 2 24 2;
#X connect 8 0 28 0;
#X connect 8 1 24 1;
#X connect 8 2 24 2;
#X connect 9 0 28 0;
#X connect 9 1 24 1;
#X connect 9 2 24 2;
#X connect 10 0 28 0;
#X connect 10 1 24 1;
#X connect 10 2 24 2;
#X connect 11 0 28 0;
#X connect 11 1 24 1;
#X connect 11 2 24 2;
#X connect 12 0 28 0;
#X connect 12 1 24 1;
#X connect 12 2 24 2;
#X connect 13 0 28 0;
#X connect 13 1 24 1;
#X connect 13 2 24 2;
#X connect 14 0 28 0;
#X connect 14 1 24 1;
#X connect 14 2 24 2;
#X connect 15 0 116 0;
#X connect 16 0 20 2;
#X connect 16 0 99 2;
#X connect 17 0 18 0;
#X connect 18 0 19 0;
#X connect 19 0 20 0;
#X connect 20 0 22 0;
#X connect 21 0 19 0;
#X connect 21 1 20 1;
#X connect 22 0 119 0;
#X connect 22 1 0 0;
#X connect 22 2 1 0;
#X connect 22 3 2 0;
#X connect 22 4 3 0;
#X connect 22 5 4 0;
#X connect 22 6 5 0;
#X connect 22 7 6 0;
#X connect 22 8 7 0;
#X connect 22 9 8 0;
#X connect 22 10 9 0;
#X connect 22 11 10 0;
#X connect 22 12 11 0;
#X connect 22 13 12 0;
#X connect 22 14 13 0;
#X connect 22 15 14 0;
#X connect 23 0 118 0;
#X connect 23 1 157 0;
#X connect 23 2 158 0;
#X connect 23 3 184 0;
#X connect 23 4 159 0;
#X connect 23 5 156 0;
#X connect 23 6 155 0;
#X connect 23 7 160 0;
#X connect 23 8 161 0;
#X connect 23 9 162 0;
#X connect 23 10 163 0;
#X connect 23 11 164 0;
#X connect 23 12 165 0;
#X connect 23 13 166 0;
#X connect 23 14 167 0;
#X connect 23 15 168 0;
#X connect 24 0 23 0;
#X connect 28 0 24 0;
#X connect 28 1 24 3;
#X connect 29 0 30 0;
#X connect 30 0 39 0;
#X connect 30 0 38 0;
#X connect 30 0 141 0;
#X connect 30 0 152 0;
#X connect 30 0 150 0;
#X connect 31 0 118 1;
#X connect 31 0 155 1;
#X connect 31 0 156 1;
#X connect 31 0 157 1;
#X connect 31 0 158 1;
#X connect 31 0 159 1;
#X connect 31 0 160 1;
#X connect 31 0 161 1;
#X connect 31 0 162 1;
#X connect 31 0 163 1;
#X connect 31 0 164 1;
#X connect 31 0 165 1;
#X connect 31 0 166 1;
#X connect 31 0 167 1;
#X connect 31 0 168 1;
#X connect 31 0 184 1;
#X connect 34 0 31 0;
#X connect 34 0 147 0;
#X connect 35 0 31 1;
#X connect 35 0 146 0;
#X connect 36 0 34 0;
#X connect 36 1 35 0;
#X connect 36 2 35 1;
#X connect 36 2 146 0;
#X connect 37 0 34 0;
#X connect 37 1 35 0;
#X connect 37 2 34 1;
#X connect 37 2 147 0;
#X connect 38 0 36 0;
#X connect 39 0 37 0;
#X connect 40 0 39 0;
#X connect 40 1 39 0;
#X connect 41 0 38 0;
#X connect 41 1 38 0;
#X connect 42 0 97 0;
#X connect 42 0 118 2;
#X connect 42 0 155 2;
#X connect 42 0 156 2;
#X connect 42 0 157 2;
#X connect 42 0 158 2;
#X connect 42 0 159 2;
#X connect 42 0 160 2;
#X connect 42 0 161 2;
#X connect 42 0 162 2;
#X connect 42 0 163 2;
#X connect 42 0 164 2;
#X connect 42 0 165 2;
#X connect 42 0 166 2;
#X connect 42 0 167 2;
#X connect 42 0 168 2;
#X connect 42 0 184 2;
#X connect 59 0 78 0;
#X connect 59 1 77 1;
#X connect 59 2 77 2;
#X connect 60 0 78 0;
#X connect 60 1 77 1;
#X connect 60 2 77 2;
#X connect 61 0 78 0;
#X connect 61 1 77 1;
#X connect 61 2 77 2;
#X connect 62 0 78 0;
#X connect 62 1 77 1;
#X connect 62 2 77 2;
#X connect 63 0 78 0;
#X connect 63 1 77 1;
#X connect 63 2 77 2;
#X connect 64 0 78 0;
#X connect 64 1 77 1;
#X connect 64 2 77 2;
#X connect 65 0 78 0;
#X connect 65 1 77 1;
#X connect 65 2 77 2;
#X connect 66 0 78 0;
#X connect 66 1 77 1;
#X connect 66 2 77 2;
#X connect 67 0 78 0;
#X connect 67 1 77 1;
#X connect 67 2 77 2;
#X connect 68 0 78 0;
#X connect 68 1 77 1;
#X connect 68 2 77 2;
#X connect 69 0 78 0;
#X connect 69 1 77 1;
#X connect 69 2 77 2;
#X connect 70 0 78 0;
#X connect 70 1 77 1;
#X connect 70 2 77 2;
#X connect 71 0 78 0;
#X connect 71 1 77 1;
#X connect 71 2 77 2;
#X connect 72 0 78 0;
#X connect 72 1 77 1;
#X connect 72 2 77 2;
#X connect 73 0 78 0;
#X connect 73 1 77 1;
#X connect 73 2 77 2;
#X connect 74 0 78 0;
#X connect 74 1 77 1;
#X connect 74 2 77 2;
#X connect 75 0 59 0;
#X connect 75 1 60 0;
#X connect 75 2 61 0;
#X connect 75 3 62 0;
#X connect 75 4 63 0;
#X connect 75 5 64 0;
#X connect 75 6 65 0;
#X connect 75 7 66 0;
#X connect 75 8 67 0;
#X connect 75 9 68 0;
#X connect 75 10 69 0;
#X connect 75 11 70 0;
#X connect 75 12 71 0;
#X connect 75 13 72 0;
#X connect 75 14 73 0;
#X connect 75 15 74 0;
#X connect 76 0 154 0;
#X connect 76 1 171 0;
#X connect 76 2 172 0;
#X connect 76 3 173 0;
#X connect 76 4 174 0;
#X connect 76 5 170 0;
#X connect 76 6 169 0;
#X connect 76 7 175 0;
#X connect 76 8 176 0;
#X connect 76 9 177 0;
#X connect 76 10 178 0;
#X connect 76 11 179 0;
#X connect 76 12 180 0;
#X connect 76 13 181 0;
#X connect 76 14 182 0;
#X connect 76 15 183 0;
#X connect 77 0 76 0;
#X connect 78 0 77 0;
#X connect 78 1 77 3;
#X connect 79 0 154 1;
#X connect 79 0 169 1;
#X connect 79 0 170 1;
#X connect 79 0 171 1;
#X connect 79 0 172 1;
#X connect 79 0 173 1;
#X connect 79 0 174 1;
#X connect 79 0 175 1;
#X connect 79 0 176 1;
#X connect 79 0 177 1;
#X connect 79 0 178 1;
#X connect 79 0 179 1;
#X connect 79 0 180 1;
#X connect 79 0 181 1;
#X connect 79 0 182 1;
#X connect 79 0 183 1;
#X connect 97 0 154 2;
#X connect 97 0 169 2;
#X connect 97 0 170 2;
#X connect 97 0 171 2;
#X connect 97 0 172 2;
#X connect 97 0 173 2;
#X connect 97 0 174 2;
#X connect 97 0 175 2;
#X connect 97 0 176 2;
#X connect 97 0 177 2;
#X connect 97 0 178 2;
#X connect 97 0 179 2;
#X connect 97 0 180 2;
#X connect 97 0 181 2;
#X connect 97 0 182 2;
#X connect 97 0 183 2;
#X connect 98 0 99 0;
#X connect 99 0 75 0;
#X connect 101 0 106 0;
#X connect 102 0 103 0;
#X connect 103 0 98 0;
#X connect 105 0 107 0;
#X connect 106 0 17 0;
#X connect 107 0 102 0;
#X connect 108 0 109 0;
#X connect 109 0 111 0;
#X connect 109 0 113 0;
#X connect 110 0 21 0;
#X connect 111 0 110 1;
#X connect 112 0 117 0;
#X connect 113 0 112 1;
#X connect 116 0 112 0;
#X connect 116 0 110 0;
#X connect 116 1 108 0;
#X connect 117 0 98 0;
#X connect 117 1 99 1;
#X connect 118 0 43 0;
#X connect 119 0 28 0;
#X connect 119 1 24 1;
#X connect 119 2 24 2;
#X connect 120 0 121 0;
#X connect 121 0 129 0;
#X connect 121 0 128 0;
#X connect 124 0 79 0;
#X connect 124 0 149 0;
#X connect 125 0 79 1;
#X connect 125 0 148 0;
#X connect 126 0 124 0;
#X connect 126 1 125 0;
#X connect 126 2 125 1;
#X connect 126 2 148 0;
#X connect 127 0 124 0;
#X connect 127 1 125 0;
#X connect 127 2 124 1;
#X connect 127 2 149 0;
#X connect 128 0 126 0;
#X connect 129 0 127 0;
#X connect 130 0 129 0;
#X connect 130 1 129 0;
#X connect 131 0 128 0;
#X connect 131 1 128 0;
#X connect 132 0 130 0;
#X connect 133 0 131 0;
#X connect 134 0 40 0;
#X connect 135 0 41 0;
#X connect 137 0 119 1;
#X connect 137 0 0 1;
#X connect 137 0 1 1;
#X connect 137 0 2 1;
#X connect 137 0 3 1;
#X connect 137 0 4 1;
#X connect 137 0 5 1;
#X connect 137 0 6 1;
#X connect 137 0 7 1;
#X connect 137 0 8 1;
#X connect 137 0 9 1;
#X connect 137 0 10 1;
#X connect 137 0 11 1;
#X connect 137 0 12 1;
#X connect 137 0 13 1;
#X connect 137 0 14 1;
#X connect 140 0 137 0;
#X connect 141 0 142 0;
#X connect 143 0 59 1;
#X connect 143 0 60 1;
#X connect 143 0 61 1;
#X connect 143 0 62 1;
#X connect 143 0 63 1;
#X connect 143 0 64 1;
#X connect 143 0 65 1;
#X connect 143 0 66 1;
#X connect 143 0 67 1;
#X connect 143 0 68 1;
#X connect 143 0 69 1;
#X connect 143 0 70 1;
#X connect 143 0 71 1;
#X connect 143 0 72 1;
#X connect 143 0 73 1;
#X connect 143 0 74 1;
#X connect 145 0 143 0;
#X connect 150 0 102 0;
#X connect 152 0 17 0;
#X connect 154 0 81 0;
#X connect 155 0 49 0;
#X connect 156 0 48 0;
#X connect 157 0 44 0;
#X connect 158 0 45 0;
#X connect 159 0 47 0;
#X connect 160 0 50 0;
#X connect 161 0 51 0;
#X connect 162 0 52 0;
#X connect 163 0 53 0;
#X connect 164 0 54 0;
#X connect 165 0 55 0;
#X connect 166 0 56 0;
#X connect 167 0 57 0;
#X connect 168 0 58 0;
#X connect 169 0 87 0;
#X connect 170 0 86 0;
#X connect 171 0 82 0;
#X connect 172 0 83 0;
#X connect 173 0 84 0;
#X connect 174 0 85 0;
#X connect 175 0 88 0;
#X connect 176 0 89 0;
#X connect 177 0 90 0;
#X connect 178 0 91 0;
#X connect 179 0 92 0;
#X connect 180 0 93 0;
#X connect 181 0 94 0;
#X connect 182 0 95 0;
#X connect 183 0 96 0;
#X connect 184 0 46 0;
