#N canvas 171 106 494 419 10;
#X obj 41 128 i;
#X floatatom 14 271 10 0 0 3 PITCHBEND_AMOUNT - -;
#X obj 92 145 t a a;
#X floatatom 124 271 5 0 0 3 MIDI_NOTE - -;
#X obj 14 236 expr ($f1-$f2)*(8192/$f3);
#X obj 281 128 i;
#X obj 262 155 -;
#X obj 313 210 - 1;
#X obj 405 210 i;
#X obj 262 100 t a a a;
#X obj 405 183 + 0.5;
#X obj 262 183 moses 0.5;
#X text 348 182 offset;
#X obj 262 236 expr $f1 * (8192/$f2);
#X text 356 1 PITCH BEND RANGE;
#X floatatom 262 273 10 0 0 3 PITCHBEND_AMOUNT - -;
#X floatatom 405 273 5 0 0 3 MIDI_NOTE - -;
#X obj 153 19 inlet;
#X obj 14 44 spigot;
#X obj 262 44 spigot;
#X obj 14 100 t a a;
#X obj 385 18 inlet;
#X text 146 1 MIDICENT;
#X obj 136 336 outlet;
#X obj 235 336 outlet;
#X text 102 353 PITCH BEND AMOUNT;
#X text 228 355 MIDI NOTE;
#X text 74 60 TODO: ONLY subtract;
#X text 62 69 and add method selector;
#X text 217 387 armonici.it@gmail.com / www.armonici.it;
#X text 213 376 Copyright 2013-Today by Walter Mantovani;
#X text 193 399 Licensed under 'GPLv3' or 'CC BY-SA v3 unported';
#X text 94 80 multi-mode;
#X connect 0 0 2 0;
#X connect 1 0 23 0;
#X connect 2 0 4 1;
#X connect 2 1 3 0;
#X connect 3 0 24 0;
#X connect 4 0 1 0;
#X connect 5 0 6 1;
#X connect 6 0 11 0;
#X connect 7 0 13 0;
#X connect 8 0 16 0;
#X connect 9 0 6 0;
#X connect 9 1 5 0;
#X connect 9 2 10 0;
#X connect 10 0 8 0;
#X connect 11 0 13 0;
#X connect 11 1 7 0;
#X connect 13 0 15 0;
#X connect 15 0 23 0;
#X connect 16 0 24 0;
#X connect 17 0 9 0;
#X connect 18 0 20 0;
#X connect 19 0 9 0;
#X connect 20 0 4 0;
#X connect 20 1 0 0;
#X connect 21 0 13 1;
#X connect 21 0 4 2;
