#N canvas 539 87 693 613 10;
#X obj 45 61 tabread ht_channel-poly;
#X text 223 426 FUNDAMENTALS CHANNELS;
#X text 97 78 MIDI-OUT CHANNELS;
#X obj 45 84 moses 1;
#X obj 12 21 uzi 16;
#X obj 45 41 - 1;
#X obj 12 -19 r gui_pitchbend_range_send-ht;
#X obj 12 1 t b b;
#X msg 116 422 175;
#X obj 101 444 +;
#X text 115 402 MIDI-OUT CHANNELS;
#X msg 39 502 101;
#X msg 67 502 0;
#X msg 145 502 100;
#X msg 174 502 0;
#X obj 101 468 prepend set;
#X msg 11 502 177;
#X obj 74 401 t b a;
#X obj 182 444 t b b b b b b b b b b b b b b b b b b;
#X msg 116 502 177;
#X msg 222 502 177;
#X msg 384 502 0;
#X msg 328 502 177;
#X msg 433 502 177;
#X msg 568 502 100;
#X msg 539 502 177;
#X msg 251 502 6;
#X msg 280 502 2;
#X msg 356 502 38;
#X msg 462 502 101;
#X msg 491 502 127;
#X msg 597 502 127;
#X obj 449 468 prepend set;
#X obj 74 381 moses 1;
#X obj 41 321 uzi 16;
#X obj 74 341 - 1;
#X obj 41 301 t b b;
#X obj 41 281 r gui_pitchbend_range_send-ft;
#X obj 74 361 tabread ft_channel-poly;
#X obj 449 444 r gui_pitchbend_range_value-ft;
#X obj 300 540 midiout;
#X text 244 136 HARMONICS CHANNELS;
#X text 125 112 MIDI-OUT CHANNELS;
#X msg 49 212 101;
#X msg 77 212 0;
#X msg 155 212 100;
#X msg 184 212 0;
#X obj 111 178 prepend set;
#X msg 21 212 1;
#X obj 84 111 t b a;
#X obj 192 154 t b b b b b b b b b b b b b b b b b b;
#X msg 126 212 1;
#X msg 232 212 1;
#X msg 394 212 0;
#X msg 338 212 1;
#X msg 443 212 1;
#X msg 578 212 100;
#X msg 549 212 1;
#X msg 261 212 6;
#X msg 290 212 2;
#X msg 366 212 38;
#X msg 472 212 101;
#X msg 501 212 127;
#X msg 607 212 127;
#X obj 459 178 prepend set;
#X obj 459 154 r gui_pitchbend_range_value-ht;
#X obj 303 274 ctlout;
#X text 286 292 TESTING CTLOUT;
#X text 276 559 TESTING MIDIOUT;
#X text 357 -12 Copyright 2013-Today by Walter Mantovani;
#X text 311 14 Licensed under 'GNU Affero General Public License v.3.0'
;
#X text 357 1 armonici.it@gmail.com // www.armonici.it;
#X connect 0 0 3 0;
#X connect 3 1 49 0;
#X connect 4 2 5 0;
#X connect 5 0 0 0;
#X connect 6 0 7 0;
#X connect 7 0 4 0;
#X connect 8 0 9 1;
#X connect 9 0 15 0;
#X connect 11 0 40 0;
#X connect 12 0 40 0;
#X connect 13 0 40 0;
#X connect 14 0 40 0;
#X connect 15 0 16 0;
#X connect 15 0 19 0;
#X connect 15 0 22 0;
#X connect 15 0 23 0;
#X connect 15 0 25 0;
#X connect 15 0 20 0;
#X connect 16 0 40 0;
#X connect 17 0 18 0;
#X connect 17 1 9 0;
#X connect 18 0 31 0;
#X connect 18 1 24 0;
#X connect 18 2 25 0;
#X connect 18 3 30 0;
#X connect 18 4 29 0;
#X connect 18 5 23 0;
#X connect 18 6 21 0;
#X connect 18 7 28 0;
#X connect 18 8 22 0;
#X connect 18 9 27 0;
#X connect 18 10 26 0;
#X connect 18 11 20 0;
#X connect 18 12 14 0;
#X connect 18 13 13 0;
#X connect 18 14 19 0;
#X connect 18 15 12 0;
#X connect 18 16 11 0;
#X connect 18 17 16 0;
#X connect 19 0 40 0;
#X connect 20 0 40 0;
#X connect 21 0 40 0;
#X connect 22 0 40 0;
#X connect 23 0 40 0;
#X connect 24 0 40 0;
#X connect 25 0 40 0;
#X connect 26 0 40 0;
#X connect 27 0 40 0;
#X connect 28 0 40 0;
#X connect 29 0 40 0;
#X connect 30 0 40 0;
#X connect 31 0 40 0;
#X connect 32 0 27 0;
#X connect 33 1 17 0;
#X connect 34 2 35 0;
#X connect 35 0 38 0;
#X connect 36 0 34 0;
#X connect 36 1 8 0;
#X connect 37 0 36 0;
#X connect 38 0 33 0;
#X connect 39 0 32 0;
#X connect 43 0 66 1;
#X connect 44 0 66 0;
#X connect 45 0 66 1;
#X connect 46 0 66 0;
#X connect 47 0 48 0;
#X connect 47 0 51 0;
#X connect 47 0 54 0;
#X connect 47 0 55 0;
#X connect 47 0 57 0;
#X connect 47 0 52 0;
#X connect 48 0 66 2;
#X connect 49 0 50 0;
#X connect 49 1 47 0;
#X connect 50 0 63 0;
#X connect 50 1 56 0;
#X connect 50 2 57 0;
#X connect 50 3 62 0;
#X connect 50 4 61 0;
#X connect 50 5 55 0;
#X connect 50 6 53 0;
#X connect 50 7 60 0;
#X connect 50 8 54 0;
#X connect 50 9 59 0;
#X connect 50 10 58 0;
#X connect 50 11 52 0;
#X connect 50 12 46 0;
#X connect 50 13 45 0;
#X connect 50 14 51 0;
#X connect 50 15 44 0;
#X connect 50 16 43 0;
#X connect 50 17 48 0;
#X connect 51 0 66 2;
#X connect 52 0 66 2;
#X connect 53 0 66 0;
#X connect 54 0 66 2;
#X connect 55 0 66 2;
#X connect 56 0 66 1;
#X connect 57 0 66 2;
#X connect 58 0 66 1;
#X connect 59 0 66 0;
#X connect 60 0 66 1;
#X connect 61 0 66 1;
#X connect 62 0 66 0;
#X connect 63 0 66 0;
#X connect 64 0 59 0;
#X connect 65 0 64 0;
