#N canvas 609 316 289 321 10;
#X obj 51 23 r gui_pitchbend_gmonoff_send;
#X obj 51 59 t b a;
#X obj 150 76 sel 0;
#X obj 186 76 sel 1;
#X obj 51 90 t b b b b b b;
#X msg 143 162 2;
#X obj 164 128 prepend set;
#X msg 23 163 240;
#X msg 53 163 126;
#X msg 83 163 127;
#X msg 113 163 9;
#X msg 150 100 2;
#X msg 185 100 1;
#X obj 52 204 pack 0 0 0 0 0 0;
#X obj 149 275 print;
#X obj 52 231 unpack f f f f f f;
#X obj 78 275 midiout 1;
#X msg 173 162 247;
#X connect 0 0 1 0;
#X connect 1 0 4 0;
#X connect 1 1 2 0;
#X connect 1 1 3 0;
#X connect 2 0 11 0;
#X connect 3 0 12 0;
#X connect 4 0 17 0;
#X connect 4 1 5 0;
#X connect 4 2 10 0;
#X connect 4 3 9 0;
#X connect 4 4 8 0;
#X connect 4 5 7 0;
#X connect 5 0 13 1;
#X connect 6 0 5 0;
#X connect 7 0 13 5;
#X connect 8 0 13 4;
#X connect 9 0 13 3;
#X connect 10 0 13 2;
#X connect 11 0 6 0;
#X connect 12 0 6 0;
#X connect 13 0 15 0;
#X connect 15 0 14 0;
#X connect 15 0 16 0;
#X connect 15 1 14 0;
#X connect 15 1 16 0;
#X connect 15 2 14 0;
#X connect 15 2 16 0;
#X connect 15 3 14 0;
#X connect 15 3 16 0;
#X connect 15 4 14 0;
#X connect 15 4 16 0;
#X connect 15 5 14 0;
#X connect 15 5 16 0;
#X connect 17 0 13 0;
