#N canvas 235 223 308 324 10;
#X msg 126 132 175;
#X obj 111 154 +;
#X text 125 112 MIDI-OUT CHANNELS;
#X msg 77 212 0;
#X msg 184 212 0;
#X obj 111 178 prepend set;
#X msg 21 212 184;
#X obj 84 111 t b a;
#X msg 126 212 184;
#X obj 51 31 uzi 16;
#X obj 51 11 t b b;
#X obj 100 250 midiout;
#X obj 51 -9 r gui_pitchbend_mode4_send;
#X obj 192 154 t b b b b b b;
#X msg 49 212 124;
#X msg 155 212 126;
#X text 197 136 ALL CHANNELS;
#X connect 0 0 1 1;
#X connect 1 0 5 0;
#X connect 3 0 11 0;
#X connect 4 0 11 0;
#X connect 5 0 6 0;
#X connect 5 0 8 0;
#X connect 6 0 11 0;
#X connect 7 0 13 0;
#X connect 7 1 1 0;
#X connect 8 0 11 0;
#X connect 9 2 7 0;
#X connect 10 0 9 0;
#X connect 10 1 0 0;
#X connect 12 0 10 0;
#X connect 13 0 4 0;
#X connect 13 1 15 0;
#X connect 13 2 8 0;
#X connect 13 3 3 0;
#X connect 13 4 14 0;
#X connect 13 5 6 0;
#X connect 14 0 11 0;
#X connect 15 0 11 0;
