#N canvas 76 247 330 315 10;
#X obj 112 15 inlet;
#X obj 112 135 unpack f f;
#X obj 177 15 inlet;
#X obj 72 175 *;
#X obj 177 176 *;
#X obj 123 239 outlet;
#X obj 177 239 outlet;
#X floatatom 27 192 5 0 0 0 - - -;
#X floatatom 211 193 5 0 0 0 - - -;
#X obj 12 168 bng 15 250 50 0 empty empty empty 17 7 0 10 -262144 -1
-1;
#X obj 11 192 bng 15 250 50 0 empty empty empty 17 7 0 10 -262144 -1
-1;
#X obj 245 168 bng 15 250 50 0 empty empty empty 17 7 0 10 -262144
-1 -1;
#X obj 244 193 bng 15 250 50 0 empty empty empty 17 7 0 10 -262144
-1 -1;
#X floatatom 59 44 5 0 0 0 - - -;
#X floatatom 223 43 5 0 0 0 - - -;
#X floatatom 212 168 5 0 0 0 - - -;
#X floatatom 28 168 5 0 0 0 - - -;
#X obj 112 82 moses 0.1;
#X msg 112 108 0 1;
#X msg 149 108 1 0;
#X obj 72 215 moses 0.1;
#X text 168 0 frequency;
#X text 104 0 velocity;
#X connect 0 0 13 0;
#X connect 0 0 17 0;
#X connect 1 0 3 1;
#X connect 1 0 9 0;
#X connect 1 0 16 0;
#X connect 1 1 4 1;
#X connect 1 1 11 0;
#X connect 1 1 15 0;
#X connect 2 0 3 0;
#X connect 2 0 4 0;
#X connect 2 0 14 0;
#X connect 3 0 7 0;
#X connect 3 0 10 0;
#X connect 3 0 20 0;
#X connect 4 0 6 0;
#X connect 4 0 8 0;
#X connect 4 0 12 0;
#X connect 17 0 18 0;
#X connect 17 1 19 0;
#X connect 18 0 1 0;
#X connect 19 0 1 0;
#X connect 20 1 5 0;
