#N canvas 320 62 275 394 10;
#X obj 43 49 inlet;
#X obj 158 179 + 1;
#X obj 125 322 outlet;
#X obj 43 78 route set;
#X msg 43 189 set \$1;
#X obj 43 121 list;
#X obj 125 210 tabread \$1;
#X obj 158 233 tabread \$1;
#X obj 125 116 * 2;
#X obj 125 286 pack 0 0;
#X obj 125 145 t a a;
#X connect 0 0 3 0;
#X connect 1 0 7 0;
#X connect 3 0 5 0;
#X connect 3 1 8 0;
#X connect 4 0 6 0;
#X connect 4 0 7 0;
#X connect 5 0 4 0;
#X connect 6 0 9 0;
#X connect 7 0 9 1;
#X connect 8 0 10 0;
#X connect 9 0 2 0;
#X connect 10 0 6 0;
#X connect 10 1 1 0;
