#N canvas 618 22 339 451 10;
#X obj 43 49 inlet;
#X obj 151 177 + 1;
#X obj 185 183 + 2;
#X obj 118 382 outlet;
#X obj 43 78 route set;
#X msg 43 189 set \$1;
#X obj 43 121 list;
#X obj 118 206 tabread \$1;
#X obj 151 226 tabread \$1;
#X obj 185 246 tabread \$1;
#X obj 217 191 + 3;
#X obj 217 266 tabread \$1;
#X obj 118 345 pack 0 0 0 0;
#X obj 118 145 t a a a a;
#X obj 118 116 * 4;
#X connect 0 0 4 0;
#X connect 1 0 8 0;
#X connect 2 0 9 0;
#X connect 4 0 6 0;
#X connect 4 1 14 0;
#X connect 5 0 7 0;
#X connect 5 0 8 0;
#X connect 5 0 9 0;
#X connect 5 0 11 0;
#X connect 6 0 5 0;
#X connect 7 0 12 0;
#X connect 8 0 12 1;
#X connect 9 0 12 2;
#X connect 10 0 11 0;
#X connect 11 0 12 3;
#X connect 12 0 3 0;
#X connect 13 0 7 0;
#X connect 13 1 1 0;
#X connect 13 2 2 0;
#X connect 13 3 10 0;
#X connect 14 0 13 0;
