#N canvas 475 105 362 448 10;
#X obj 73 50 inlet;
#X obj 228 154 * 3;
#X obj 228 183 t a a a;
#X obj 250 206 + 1;
#X obj 291 207 + 2;
#X obj 133 119 unpack 0 0 0;
#X obj 228 54 inlet;
#X obj 73 80 route set;
#X msg 73 150 set \$1;
#X obj 73 123 list;
#X obj 133 401 tabwrite \$1;
#X obj 133 291 pack 0 0;
#X obj 165 323 pack 0 1;
#X obj 196 353 pack 0 2;
#X connect 0 0 7 0;
#X connect 1 0 2 0;
#X connect 2 0 11 1;
#X connect 2 1 3 0;
#X connect 2 2 4 0;
#X connect 3 0 12 1;
#X connect 4 0 13 1;
#X connect 5 0 11 0;
#X connect 5 1 12 0;
#X connect 5 2 13 0;
#X connect 6 0 1 0;
#X connect 7 0 9 0;
#X connect 7 1 5 0;
#X connect 8 0 10 0;
#X connect 9 0 8 0;
#X connect 11 0 10 0;
#X connect 12 0 10 0;
#X connect 13 0 10 0;
