#N canvas 500 255 339 465 10;
#X obj 73 50 inlet;
#X obj 255 229 + 1;
#X obj 228 54 inlet;
#X obj 73 80 route set;
#X msg 73 146 set \$1;
#X obj 73 119 list;
#X obj 133 401 tabwrite \$1;
#X obj 133 291 pack 0 0;
#X obj 190 324 pack 0 1;
#X obj 133 119 unpack 0 0;
#X obj 228 122 * 2;
#X obj 228 183 t a a;
#X connect 0 0 3 0;
#X connect 1 0 8 1;
#X connect 2 0 10 0;
#X connect 3 0 5 0;
#X connect 3 1 9 0;
#X connect 4 0 6 0;
#X connect 5 0 4 0;
#X connect 7 0 6 0;
#X connect 8 0 6 0;
#X connect 9 0 7 0;
#X connect 9 1 8 0;
#X connect 10 0 11 0;
#X connect 11 0 7 1;
#X connect 11 1 1 0;
