#N canvas 670 94 411 585 10;
#X obj 73 50 inlet;
#X obj 240 206 + 1;
#X obj 281 207 + 2;
#X obj 218 54 inlet;
#X obj 73 80 route set;
#X msg 73 150 set \$1;
#X obj 73 123 list;
#X obj 133 531 tabwrite \$1;
#X obj 123 291 pack 0 0;
#X obj 155 323 pack 0 1;
#X obj 186 355 pack 0 2;
#X obj 224 384 pack 0 3;
#X obj 324 207 + 3;
#X obj 218 180 t a a a a;
#X obj 218 154 * 4;
#X obj 124 120 unpack 0 0 0 0;
#X connect 0 0 4 0;
#X connect 1 0 9 1;
#X connect 2 0 10 1;
#X connect 3 0 14 0;
#X connect 4 0 6 0;
#X connect 4 1 15 0;
#X connect 5 0 7 0;
#X connect 6 0 5 0;
#X connect 8 0 7 0;
#X connect 9 0 7 0;
#X connect 10 0 7 0;
#X connect 11 0 7 0;
#X connect 12 0 11 1;
#X connect 13 0 8 1;
#X connect 13 1 1 0;
#X connect 13 2 2 0;
#X connect 13 3 12 0;
#X connect 14 0 13 0;
#X connect 15 0 8 0;
#X connect 15 1 9 0;
#X connect 15 2 10 0;
#X connect 15 3 11 0;
