#N canvas 662 187 630 532 10;
#X obj 169 -86 inlet;
#X obj 201 285 *~;
#X floatatom -46 -38 5 0 0 1 RELATIVE_FUNDAMENTAL_TONE - -;
#X floatatom 194 -24 5 0 0 0 - - -;
#X text 185 -10 velocity;
#X obj 227 329 outlet~;
#X obj 403 329 outlet;
#X obj 251 160 vline~;
#X text 45 186 zero velocity == noteoff;
#X floatatom 201 115 8 0 0 0 - - -;
#X text 205 129 frequency;
#X floatatom -46 42 5 0 0 1 array_index - -;
#X obj -46 15 + 32;
#X floatatom -125 -39 5 0 0 1 <check> - -;
#X obj -46 68 tabread-three ff_table;
#X obj -46 95 unpack f f f;
#X text 377 346 pressure monitor;
#X obj 317 -87 inlet;
#X obj 201 160 vline~;
#X obj 201 191 osc~;
#X floatatom 317 -59 5 0 0 0 - - -;
#X obj 251 191 phasor~;
#X obj 321 196 / 127;
#X obj 321 221 pack 0 50;
#X obj 321 249 line~;
#X floatatom 372 196 5 0 0 1 attack_(ms) - -;
#X obj 216 223 == 0;
#X obj 266 223 == 1;
#X obj 251 286 *~;
#X obj 201 252 *~;
#X obj 251 253 *~;
#X obj 169 -55 unpack f f;
#X obj -47 222 spigot;
#X obj -41 156 != 0;
#X floatatom -47 250 5 0 0 0 - - -;
#X obj 226 -24 t a a a a;
#X obj -41 184 t a a;
#X text -113 138 remove resent/bang at key release;
#X obj -46 -12 t a a;
#X obj -103 384 s gui_ft-data;
#X obj 64 339 outlet;
#X obj 37 302 t a a;
#X obj -5 384 s gui_ft-midicent;
#X text 222 346 audio out;
#X text 13 354 fundamental tone change;
#X text 51 364 data pack;
#X text 307 -104 waveform;
#X text 112 -103 relative note and velocity;
#X text -2 283 freq|rel-tone|vel|midicent;
#X obj 37 266 pack 0 0 0 0;
#X text 185 379 Copyright 2013-Today by Walter Mantovani;
#X text 139 405 Licensed under 'GNU Affero General Public License v.3.0'
;
#X text 185 392 armonici.it@gmail.com // www.armonici.it;
#X connect 0 0 31 0;
#X connect 1 0 5 0;
#X connect 2 0 38 0;
#X connect 7 0 21 0;
#X connect 9 0 18 0;
#X connect 9 0 7 0;
#X connect 9 0 32 0;
#X connect 11 0 14 0;
#X connect 12 0 11 0;
#X connect 14 0 15 0;
#X connect 15 0 13 0;
#X connect 15 1 9 0;
#X connect 15 2 49 3;
#X connect 17 0 20 0;
#X connect 18 0 19 0;
#X connect 19 0 29 0;
#X connect 20 0 26 0;
#X connect 20 0 27 0;
#X connect 21 0 30 0;
#X connect 22 0 23 0;
#X connect 23 0 24 0;
#X connect 24 0 1 1;
#X connect 24 0 28 1;
#X connect 25 0 23 1;
#X connect 26 0 29 1;
#X connect 27 0 30 1;
#X connect 28 0 5 0;
#X connect 29 0 1 0;
#X connect 30 0 28 0;
#X connect 31 0 2 0;
#X connect 31 1 35 0;
#X connect 32 0 34 0;
#X connect 33 0 36 0;
#X connect 34 0 49 0;
#X connect 35 0 3 0;
#X connect 35 1 33 0;
#X connect 35 2 22 0;
#X connect 35 3 49 2;
#X connect 36 0 6 0;
#X connect 36 1 32 1;
#X connect 38 0 12 0;
#X connect 38 1 49 1;
#X connect 41 0 39 0;
#X connect 41 1 40 0;
#X connect 49 0 41 0;
