#N canvas 780 474 424 307 10;
#X obj 157 99 uzi 128;
#X obj 196 125 - 1;
#X msg 196 210 127;
#X obj 94 102 +;
#X text 120 2 MIDI-OUT CHANNELS;
#X obj 94 126 prepend set;
#X obj 196 240 midiout;
#X msg 109 57 127;
#X obj 124 29 uzi 16;
#X obj 81 -20 bng 15 250 50 0 empty empty empty 17 7 0 10 -262144 -1
-1;
#X obj 82 1 t b b;
#X msg 154 210 143;
#X msg 228 210 64;
#X obj 247 175 prepend set;
#X obj 196 149 t b b b a;
#X obj 157 53 t b a;
#X text 57 52 note off;
#X text 33 62 base channel;
#X text 206 98 128 Notes per channel;
#X text 117 194 channel out;
#X text 196 194 key;
#X text 225 194 velocity;
#X connect 0 2 1 0;
#X connect 1 0 14 0;
#X connect 2 0 6 0;
#X connect 3 0 5 0;
#X connect 5 0 11 0;
#X connect 7 0 3 1;
#X connect 8 2 15 0;
#X connect 9 0 10 0;
#X connect 10 0 8 0;
#X connect 10 1 7 0;
#X connect 11 0 6 0;
#X connect 12 0 6 0;
#X connect 13 0 2 0;
#X connect 14 0 12 0;
#X connect 14 1 2 0;
#X connect 14 2 11 0;
#X connect 14 3 13 0;
#X connect 15 0 0 0;
#X connect 15 1 3 0;
