#N canvas 148 138 1139 642 10;
#X obj -371 -280 cnv 15 200 100 empty note_label 0 20 50 0 80 -233017
-66577 0;
#X floatatom -94 -417 5 0 0 3 velocity - -;
#X obj -110 -451 notein;
#X floatatom 26 -416 5 0 0 3 channel - -;
#X floatatom -140 -416 5 0 0 3 note - -;
#X obj -140 -255 list prepend label;
#X obj -140 -231 list trim;
#X obj -140 -207 send note_label;
#X obj -113 -330 list trim;
#X obj -113 -354 list prepend set;
#X obj -140 -381 t b a;
#X msg -140 -303 0;
#X obj -140 -279 l2s;
#X obj -360 -299 cnv 15 180 30 empty empty MIDI_IN_note 20 12 0 20
-1 -262144 0;
#X obj -368 -430 cnv 15 200 100 empty channel_label 0 20 50 0 80 -233017
-66577 0;
#X obj -357 -449 cnv 15 180 30 empty empty MIDI_CHANNEL 20 12 0 20
-1 -262144 0;
#X obj 26 -255 list prepend label;
#X obj 26 -231 list trim;
#X obj 53 -330 list trim;
#X obj 53 -354 list prepend set;
#X obj 26 -381 t b a;
#X msg 26 -303 0;
#X obj 26 -279 l2s;
#X obj 26 -207 send channel_label;
#X obj -345 60 hradio 30 1 0 2 empty empty empty 0 -8 0 10 -262144
-1 -1 0;
#X text -343 45 FROM;
#X text -310 45 TO;
#X obj -351 -136 cnv 15 300 30 empty empty FUNDAMENTAL_TONE_RANGE 20
12 0 20 -1 -262144 0;
#X obj -352 -96 tgl 30 0 empty empty empty 17 7 0 10 -262144 -13381
-1 0 1;
#X obj -320 -92 cnv 15 300 22 empty empty CATCH_THE_"ZERO"_NOTE 0 12
0 16 -262144 -1 0;
#X obj -319 -51 cnv 15 300 22 empty empty TYPE_THE_"ZERO"_NOTE 0 12
0 16 -262144 -1 0;
#X connect 2 0 4 0;
#X connect 2 1 1 0;
#X connect 2 2 3 0;
#X connect 3 0 20 0;
#X connect 4 0 10 0;
#X connect 5 0 6 0;
#X connect 6 0 7 0;
#X connect 8 0 11 0;
#X connect 9 0 8 0;
#X connect 10 0 11 0;
#X connect 10 1 9 0;
#X connect 11 0 12 0;
#X connect 12 0 5 0;
#X connect 16 0 17 0;
#X connect 17 0 23 0;
#X connect 18 0 21 0;
#X connect 19 0 18 0;
#X connect 20 0 21 0;
#X connect 20 1 19 0;
#X connect 21 0 22 0;
#X connect 22 0 16 0;
