#N canvas 224 272 882 408 10;
#X obj 7 -1179 midiin;
#X obj 7 -1145 midiparse;
#X obj 6 -1098 midiformat;
#X obj 6 -1067 midiout;
#X obj 471 -1017 tabread ft_channel-poly;
#X obj 263 -1017 tabread ht_channel-poly;
#X text 280 -1032 HARMONICS CHANNELS;
#X text 481 -1033 FUNDAMENTALS CHANNELS;
#X obj 324 -1098 uzi 32;
#X obj 357 -1068 moses 17;
#X obj 263 -1051 - 1;
#X obj 471 -1051 - 17;
#X obj 263 -990 sel 0;
#X obj 471 -990 sel 0;
#X floatatom 290 -964 5 0 0 0 - - -;
#X floatatom 498 -964 5 0 0 0 - - -;
#X obj 390 -1161 r gui_midi_pitchbend_main_on-off;
#X obj 637 -1144 spigot;
#X obj 324 -1144 spigot;
#X floatatom 390 -1139 5 0 0 0 - - -;
#X floatatom 693 -1139 5 0 0 0 - - -;
#X obj 667 -1023 r gui_sysex_chanout_value;
#X obj 667 -998 prepend set;
#X msg 637 -968 1;
#X obj 693 -1161 r gui_midi_sysex_main_on-off;
#X text 678 -1039 SYSEX NOTE-OUT CHANNEL;
#X obj 383 -1199 b;
#X obj 389 -825 ctlout;
#X obj 107 -1046 unpack;
#X obj 78 -1019 prepend set;
#X msg 348 -862 0;
#X obj 161 -1017 prepend set;
#X msg 391 -860 121;
#X obj 119 -1069 t b a;
#X obj 383 -908 t b b a;
#X text 526 -854 Copyright 2013-Today by Walter Mantovani;
#X text 480 -828 Licensed under 'GNU Affero General Public License
v.3.0';
#X text 526 -841 armonici.it@gmail.com // www.armonici.it;
#X connect 0 0 1 0;
#X connect 1 1 2 1;
#X connect 1 2 33 0;
#X connect 1 3 2 3;
#X connect 1 4 2 4;
#X connect 1 5 2 5;
#X connect 1 6 2 6;
#X connect 2 0 3 0;
#X connect 4 0 13 0;
#X connect 5 0 12 0;
#X connect 8 2 9 0;
#X connect 9 0 10 0;
#X connect 9 1 11 0;
#X connect 10 0 5 0;
#X connect 11 0 4 0;
#X connect 12 1 14 0;
#X connect 13 1 15 0;
#X connect 14 0 34 0;
#X connect 15 0 34 0;
#X connect 16 0 18 1;
#X connect 16 0 19 0;
#X connect 17 0 23 0;
#X connect 18 0 8 0;
#X connect 21 0 22 0;
#X connect 22 0 23 0;
#X connect 23 0 34 0;
#X connect 24 0 17 1;
#X connect 24 0 20 0;
#X connect 26 0 18 0;
#X connect 26 0 17 0;
#X connect 28 0 29 0;
#X connect 28 1 31 0;
#X connect 29 0 30 0;
#X connect 30 0 27 0;
#X connect 31 0 32 0;
#X connect 32 0 27 1;
#X connect 33 0 26 0;
#X connect 33 1 28 0;
#X connect 34 0 30 0;
#X connect 34 1 32 0;
#X connect 34 2 27 2;
