#N canvas 607 85 753 683 10;
#X obj 330 7 r gui_pitchbend_noteoff_send;
#X obj 545 153 tabread ft_channel-poly;
#X obj 256 153 tabread ht_channel-poly;
#X text 273 138 HARMONICS CHANNELS;
#X text 555 137 FUNDAMENTALS CHANNELS;
#X obj 358 72 uzi 32;
#X obj 391 102 moses 17;
#X obj 256 119 - 1;
#X obj 545 119 - 17;
#X obj 256 180 sel 0;
#X obj 545 180 sel 0;
#X floatatom 283 206 5 0 0 0 - - -;
#X floatatom 572 206 5 0 0 0 - - -;
#X obj 331 33 t b b;
#X obj 164 82 delay 20;
#X text 159 67 soft reset;
#X text 363 57 hard reset;
#X obj 439 349 noteout;
#X obj 216 252 uzi 128;
#X obj 255 277 - 1;
#X msg 274 332 0;
#X obj 255 301 t a b b;
#X msg 311 332 1;
#X obj 310 302 prepend set;
#X obj 505 252 uzi 128;
#X obj 544 277 - 1;
#X msg 563 332 0;
#X obj 544 301 t a b b;
#X obj 572 235 t b a;
#X msg 600 332;
#X obj 599 302 prepend set;
#X obj 421 308 ctlout;
#X msg 437 284 64;
#X msg 403 285 0;
#X obj 283 235 t b a a;
#X obj 396 251 t b b a;
#X obj 114 311 ctlout;
#X msg 96 288 0;
#X obj 89 254 t b b a;
#X msg 130 287 123;
#X text 380 234 HOLD PEDAL OFF;
#X text 74 236 ALL NOTE OFF;
#X obj 160 483 ctlout;
#X msg 142 460 0;
#X obj 135 426 t b b a;
#X msg 176 459 123;
#X text 111 408 PORTAMENTO TIME 0;
#X text 385 459 Copyright 2013-Today by Walter Mantovani;
#X text 339 485 Licensed under 'GNU Affero General Public License v.3.0'
;
#X text 385 472 armonici.it@gmail.com // www.armonici.it;
#X connect 0 0 13 0;
#X connect 1 0 10 0;
#X connect 2 0 9 0;
#X connect 5 2 6 0;
#X connect 6 0 7 0;
#X connect 6 1 8 0;
#X connect 7 0 2 0;
#X connect 8 0 1 0;
#X connect 9 1 11 0;
#X connect 10 1 12 0;
#X connect 11 0 34 0;
#X connect 12 0 28 0;
#X connect 13 0 14 0;
#X connect 13 1 5 0;
#X connect 18 2 19 0;
#X connect 19 0 21 0;
#X connect 20 0 17 1;
#X connect 21 0 17 0;
#X connect 21 1 20 0;
#X connect 21 2 22 0;
#X connect 22 0 17 2;
#X connect 23 0 22 0;
#X connect 24 2 25 0;
#X connect 25 0 27 0;
#X connect 26 0 17 1;
#X connect 27 0 17 0;
#X connect 27 1 26 0;
#X connect 27 2 29 0;
#X connect 28 0 24 0;
#X connect 28 1 30 0;
#X connect 29 0 17 2;
#X connect 30 0 29 0;
#X connect 32 0 31 1;
#X connect 33 0 31 0;
#X connect 34 0 18 0;
#X connect 34 1 23 0;
#X connect 34 2 35 0;
#X connect 35 0 33 0;
#X connect 35 1 32 0;
#X connect 35 2 31 2;
#X connect 37 0 36 0;
#X connect 38 0 37 0;
#X connect 38 1 39 0;
#X connect 38 2 36 2;
#X connect 39 0 36 1;
#X connect 43 0 42 0;
#X connect 44 0 43 0;
#X connect 44 1 45 0;
#X connect 44 2 42 2;
#X connect 45 0 42 1;
