#N canvas 0 22 450 300 10;
#X obj -214 -35 vsl 15 256 0 16383 0 0 empty empty empty 0 -9 0 10
-262144 -1 -1 0 1;
#X obj -214 -238 vsl 15 128 0 0.999 0 0 empty empty empty 0 -9 0 10
-262144 -1 -1 0 1;
#X floatatom -214 233 10 0 0 0 - - -;
#X floatatom -214 -95 5 0 0 0 - - -;
#X obj -214 -67 * 16383;
#X connect 0 0 2 0;
#X connect 1 0 3 0;
#X connect 3 0 4 0;
#X connect 4 0 0 0;
