#N canvas 318 107 450 300 10;
#X msg 169 125 10;
#X obj 169 102 loadbang;
#X obj 169 147 pow \$1;
#X obj 89 130 * 1;
#X obj 89 100 inlet;
#X obj 130 177 / 1;
#X msg 130 155 1;
#X obj 89 155 + 0.5;
#X obj 89 180 div;
#X obj 89 227 outlet;
#X obj 89 203 * 1;
#X floatatom 40 235 5 0 0 0 - - -;
#X msg 38 70 0.799999;
#X connect 0 0 2 0;
#X connect 1 0 0 0;
#X connect 2 0 3 1;
#X connect 2 0 5 1;
#X connect 2 0 6 0;
#X connect 3 0 7 0;
#X connect 4 0 3 0;
#X connect 5 0 10 1;
#X connect 6 0 5 0;
#X connect 7 0 8 0;
#X connect 8 0 10 0;
#X connect 10 0 9 0;
#X connect 10 0 11 0;
#X connect 12 0 3 0;
