#N canvas 131 82 301 356 10;
#X obj 86 263 tabread bulk-tuning-dump;
#X obj 87 131 f;
#X obj 109 131 + 1;
#X floatatom 87 155 5 0 0 0 - - -;
#X obj 185 175 == \$1;
#X obj 185 196 sel 1;
#X msg 240 151 408;
#X obj 212 126 loadbang;
#X msg 159 114 0;
#X msg 87 65 1;
#X msg 115 65 stop;
#X obj 185 217 delay 0.2;
#X msg 212 151 407;
#X obj 185 238 t b b;
#X obj 86 175 t a a;
#X obj 87 34 delay 0.4;
#X obj 87 92 tools/vmetro 0.32;
#X obj 87 10 inlet;
#X text 74 -8 START BANG;
#X obj 86 293 outlet;
#X text 34 312 MIDI RAW BYTES FOR MIDIOUT;
#X connect 0 0 19 0;
#X connect 1 0 2 0;
#X connect 1 0 3 0;
#X connect 2 0 1 1;
#X connect 3 0 14 0;
#X connect 4 0 5 0;
#X connect 5 0 11 0;
#X connect 6 0 4 1;
#X connect 7 0 12 0;
#X connect 8 0 1 1;
#X connect 9 0 16 0;
#X connect 10 0 16 0;
#X connect 11 0 13 0;
#X connect 12 0 4 1;
#X connect 13 0 8 0;
#X connect 13 1 10 0;
#X connect 14 0 0 0;
#X connect 14 1 4 0;
#X connect 15 0 9 0;
#X connect 16 0 1 0;
#X connect 17 0 15 0;
