#N canvas 492 154 885 463 10;
#X floatatom 104 75 10 0 0 3 midicent - -;
#X floatatom 121 238 5 0 0 0 - - -;
#X obj 121 215 i;
#X floatatom 104 318 10 0 0 3 PITCHBEND_AMOUNT - -;
#X obj 192 254 t a a;
#X floatatom 219 318 5 0 0 3 MIDI_NOTE - -;
#X obj 104 283 expr ($f1-$f2)*(8192/$f3);
#X obj 104 190 t a a b b;
#X obj 457 136 i;
#X floatatom 418 75 17 0 0 3 midicent - -;
#X obj 437 165 -;
#X floatatom 407 239 15 0 0 0 - - -;
#X floatatom 508 239 15 0 0 0 - - -;
#X obj 508 218 - 1;
#X obj 360 213 i;
#X obj 418 111 t a a a;
#X obj 360 190 + 0.5;
#X msg 291 16 12.5;
#X msg 510 16 14;
#X msg 96 16 12;
#X msg 377 16 12.5;
#X msg 427 16 12.5;
#X msg 184 16 12;
#X obj 437 190 moses 0.5;
#X text 397 189 offset;
#X obj 457 268 expr $f1 * (8192/$f2);
#X text 635 240 PITCH BEND RANGE;
#X msg 665 224 1;
#X floatatom 457 318 10 0 0 3 PITCHBEND_AMOUNT - -;
#X floatatom 360 318 5 0 0 3 MIDI_NOTE - -;
#X text 555 389 Copyright 2013-Today by Walter Mantovani;
#X text 509 415 Licensed under 'GNU Affero General Public License v.3.0'
;
#X text 555 402 armonici.it@gmail.com // www.armonici.it;
#X connect 0 0 7 0;
#X connect 1 0 4 0;
#X connect 2 0 1 0;
#X connect 4 0 6 1;
#X connect 4 1 5 0;
#X connect 6 0 3 0;
#X connect 7 0 6 0;
#X connect 7 1 2 0;
#X connect 8 0 10 1;
#X connect 9 0 15 0;
#X connect 10 0 23 0;
#X connect 11 0 25 0;
#X connect 12 0 25 0;
#X connect 13 0 12 0;
#X connect 14 0 29 0;
#X connect 15 0 16 0;
#X connect 15 1 10 0;
#X connect 15 2 8 0;
#X connect 16 0 14 0;
#X connect 17 0 9 0;
#X connect 17 0 0 0;
#X connect 18 0 9 0;
#X connect 18 0 0 0;
#X connect 19 0 9 0;
#X connect 19 0 0 0;
#X connect 20 0 9 0;
#X connect 20 0 0 0;
#X connect 21 0 9 0;
#X connect 21 0 0 0;
#X connect 22 0 9 0;
#X connect 22 0 0 0;
#X connect 23 0 11 0;
#X connect 23 1 13 0;
#X connect 25 0 28 0;
#X connect 27 0 25 1;
