#N canvas 266 68 787 418 10;
#X obj 10 10 cnv 15 300 54 empty empty empty 20 12 0 14 -262130 -66577
0;
#X obj 16 16 tgl 18 0 empty empty empty 17 7 0 10 -204786 -13381 -1
0 1;
#X obj 34 16 tgl 18 0 empty empty empty 17 7 0 10 -204786 -13381 -1
0 1;
#X obj 16 40 tgl 18 0 empty empty empty 17 7 0 10 -204800 -4160 -1
0 1;
#X obj 34 40 tgl 18 0 empty empty empty 17 7 0 10 -204800 -4160 -1
0 1;
#X obj 52 16 tgl 18 0 empty empty empty 17 7 0 10 -204786 -13381 -1
0 1;
#X obj 70 16 tgl 18 0 empty empty empty 17 7 0 10 -204786 -13381 -1
0 1;
#X obj 52 40 tgl 18 0 empty empty empty 17 7 0 10 -204800 -4160 -1
0 1;
#X obj 70 40 tgl 18 0 empty empty empty 17 7 0 10 -204800 -4160 -1
0 1;
#X obj 88 16 tgl 18 0 empty empty empty 17 7 0 10 -204786 -13381 -1
0 1;
#X obj 106 16 tgl 18 0 empty empty empty 17 7 0 10 -204786 -13381 -1
0 1;
#X obj 88 40 tgl 18 0 empty empty empty 17 7 0 10 -204800 -4160 -1
0 1;
#X obj 106 40 tgl 18 0 empty empty empty 17 7 0 10 -204800 -4160 -1
0 1;
#X obj 124 16 tgl 18 0 empty empty empty 17 7 0 10 -204786 -13381 -1
0 1;
#X obj 142 16 tgl 18 0 empty empty empty 17 7 0 10 -204786 -13381 -1
0 1;
#X obj 124 40 tgl 18 0 empty empty empty 17 7 0 10 -204800 -4160 -1
0 1;
#X obj 142 40 tgl 18 0 empty empty empty 17 7 0 10 -204800 -4160 -1
0 1;
#X obj 160 16 tgl 18 0 empty empty empty 17 7 0 10 -204786 -13381 -1
0 1;
#X obj 178 16 tgl 18 0 empty empty empty 17 7 0 10 -192176 -13381 -1
0 1;
#X obj 160 40 tgl 18 0 empty empty empty 17 7 0 10 -204800 -4160 -1
0 1;
#X obj 178 40 tgl 18 0 empty empty empty 17 7 0 10 -192252 -4160 -1
0 1;
#X obj 196 16 tgl 18 0 empty empty empty 17 7 0 10 -204786 -13381 -1
0 1;
#X obj 214 16 tgl 18 0 empty empty empty 17 7 0 10 -204786 -13381 -1
0 1;
#X obj 196 40 tgl 18 0 empty empty empty 17 7 0 10 -204800 -4160 -1
0 1;
#X obj 214 40 tgl 18 0 empty empty empty 17 7 0 10 -204800 -4160 -1
0 1;
#X obj 232 16 tgl 18 0 empty empty empty 17 7 0 10 -204786 -13381 -1
0 1;
#X obj 250 16 tgl 18 0 empty empty empty 17 7 0 10 -204786 -13381 -1
0 1;
#X obj 232 40 tgl 18 0 empty empty empty 17 7 0 10 -204800 -4160 -1
0 1;
#X obj 250 40 tgl 18 0 empty empty empty 17 7 0 10 -204800 -4160 -1
0 1;
#X obj 268 16 tgl 18 0 empty empty empty 17 7 0 10 -204786 -13381 -1
0 1;
#X obj 286 16 tgl 18 0 empty empty empty 17 7 0 10 -204786 -13381 -1
0 1;
#X obj 268 40 tgl 18 0 empty empty empty 17 7 0 10 -204800 -4160 -1
0 1;
#X obj 286 40 tgl 18 0 empty empty empty 17 7 0 10 -204800 -4160 -1
0 1;
#X text 22 16 1;
#X text 40 16 2;
#X text 94 16 5;
#X text 112 16 6;
#X text 130 16 7;
#X text 148 16 8;
#X text 166 16 9;
#X text 180 16 10;
#X text 199 16 11;
#X text 216 16 12;
#X text 234 16 13;
#X text 252 16 14;
#X text 270 16 15;
#X text 288 16 16;
#X text 22 40 1;
#X text 40 40 2;
#X text 58 40 3;
#X text 76 40 4;
#X text 94 40 5;
#X text 112 40 6;
#X text 130 40 7;
#X text 148 40 8;
#X text 166 40 9;
#X text 180 40 10;
#X text 199 40 11;
#X text 216 40 12;
#X text 234 40 13;
#X text 252 40 14;
#X text 270 40 15;
#X text 288 40 16;
#X obj 473 126 f;
#X floatatom 473 159 5 0 0 0 - - -;
#X msg 434 83 0;
#X obj 512 58 moses 1;
#X obj 497 126 +;
#X msg 512 81 -1;
#X msg 551 81 1;
#X msg 464 83 16;
#X obj 431 51 sel 1;
#X text 58 16 3;
#X text 76 16 4;
#X obj 473 34 t b b a b;
#X text 74 172 Copyright 2013-Today by Walter Mantovani;
#X text 28 198 Licensed under 'GNU Affero General Public License v.3.0'
;
#X text 74 185 armonici.it@gmail.com // www.armonici.it;
#X connect 1 0 74 0;
#X connect 2 0 74 0;
#X connect 5 0 74 0;
#X connect 6 0 74 0;
#X connect 9 0 74 0;
#X connect 10 0 74 0;
#X connect 13 0 74 0;
#X connect 14 0 74 0;
#X connect 17 0 74 0;
#X connect 18 0 74 0;
#X connect 21 0 74 0;
#X connect 22 0 74 0;
#X connect 25 0 74 0;
#X connect 26 0 74 0;
#X connect 29 0 74 0;
#X connect 30 0 74 0;
#X connect 63 0 64 0;
#X connect 63 0 67 0;
#X connect 65 0 63 1;
#X connect 65 0 67 0;
#X connect 66 0 68 0;
#X connect 66 1 69 0;
#X connect 67 0 63 1;
#X connect 68 0 67 1;
#X connect 69 0 67 1;
#X connect 70 0 63 1;
#X connect 70 0 67 0;
#X connect 71 0 65 0;
#X connect 71 1 70 0;
#X connect 74 0 63 0;
#X connect 74 1 67 0;
#X connect 74 2 66 0;
