#N canvas 250 97 945 362 10;
#X obj 233 100 float2ascii;
#X obj 236 85 hsl 128 15 0 127 0 0 empty empty empty -2 -6 0 8 -262144
-1 -1 0 1;
#X symbolatom 304 101 5 0 0 0 - - -;
#X floatatom 304 118 5 0 0 0 - - -;
#X obj 298 67 float2ascii;
#X obj 301 52 hsl 128 15 0 127 0 0 empty empty empty -2 -6 0 8 -262144
-1 -1 0 1;
#X symbolatom 369 68 5 0 0 0 - - -;
#X floatatom 369 85 5 0 0 0 - - -;
#X obj 362 34 float2ascii;
#X obj 365 19 hsl 128 15 0 127 0 0 empty empty empty -2 -6 0 8 -262144
-1 -1 0 1;
#X symbolatom 433 35 5 0 0 0 - - -;
#X floatatom 433 51 5 0 0 0 - - -;
#X obj 426 1 float2ascii;
#X obj 429 -14 hsl 128 15 0 127 0 0 empty empty empty -2 -6 0 8 -262144
-1 -1 0 1;
#X symbolatom 497 2 5 0 0 0 - - -;
#X floatatom 497 17 5 0 0 0 - - -;
#X msg 276 -46 116;
#X msg 391 -45 116;
#X msg 353 -46 115;
#X msg 320 -45 101;
#X msg 416 134 20;
#X msg 444 134 20;
#X msg 472 134 20;
#X msg 499 134 20;
#X msg 527 134 20;
#X msg 555 134 20;
#X msg 583 134 20;
#X msg 610 134 20;
#X msg 637 134 20;
#X msg 665 134 20;
#X msg 693 134 20;
#X msg 720 134 20;
#X floatatom 388 167 5 0 0 0 - - -;
#X floatatom 421 167 5 0 0 0 - - -;
#X floatatom 454 166 5 0 0 0 - - -;
#X floatatom 487 166 5 0 0 0 - - -;
#X floatatom 520 166 5 0 0 0 - - -;
#X floatatom 553 166 5 0 0 0 - - -;
#X floatatom 256 167 5 0 0 0 - - -;
#X floatatom 289 167 5 0 0 0 - - -;
#X floatatom 322 167 5 0 0 0 - - -;
#X floatatom 355 167 5 0 0 0 - - -;
#X floatatom 587 166 5 0 0 0 - - -;
#X floatatom 620 166 5 0 0 0 - - -;
#X floatatom 653 166 5 0 0 0 - - -;
#X floatatom 686 166 5 0 0 0 - - -;
#X floatatom 719 166 5 0 0 0 - - -;
#X floatatom 752 166 5 0 0 0 - - -;
#X text 519 -106 TUNING NAME;
#X obj 459 -85 t b b b b b b b b b b b b b b b b;
#X text 425 208 Copyright 2013-Today by Walter Mantovani;
#X text 379 234 Licensed under 'GNU Affero General Public License v.3.0'
;
#X text 425 221 armonici.it@gmail.com // www.armonici.it;
#X connect 0 0 2 0;
#X connect 1 0 0 0;
#X connect 1 0 3 0;
#X connect 3 0 38 0;
#X connect 4 0 6 0;
#X connect 5 0 4 0;
#X connect 5 0 7 0;
#X connect 7 0 39 0;
#X connect 8 0 10 0;
#X connect 9 0 8 0;
#X connect 9 0 11 0;
#X connect 11 0 40 0;
#X connect 12 0 14 0;
#X connect 13 0 12 0;
#X connect 13 0 15 0;
#X connect 15 0 41 0;
#X connect 16 0 1 0;
#X connect 17 0 13 0;
#X connect 18 0 9 0;
#X connect 19 0 5 0;
#X connect 20 0 32 0;
#X connect 21 0 33 0;
#X connect 22 0 34 0;
#X connect 23 0 35 0;
#X connect 24 0 36 0;
#X connect 25 0 37 0;
#X connect 26 0 42 0;
#X connect 27 0 43 0;
#X connect 28 0 44 0;
#X connect 29 0 45 0;
#X connect 30 0 46 0;
#X connect 31 0 47 0;
#X connect 49 0 31 0;
#X connect 49 1 30 0;
#X connect 49 2 29 0;
#X connect 49 3 28 0;
#X connect 49 4 27 0;
#X connect 49 5 26 0;
#X connect 49 6 25 0;
#X connect 49 7 24 0;
#X connect 49 8 23 0;
#X connect 49 9 22 0;
#X connect 49 10 21 0;
#X connect 49 11 20 0;
#X connect 49 12 17 0;
#X connect 49 13 18 0;
#X connect 49 14 19 0;
#X connect 49 15 16 0;
