#N canvas 148 112 402 512 10;
#X obj 30 480 outlet;
#X obj 30 32 vsl 8 19 0 127 0 0 \$0_ndss•¨£•nasofnaksdf \$0_fn8∆ˆøjadjfojsdflkadf
empty 0 -9 0 10 -1 -1 -1 0 1;
#X obj 30 79 demux;
#X obj 57 167 sel 1 0;
#X msg 84 227 1;
#X msg 140 282 2;
#X msg 160 258 0;
#X obj 208 244 t f f;
#X msg 30 443 bh_p;
#X obj 57 47 r \$1_chord_switch;
#X obj 108 107 r \$1_global_keystate;
#X obj 235 275 s \$1_chord_note_demux;
#X obj 208 299 s \$1_note_demux;
#X obj 57 139 1-0_cycle;
#X obj 57 198 t b b;
#X obj 121 198 t b b b;
#X obj 82 382 inlet;
#X obj 82 403 list prepend set;
#X obj 82 426 list trim;
#X text 118 382 RELATIVE NOTE NUMBER;
#X connect 1 0 2 0;
#X connect 2 0 8 0;
#X connect 2 1 13 0;
#X connect 3 0 14 0;
#X connect 3 1 15 0;
#X connect 4 0 7 0;
#X connect 5 0 12 0;
#X connect 6 0 11 0;
#X connect 7 0 12 0;
#X connect 7 1 11 0;
#X connect 8 0 0 0;
#X connect 9 0 2 1;
#X connect 13 0 3 0;
#X connect 14 0 8 0;
#X connect 14 1 4 0;
#X connect 15 0 8 0;
#X connect 15 1 5 0;
#X connect 15 2 6 0;
#X connect 16 0 17 0;
#X connect 17 0 18 0;
#X connect 18 0 8 0;
#X coords 0 -1 1 1 8 24 2 30 30;
