#N canvas 615 186 314 478 10;
#X obj 25 146 sel 1 0;
#X obj 59 256 t b f;
#X msg 59 211 0;
#X obj 25 120 spigot;
#X msg 71 120 0;
#X msg 136 119 1;
#X obj 25 211 f;
#X obj 41 321 +;
#X obj 57 178 clip 0 127;
#X obj 25 85 inlet;
#X obj 75 85 inlet;
#X obj 220 233 list;
#X obj 241 204 inlet;
#X obj 220 264 list-drip;
#X obj 136 25 inlet;
#X obj 41 358 pack f f;
#X obj 196 154 inlet;
#X obj 41 398 outlet;
#X obj 136 79 spigot;
#X msg 148 334 color 22 22 0;
#X obj 147 396 outlet;
#X msg 151 362 color 0 0 22;
#X obj 169 49 r \$1_chord_switch;
#X connect 0 0 6 0;
#X connect 0 0 21 0;
#X connect 0 1 2 0;
#X connect 0 1 4 0;
#X connect 0 1 19 0;
#X connect 1 0 11 0;
#X connect 1 1 15 1;
#X connect 2 0 1 0;
#X connect 3 0 0 0;
#X connect 4 0 3 1;
#X connect 5 0 3 1;
#X connect 6 0 1 0;
#X connect 7 0 15 0;
#X connect 8 0 6 1;
#X connect 9 0 3 0;
#X connect 10 0 8 0;
#X connect 11 0 13 0;
#X connect 12 0 11 1;
#X connect 13 0 7 0;
#X connect 14 0 18 0;
#X connect 15 0 17 0;
#X connect 16 0 7 1;
#X connect 18 0 5 0;
#X connect 19 0 20 0;
#X connect 21 0 20 0;
#X connect 22 0 18 1;
