#N canvas 675 166 358 431 10;
#X obj 59 355 outlet;
#X obj -9 677 f;
#X msg 72 696 0;
#X obj 72 649 + 1;
#X obj 72 673 sel 2;
#X obj -9 717 sel 0 1;
#X msg 3 305 color 0 0 0;
#X msg -9 649 bang;
#X obj 44 605 loadbang;
#X msg 44 627 1;
#X obj -41 270 loadbang;
#X obj 10 834 t b b;
#X msg 37 866 1;
#X msg 18 791 0;
#X msg 71 790 0;
#X obj 1 756 t b b b b;
#X obj 68 756 s \$1_reset_chord_list;
#X obj 71 814 s \$1_global_keystate;
#X obj 107 857 s \$1_note_demux;
#X obj 101 885 s \$1_chord_switch;
#X obj 140 62 MouseState;
#X obj 65 157 oneshot;
#X msg 140 140 clear;
#X obj 140 88 == 0;
#X obj 140 114 sel 1;
#X obj 65 62 b;
#X obj 65 24 inlet;
#X obj 65 186 tgl 15 0 empty empty empty 17 7 0 10 -262144 -1 -1 0
1;
#X obj 65 221 sel 0 1;
#X obj 198 355 outlet;
#X msg 98 305 color 22 22 22;
#X connect 1 0 3 0;
#X connect 1 0 5 0;
#X connect 2 0 1 1;
#X connect 3 0 4 0;
#X connect 4 0 2 0;
#X connect 4 1 1 1;
#X connect 5 0 15 0;
#X connect 5 1 11 0;
#X connect 6 0 0 0;
#X connect 7 0 1 0;
#X connect 8 0 9 0;
#X connect 9 0 1 1;
#X connect 10 0 6 0;
#X connect 11 1 12 0;
#X connect 12 0 18 0;
#X connect 12 0 19 0;
#X connect 13 0 18 0;
#X connect 13 0 19 0;
#X connect 14 0 17 0;
#X connect 15 1 13 0;
#X connect 15 2 14 0;
#X connect 15 3 16 0;
#X connect 20 0 23 0;
#X connect 21 0 27 0;
#X connect 22 0 21 0;
#X connect 23 0 24 0;
#X connect 24 0 22 0;
#X connect 25 0 21 0;
#X connect 26 0 25 0;
#X connect 27 0 28 0;
#X connect 27 0 29 0;
#X connect 28 0 6 0;
#X connect 28 1 30 0;
#X connect 30 0 0 0;
