#N canvas 0 22 450 300 10;
#X obj 63 116 * 255;
#X obj 342 123 * 255;
#X obj 202 120 * 255;
#X obj 63 149 expr ($f1 * -65536) + ($f2 * -256) + ($f3 * -1);
#X obj 63 177 - 1;
#X obj 63 40 inlet;
#X obj 63 231 outlet;
#X obj 63 68 unpack f f f;
#X obj 193 231 outlet;
#X msg 193 205 set color \$1 \$1 \$1;
#X msg 63 205 color \$1 \$1 \$1;
#X connect 0 0 3 0;
#X connect 1 0 3 2;
#X connect 2 0 3 1;
#X connect 3 0 4 0;
#X connect 4 0 10 0;
#X connect 4 0 9 0;
#X connect 5 0 7 0;
#X connect 7 0 0 0;
#X connect 7 1 2 0;
#X connect 7 2 1 0;
#X connect 9 0 8 0;
#X connect 10 0 6 0;
