#N canvas 227 236 1230 837 10;
#X obj -179 -269 inlet;
#X obj -179 -240 unpack f f;
#X floatatom -179 -131 5 0 0 0 absolute__note - -;
#X floatatom -122 -131 5 0 0 1 velocity - -;
#X obj -302 409 s \$1-k000;
#X obj -179 -69 pack 0 0 0;
#X obj -179 -101 t a a;
#X obj -238 409 s \$1-k002;
#X obj -175 409 s \$1-k004;
#X obj -109 409 s \$1-k005;
#X obj -46 409 s \$1-k007;
#X obj 17 409 s \$1-k009;
#X obj 81 409 s \$1-k011;
#X obj 144 409 s \$1-k012;
#X obj -88 -269 inlet;
#X obj -179 -160 -;
#X obj 180 227 list prepend;
#X obj -302 433 s \$1-k014;
#X obj -238 433 s \$1-k016;
#X obj -175 433 s \$1-k017;
#X obj -109 433 s \$1-k019;
#X obj -46 433 s \$1-k021;
#X obj 17 433 s \$1-k023;
#X obj 81 433 s \$1-k024;
#X obj 144 433 s \$1-k026;
#X obj -302 457 s \$1-k028;
#X obj -238 457 s \$1-k029;
#X obj -175 457 s \$1-k031;
#X obj -109 457 s \$1-k033;
#X obj -46 457 s \$1-k035;
#X obj 17 457 s \$1-k036;
#X obj 81 457 s \$1-k038;
#X obj 144 457 s \$1-k040;
#X obj -302 481 s \$1-k041;
#X obj -238 481 s \$1-k043;
#X obj -175 481 s \$1-k045;
#X obj -109 481 s \$1-k047;
#X obj -46 481 s \$1-k048;
#X obj 221 409 s \$1-k001;
#X obj 285 409 s \$1-k003;
#X obj 348 409 s \$1-k006;
#X obj 414 409 s \$1-k008;
#X obj 477 409 s \$1-k010;
#X obj 540 409 s \$1-k013;
#X obj 604 409 s \$1-k015;
#X obj 667 409 s \$1-k018;
#X obj 221 433 s \$1-k020;
#X obj 285 433 s \$1-k022;
#X obj 348 433 s \$1-k025;
#X obj 414 433 s \$1-k027;
#X obj 477 433 s \$1-k030;
#X obj 540 433 s \$1-k032;
#X obj 604 433 s \$1-k034;
#X obj 667 433 s \$1-k037;
#X obj 221 457 s \$1-k039;
#X obj 285 457 s \$1-k042;
#X obj 348 457 s \$1-k044;
#X obj 414 457 s \$1-k046;
#X msg -233 73 color 0 0 0;
#X msg -247 116 color 10 10 10;
#X obj 92 124 b;
#X obj 342 117 sel 0;
#X obj 369 139 b;
#X obj 5 27 unpack f f;
#X obj 427 25 unpack f f;
#X obj 180 189 pack s f f f;
#X obj -179 -38 route 0 2 4 5 7 9 11 12 14 16 17 19 21 23 24 26 28
29 31 33 35 36 38 40 41 43 45 47 48 50 52 53 55 57 59 60 62 64 65 67
69 71 72;
#X obj 189 -37 route 1 3 6 8 10 13 15 18 20 22 25 27 30 32 34 37 39
42 44 46 49 51 54 56 58 61 63 66 68 70;
#X obj 477 457 s \$1-k049;
#X obj 541 457 s \$1-k051;
#X obj 604 457 s \$1-k054;
#X obj 670 457 s \$1-k056;
#X obj 221 481 s \$1-k058;
#X obj 285 481 s \$1-k061;
#X obj 348 481 s \$1-k063;
#X obj 414 481 s \$1-k066;
#X obj 477 481 s \$1-k068;
#X obj 541 481 s \$1-k070;
#X obj 291 348 route 1 3 6 8 10 13 15 18 20 22 25 27 30 32 34 37 39
42 44 46 49 51 54 56 58 61 63 66 68 70;
#X obj -229 348 route 0 2 4 5 7 9 11 12 14 16 17 19 21 23 24 26 28
29 31 33 35 36 38 40 41 43 45 47 48 50 52 53 55 57 59 60 62 64 65 67
69 71 72;
#X obj 17 481 s \$1-k050;
#X obj 81 481 s \$1-k052;
#X obj 144 481 s \$1-k053;
#X obj -302 505 s \$1-k055;
#X obj -238 505 s \$1-k057;
#X obj -175 505 s \$1-k059;
#X obj -109 505 s \$1-k060;
#X obj -46 505 s \$1-k062;
#X obj 17 505 s \$1-k064;
#X obj 83 505 s \$1-k065;
#X obj 146 505 s \$1-k067;
#X obj -302 529 s \$1-k069;
#X obj -239 529 s \$1-k071;
#X obj -173 529 s \$1-k072;
#X obj 65 102 sel 0;
#X text 521 -129 in the puredata.hurleur.com forum;
#X text 490 -142 reimplementation of th piano GUI from 'katz';
#X text 484 -117 Copyright 2014 by 'katz' and 'Walter Mantovani';
#X text -46 -54 WHITE KEYS;
#X text 328 -54 BLACK KEYS;
#X text -75 333 WHITE KEYS;
#X text 446 333 BLACK KEYS;
#X floatatom -179 -213 5 0 0 0 - - -;
#X obj -179 -188 t a a;
#X floatatom 277 -223 5 0 0 1 index - -;
#X msg 187 -163 128 128;
#X obj 277 -202 ../../tabread-two ctrl_fn;
#X obj 277 -169 unpack f f;
#X obj 238 -140 sel 128;
#X obj 332 -140 sel 128;
#X msg 229 -113 0;
#X msg 273 -113 1;
#X msg 329 -113 0;
#X msg 373 -113 1;
#X obj -233 53 spigot;
#X obj -247 96 spigot;
#X msg -243 211 color 16 16 16;
#X obj -224 151 spigot;
#X obj -243 190 spigot;
#X msg -243 301 color 18 18 18;
#X obj -224 241 spigot;
#X obj -243 280 spigot;
#X obj 283 42 +;
#X obj 283 63 == 0;
#X obj 187 -185 prepend set;
#X msg -224 171 color 6 6 6;
#X msg -224 261 color 8 8 8;
#X obj -368 56 r \$1_colorset-wx_r;
#X obj -368 99 r \$1_colorset-wx_p;
#X obj -368 154 r \$1_colorset-wh_r;
#X obj -368 194 r \$1_colorset-wh_p;
#X obj -368 244 r \$1_colorset-wf_r;
#X obj -368 284 r \$1_colorset-wf_p;
#X msg 499 89 color 22 22 22;
#X msg 485 132 color 10 10 10;
#X obj 499 69 spigot;
#X obj 485 112 spigot;
#X msg 489 227 color 16 16 16;
#X obj 508 167 spigot;
#X obj 489 206 spigot;
#X msg 489 317 color 18 18 18;
#X obj 508 257 spigot;
#X obj 489 296 spigot;
#X msg 508 187 color -1.067e+07 -1.067e+07 -1.067e+07;
#X msg 508 277 color -1.01329e+07 -1.01329e+07 -1.01329e+07;
#X obj 627 66 r \$1_colorset-bx_r;
#X obj 627 109 r \$1_colorset-bx_p;
#X obj 637 164 r \$1_colorset-bh_r;
#X obj 627 204 r \$1_colorset-bh_p;
#X obj 627 254 r \$1_colorset-bf_r;
#X obj 627 294 r \$1_colorset-bf_p;
#X obj -368 75 prepend set;
#X obj -368 118 prepend set;
#X obj -368 173 prepend set;
#X obj -368 213 prepend set;
#X obj -368 263 prepend set;
#X obj -368 303 prepend set;
#X obj 549 66 prepend set;
#X obj 549 110 prepend set;
#X obj 559 164 prepend set;
#X obj 549 204 prepend set;
#X obj 553 254 prepend set;
#X obj 543 294 prepend set;
#X obj -333 -203 - 1;
#X obj -366 -255 r \$1_recolor_keyboard;
#X obj -366 -226 uzi 73;
#X obj -351 -150 pack 0 0 0;
#X obj -333 -179 t a a a;
#X obj -275 -162 +;
#X connect 0 0 1 0;
#X connect 1 0 102 0;
#X connect 1 1 3 0;
#X connect 2 0 6 0;
#X connect 3 0 5 1;
#X connect 5 0 66 0;
#X connect 6 0 5 0;
#X connect 6 1 5 2;
#X connect 14 0 15 1;
#X connect 14 0 168 1;
#X connect 15 0 2 0;
#X connect 16 0 79 0;
#X connect 58 0 65 0;
#X connect 59 0 65 0;
#X connect 60 0 115 0;
#X connect 60 0 118 0;
#X connect 60 0 121 0;
#X connect 61 0 135 0;
#X connect 61 0 138 0;
#X connect 61 0 141 0;
#X connect 61 1 62 0;
#X connect 62 0 136 0;
#X connect 62 0 139 0;
#X connect 62 0 142 0;
#X connect 63 0 94 0;
#X connect 63 1 16 1;
#X connect 64 0 61 0;
#X connect 64 1 16 1;
#X connect 65 0 16 0;
#X connect 66 0 63 0;
#X connect 66 1 63 0;
#X connect 66 2 63 0;
#X connect 66 3 63 0;
#X connect 66 4 63 0;
#X connect 66 5 63 0;
#X connect 66 6 63 0;
#X connect 66 7 63 0;
#X connect 66 8 63 0;
#X connect 66 9 63 0;
#X connect 66 10 63 0;
#X connect 66 11 63 0;
#X connect 66 12 63 0;
#X connect 66 13 63 0;
#X connect 66 14 63 0;
#X connect 66 15 63 0;
#X connect 66 16 63 0;
#X connect 66 17 63 0;
#X connect 66 18 63 0;
#X connect 66 19 63 0;
#X connect 66 20 63 0;
#X connect 66 21 63 0;
#X connect 66 22 63 0;
#X connect 66 23 63 0;
#X connect 66 24 63 0;
#X connect 66 25 63 0;
#X connect 66 26 63 0;
#X connect 66 27 63 0;
#X connect 66 28 63 0;
#X connect 66 29 63 0;
#X connect 66 30 63 0;
#X connect 66 31 63 0;
#X connect 66 32 63 0;
#X connect 66 33 63 0;
#X connect 66 34 63 0;
#X connect 66 35 63 0;
#X connect 66 36 63 0;
#X connect 66 37 63 0;
#X connect 66 38 63 0;
#X connect 66 39 63 0;
#X connect 66 40 63 0;
#X connect 66 41 63 0;
#X connect 66 42 63 0;
#X connect 66 43 67 0;
#X connect 67 0 64 0;
#X connect 67 1 64 0;
#X connect 67 2 64 0;
#X connect 67 3 64 0;
#X connect 67 4 64 0;
#X connect 67 5 64 0;
#X connect 67 6 64 0;
#X connect 67 7 64 0;
#X connect 67 8 64 0;
#X connect 67 9 64 0;
#X connect 67 10 64 0;
#X connect 67 11 64 0;
#X connect 67 12 64 0;
#X connect 67 13 64 0;
#X connect 67 14 64 0;
#X connect 67 15 64 0;
#X connect 67 16 64 0;
#X connect 67 17 64 0;
#X connect 67 18 64 0;
#X connect 67 19 64 0;
#X connect 67 20 64 0;
#X connect 67 21 64 0;
#X connect 67 22 64 0;
#X connect 67 23 64 0;
#X connect 67 24 64 0;
#X connect 67 25 64 0;
#X connect 67 26 64 0;
#X connect 67 27 64 0;
#X connect 67 28 64 0;
#X connect 67 29 64 0;
#X connect 67 30 64 0;
#X connect 78 0 38 0;
#X connect 78 1 39 0;
#X connect 78 2 40 0;
#X connect 78 3 41 0;
#X connect 78 4 42 0;
#X connect 78 5 43 0;
#X connect 78 6 44 0;
#X connect 78 7 45 0;
#X connect 78 8 46 0;
#X connect 78 9 47 0;
#X connect 78 10 48 0;
#X connect 78 11 49 0;
#X connect 78 12 50 0;
#X connect 78 13 51 0;
#X connect 78 14 52 0;
#X connect 78 15 53 0;
#X connect 78 16 54 0;
#X connect 78 17 55 0;
#X connect 78 18 56 0;
#X connect 78 19 57 0;
#X connect 78 20 68 0;
#X connect 78 21 69 0;
#X connect 78 22 70 0;
#X connect 78 23 71 0;
#X connect 78 24 72 0;
#X connect 78 25 73 0;
#X connect 78 26 74 0;
#X connect 78 27 75 0;
#X connect 78 28 76 0;
#X connect 78 29 77 0;
#X connect 79 0 4 0;
#X connect 79 1 7 0;
#X connect 79 2 8 0;
#X connect 79 3 9 0;
#X connect 79 4 10 0;
#X connect 79 5 11 0;
#X connect 79 6 12 0;
#X connect 79 7 13 0;
#X connect 79 8 17 0;
#X connect 79 9 18 0;
#X connect 79 10 19 0;
#X connect 79 11 20 0;
#X connect 79 12 21 0;
#X connect 79 13 22 0;
#X connect 79 14 23 0;
#X connect 79 15 24 0;
#X connect 79 16 25 0;
#X connect 79 17 26 0;
#X connect 79 18 27 0;
#X connect 79 19 28 0;
#X connect 79 20 29 0;
#X connect 79 21 30 0;
#X connect 79 22 31 0;
#X connect 79 23 32 0;
#X connect 79 24 33 0;
#X connect 79 25 34 0;
#X connect 79 26 35 0;
#X connect 79 27 36 0;
#X connect 79 28 37 0;
#X connect 79 29 80 0;
#X connect 79 30 81 0;
#X connect 79 31 82 0;
#X connect 79 32 83 0;
#X connect 79 33 84 0;
#X connect 79 34 85 0;
#X connect 79 35 86 0;
#X connect 79 36 87 0;
#X connect 79 37 88 0;
#X connect 79 38 89 0;
#X connect 79 39 90 0;
#X connect 79 40 91 0;
#X connect 79 41 92 0;
#X connect 79 42 93 0;
#X connect 79 43 78 0;
#X connect 94 0 114 0;
#X connect 94 0 117 0;
#X connect 94 0 120 0;
#X connect 94 1 60 0;
#X connect 102 0 103 0;
#X connect 103 0 15 0;
#X connect 103 1 104 0;
#X connect 104 0 106 0;
#X connect 106 0 107 0;
#X connect 106 0 124 0;
#X connect 107 0 108 0;
#X connect 107 1 109 0;
#X connect 108 0 110 0;
#X connect 108 1 111 0;
#X connect 109 0 112 0;
#X connect 109 1 113 0;
#X connect 110 0 120 1;
#X connect 110 0 121 1;
#X connect 110 0 122 0;
#X connect 110 0 141 1;
#X connect 110 0 142 1;
#X connect 111 0 120 1;
#X connect 111 0 121 1;
#X connect 111 0 122 0;
#X connect 111 0 141 1;
#X connect 111 0 142 1;
#X connect 112 0 117 1;
#X connect 112 0 118 1;
#X connect 112 0 122 1;
#X connect 112 0 138 1;
#X connect 112 0 139 1;
#X connect 113 0 117 1;
#X connect 113 0 118 1;
#X connect 113 0 122 1;
#X connect 113 0 138 1;
#X connect 113 0 139 1;
#X connect 114 0 58 0;
#X connect 115 0 59 0;
#X connect 116 0 65 0;
#X connect 117 0 125 0;
#X connect 118 0 116 0;
#X connect 119 0 65 0;
#X connect 120 0 126 0;
#X connect 121 0 119 0;
#X connect 122 0 123 0;
#X connect 123 0 114 1;
#X connect 123 0 115 1;
#X connect 123 0 135 1;
#X connect 123 0 136 1;
#X connect 124 0 105 0;
#X connect 125 0 65 0;
#X connect 126 0 65 0;
#X connect 127 0 151 0;
#X connect 128 0 152 0;
#X connect 129 0 153 0;
#X connect 130 0 154 0;
#X connect 131 0 155 0;
#X connect 132 0 156 0;
#X connect 133 0 65 0;
#X connect 134 0 65 0;
#X connect 135 0 133 0;
#X connect 136 0 134 0;
#X connect 137 0 65 0;
#X connect 138 0 143 0;
#X connect 139 0 137 0;
#X connect 140 0 65 0;
#X connect 141 0 144 0;
#X connect 142 0 140 0;
#X connect 143 0 65 0;
#X connect 144 0 65 0;
#X connect 145 0 157 0;
#X connect 146 0 158 0;
#X connect 147 0 159 0;
#X connect 148 0 160 0;
#X connect 149 0 161 0;
#X connect 150 0 162 0;
#X connect 151 0 58 0;
#X connect 152 0 59 0;
#X connect 153 0 125 0;
#X connect 154 0 116 0;
#X connect 155 0 126 0;
#X connect 156 0 119 0;
#X connect 157 0 133 0;
#X connect 158 0 134 0;
#X connect 159 0 143 0;
#X connect 160 0 137 0;
#X connect 161 0 144 0;
#X connect 162 0 140 0;
#X connect 163 0 167 0;
#X connect 164 0 165 0;
#X connect 165 2 163 0;
#X connect 166 0 66 0;
#X connect 167 0 166 0;
#X connect 167 1 166 2;
#X connect 167 2 168 0;
#X connect 168 0 104 0;
#X coords 0 837 1 836 85 60 0;
