#N canvas 278 92 798 659 10;
#X obj 17 25 s \$1_colorset-wx_r;
#X obj 17 112 s \$1_colorset-wx_p;
#X obj 17 200 s \$1_colorset-wh_r;
#X obj 17 289 s \$1_colorset-wh_p;
#X obj 17 375 s \$1_colorset-wf_r;
#X obj 17 462 s \$1_colorset-wf_p;
#X obj 417 15 s \$1_colorset-bx_r;
#X obj 417 102 s \$1_colorset-bx_p;
#X obj 417 190 s \$1_colorset-bh_r;
#X obj 417 278 s \$1_colorset-bh_p;
#X obj 417 366 s \$1_colorset-bf_r;
#X obj 417 454 s \$1_colorset-bf_p;
#X obj 17 -79 sel wx_r wx_p wh_r wh_p wf_r wf_p bx_r bx_p bh_r bh_p
bf_r bf_p;
#X obj 17 -35 colorpanel;
#X obj 17 51 colorpanel;
#X msg 56 91 color 10 10 10;
#X msg 44 5 color -5.39286e+06 -5.39286e+06 -5.39286e+06;
#X obj 17 140 colorpanel;
#X msg 56 180 color 6 6 6;
#X obj 18 229 colorpanel;
#X msg 57 269 color 16 16 16;
#X obj 17 315 colorpanel;
#X msg 56 355 color 8 8 8;
#X obj 17 402 colorpanel;
#X msg 56 442 color 18 18 18;
#X obj 417 -45 colorpanel;
#X msg 456 -5 color 22 22 22;
#X obj 417 42 colorpanel;
#X msg 456 82 color 10 10 10;
#X obj 417 130 colorpanel;
#X msg 456 170 color -1.067e+07 -1.067e+07 -1.067e+07;
#X obj 417 218 colorpanel;
#X msg 456 258 color 16 16 16;
#X obj 417 306 colorpanel;
#X msg 456 346 color -1.01329e+07 -1.01329e+07 -1.01329e+07;
#X obj 417 394 colorpanel;
#X msg 456 434 color 18 18 18;
#X obj 17 71 color-matcher;
#X obj 17 -15 color-matcher;
#X obj 17 160 color-matcher;
#X obj 18 249 color-matcher;
#X obj 17 335 color-matcher;
#X obj 17 422 color-matcher;
#X obj 417 -25 color-matcher;
#X obj 417 62 color-matcher;
#X obj 417 150 color-matcher;
#X obj 417 238 color-matcher;
#X obj 417 326 color-matcher;
#X obj 417 414 color-matcher;
#X msg 516 130 color -1.067e+07 -1.067e+07 -1.067e+07;
#X msg 516 306 color -1.01329e+07 -1.01329e+07 -1.01329e+07;
#X obj 560 -25 prepend set;
#X obj 511 -24 t a a;
#X obj 561 62 prepend set;
#X obj 512 63 t a a;
#X obj 559 149 prepend set;
#X obj 510 150 t a a;
#X obj 562 237 prepend set;
#X obj 513 238 t a a;
#X obj 560 325 prepend set;
#X obj 511 326 t a a;
#X obj 558 413 prepend set;
#X obj 509 414 t a a;
#X obj 157 -16 prepend set;
#X obj 108 -15 t a a;
#X obj 160 71 prepend set;
#X obj 111 72 t a a;
#X obj 160 160 prepend set;
#X obj 111 161 t a a;
#X obj 161 248 prepend set;
#X obj 112 249 t a a;
#X obj 159 335 prepend set;
#X obj 110 336 t a a;
#X obj 159 421 prepend set;
#X obj 110 422 t a a;
#X obj 311 -119 b;
#X obj 311 -153 loadbang;
#X msg 114 -35 color 0 0 0;
#X msg 516 -45 color 22 22 22;
#X msg 116 51 color 10 10 10;
#X msg 516 42 color 10 10 10;
#X msg 116 315 color 8 8 8;
#X msg 115 402 color 18 18 18;
#X msg 516 394 color 18 18 18;
#X msg 116 140 color 6 6 6;
#X msg 117 229 color 16 16 16;
#X msg 516 218 color 16 16 16;
#X obj 17 -117 r \$1-customize_keycolor;
#X obj 164 -161 r \$1-default_colorset;
#X obj 164 -110 s \$1_recolor_keyboard;
#X obj 164 -136 t b b;
#X connect 12 0 13 0;
#X connect 12 1 14 0;
#X connect 12 2 17 0;
#X connect 12 3 19 0;
#X connect 12 4 21 0;
#X connect 12 5 23 0;
#X connect 12 6 25 0;
#X connect 12 7 27 0;
#X connect 12 8 29 0;
#X connect 12 9 31 0;
#X connect 12 10 33 0;
#X connect 12 11 35 0;
#X connect 13 0 38 0;
#X connect 14 0 37 0;
#X connect 15 0 1 0;
#X connect 16 0 0 0;
#X connect 17 0 39 0;
#X connect 18 0 2 0;
#X connect 19 0 40 0;
#X connect 20 0 3 0;
#X connect 21 0 41 0;
#X connect 22 0 4 0;
#X connect 23 0 42 0;
#X connect 24 0 5 0;
#X connect 25 0 43 0;
#X connect 26 0 6 0;
#X connect 27 0 44 0;
#X connect 28 0 7 0;
#X connect 29 0 45 0;
#X connect 30 0 8 0;
#X connect 31 0 46 0;
#X connect 32 0 9 0;
#X connect 33 0 47 0;
#X connect 34 0 10 0;
#X connect 35 0 48 0;
#X connect 36 0 11 0;
#X connect 37 0 1 0;
#X connect 37 1 15 0;
#X connect 38 0 0 0;
#X connect 38 1 16 0;
#X connect 39 0 2 0;
#X connect 39 1 18 0;
#X connect 40 0 3 0;
#X connect 40 1 20 0;
#X connect 41 0 4 0;
#X connect 41 1 22 0;
#X connect 42 0 5 0;
#X connect 42 1 24 0;
#X connect 43 0 6 0;
#X connect 43 1 26 0;
#X connect 44 0 7 0;
#X connect 44 1 28 0;
#X connect 45 0 8 0;
#X connect 45 1 30 0;
#X connect 46 0 9 0;
#X connect 46 1 32 0;
#X connect 47 0 10 0;
#X connect 47 1 34 0;
#X connect 48 0 11 0;
#X connect 48 1 36 0;
#X connect 49 0 56 0;
#X connect 50 0 60 0;
#X connect 51 0 26 0;
#X connect 52 0 6 0;
#X connect 52 1 51 0;
#X connect 53 0 28 0;
#X connect 54 0 7 0;
#X connect 54 1 53 0;
#X connect 55 0 30 0;
#X connect 56 0 8 0;
#X connect 56 1 55 0;
#X connect 57 0 32 0;
#X connect 58 0 9 0;
#X connect 58 1 57 0;
#X connect 59 0 34 0;
#X connect 60 0 10 0;
#X connect 60 1 59 0;
#X connect 61 0 36 0;
#X connect 62 0 11 0;
#X connect 62 1 61 0;
#X connect 63 0 16 0;
#X connect 64 0 0 0;
#X connect 64 1 63 0;
#X connect 65 0 15 0;
#X connect 66 0 1 0;
#X connect 66 1 65 0;
#X connect 67 0 18 0;
#X connect 68 0 2 0;
#X connect 68 1 67 0;
#X connect 69 0 20 0;
#X connect 70 0 3 0;
#X connect 70 1 69 0;
#X connect 71 0 22 0;
#X connect 72 0 4 0;
#X connect 72 1 71 0;
#X connect 73 0 24 0;
#X connect 74 0 5 0;
#X connect 74 1 73 0;
#X connect 75 0 77 0;
#X connect 75 0 78 0;
#X connect 75 0 79 0;
#X connect 75 0 80 0;
#X connect 75 0 84 0;
#X connect 75 0 49 0;
#X connect 75 0 85 0;
#X connect 75 0 86 0;
#X connect 75 0 81 0;
#X connect 75 0 50 0;
#X connect 75 0 82 0;
#X connect 75 0 83 0;
#X connect 76 0 75 0;
#X connect 77 0 64 0;
#X connect 78 0 52 0;
#X connect 79 0 66 0;
#X connect 80 0 54 0;
#X connect 81 0 72 0;
#X connect 82 0 74 0;
#X connect 83 0 62 0;
#X connect 84 0 68 0;
#X connect 85 0 70 0;
#X connect 86 0 58 0;
#X connect 87 0 12 0;
#X connect 88 0 90 0;
#X connect 90 0 89 0;
#X connect 90 1 75 0;
