#N canvas 567 216 237 427 10;
#X text 1 27 RELEASED;
#X msg -1 -52 wx_r;
#X msg 31 -52 wx_p;
#X msg -1 -32 bx_r;
#X msg 31 -32 bx_p;
#X obj 75 -92 loadbang;
#X symbolatom 80 203 10 0 0 0 - - -;
#X obj 80 176 symbol;
#X msg 63 -52 wf_r;
#X msg 63 -32 bf_r;
#X msg 95 -52 wf_p;
#X msg 95 -32 bf_p;
#X msg 127 -52 wh_r;
#X msg 127 -32 bh_r;
#X msg 159 -52 wh_p;
#X msg 159 -32 bh_p;
#X text 7 72 PRESSED;
#X obj 115 60 b-key_colorset;
#X obj 115 15 b-key_colorset;
#X obj 65 15 b-key_colorset;
#X obj 65 60 b-key_colorset;
#X obj 90 15 b-key_colorset;
#X obj 90 60 b-key_colorset;
#X obj 57 15 w-key_colorset;
#X obj 107 60 w-key_colorset;
#X obj 107 15 w-key_colorset;
#X obj 82 15 w-key_colorset;
#X obj 82 60 w-key_colorset;
#X obj 57 60 w-key_colorset;
#X obj 83 16 cnv 10 10 38 empty \$1_colorset-wf_r empty 20 12 0 14
-228992 -228992 0;
#X obj 108 16 cnv 10 10 38 empty \$1_colorset-wh_r empty 20 12 0 14
-225271 -225271 0;
#X obj 83 61 cnv 10 10 38 empty \$1_colorset-wf_p empty 20 12 0 14
-62784 -62784 0;
#X obj 108 61 cnv 10 10 38 empty \$1_colorset-wh_p empty 20 12 0 14
-24198 -24198 0;
#X obj 58 16 cnv 10 10 38 empty \$1_colorset-wx_r empty 20 12 0 14
-262144 -262144 0;
#X obj 58 61 cnv 10 10 38 empty \$1_colorset-wx_p empty 20 12 0 14
-233017 -233017 0;
#X obj 90 15 cnv 8 8 24 empty empty empty 20 12 0 14 -1 -66577 0;
#X obj 91 16 cnv 6 6 22 empty \$1_colorset-bf_r empty 20 12 0 14 -158185
-158185 0;
#X obj 115 15 cnv 8 8 24 empty empty empty 20 12 0 14 -1 -66577 0;
#X obj 90 60 cnv 8 8 24 empty empty empty 20 12 0 14 -1 -66577 0;
#X obj 115 60 cnv 8 8 24 empty empty empty 20 12 0 14 -1 -66577 0;
#X obj 65 60 cnv 8 8 24 empty empty empty 20 12 0 14 -1 -66577 0;
#X obj 65 15 cnv 8 8 24 empty empty empty 20 12 0 14 -1 -66577 0;
#X obj 116 16 cnv 6 6 22 empty \$1_colorset-bh_r empty 20 12 0 14 -167148
-167148 0;
#X obj 91 61 cnv 6 6 22 empty \$1_colorset-bf_p empty 20 12 0 14 -62784
-62784 0;
#X obj 116 61 cnv 6 6 22 empty \$1_colorset-bh_p empty 20 12 0 14 -24198
-24198 0;
#X obj 66 61 cnv 6 6 22 empty \$1_colorset-bx_p empty 20 12 0 14 -233017
-233017 0;
#X obj 66 16 cnv 6 6 22 empty \$1_colorset-bx_r empty 20 12 0 14 -1
-1 0;
#X text 53 -1 none;
#X text 84 -1 FT;
#X text 109 -1 HT;
#X text 19 118 << reset colorset;
#X obj 35 230 s \$1-customize_keycolor;
#X obj 11 253 s \$1-default_colorset;
#X obj -1 275 s \$1_recolor_keyboard;
#X obj 6 123 bng 10 250 50 0 empty empty empty 17 7 0 10 -262144 -1
-1;
#X obj 6 109 bng 10 250 50 0 empty empty empty 17 7 0 10 -262144 -1
-1;
#X text 19 104 << refresh settings;
#X connect 1 0 23 0;
#X connect 2 0 28 0;
#X connect 3 0 19 0;
#X connect 4 0 20 0;
#X connect 5 0 1 0;
#X connect 5 0 2 0;
#X connect 5 0 8 0;
#X connect 5 0 10 0;
#X connect 5 0 12 0;
#X connect 5 0 14 0;
#X connect 5 0 3 0;
#X connect 5 0 4 0;
#X connect 5 0 9 0;
#X connect 5 0 11 0;
#X connect 5 0 13 0;
#X connect 5 0 15 0;
#X connect 6 0 51 0;
#X connect 7 0 6 0;
#X connect 8 0 26 0;
#X connect 9 0 21 0;
#X connect 10 0 27 0;
#X connect 11 0 22 0;
#X connect 12 0 25 0;
#X connect 13 0 18 0;
#X connect 14 0 24 0;
#X connect 15 0 17 0;
#X connect 17 0 7 0;
#X connect 18 0 7 0;
#X connect 19 0 7 0;
#X connect 20 0 7 0;
#X connect 21 0 7 0;
#X connect 22 0 7 0;
#X connect 23 0 7 0;
#X connect 24 0 7 0;
#X connect 25 0 7 0;
#X connect 26 0 7 0;
#X connect 27 0 7 0;
#X connect 28 0 7 0;
#X connect 54 0 52 0;
#X connect 55 0 53 0;
#X coords 0 -1 1 1 140 140 2 0 0;
