#N canvas 724 51 267 735 10;
#X obj 17 8 inlet;
#X obj 22 625 outlet;
#X obj 87 182 list;
#X obj 108 49 inlet;
#X obj 87 235 list length;
#X obj 87 289 until;
#X obj 41 415 ==;
#X obj 44 141 t b f;
#X obj 87 314 f;
#X obj 116 314 - 1;
#X obj 87 258 t f f;
#X obj 127 289 - 1;
#X obj 41 385 list-idx;
#X obj 41 358 list;
#X obj 80 346 t b f;
#X obj 41 441 sel 1;
#X obj 44 112 f;
#X obj 37 522 list-delete 0 1;
#X obj 37 495 list;
#X obj 100 384 t f f;
#X obj 81 495 f;
#X obj 41 465 t b b b;
#X obj 17 75 t b f;
#X obj 37 547 t b l l;
#X obj 22 593 list;
#X obj 87 208 t l l l l;
#X connect 0 0 22 0;
#X connect 2 0 25 0;
#X connect 3 0 2 1;
#X connect 4 0 10 0;
#X connect 5 0 8 0;
#X connect 6 0 15 0;
#X connect 7 0 2 0;
#X connect 7 1 6 1;
#X connect 8 0 9 0;
#X connect 8 0 14 0;
#X connect 9 0 8 1;
#X connect 10 0 5 0;
#X connect 10 1 11 0;
#X connect 11 0 8 1;
#X connect 12 0 6 0;
#X connect 13 0 12 0;
#X connect 14 0 13 0;
#X connect 14 1 19 0;
#X connect 15 0 21 0;
#X connect 16 0 7 0;
#X connect 17 0 23 0;
#X connect 18 0 17 0;
#X connect 19 0 12 1;
#X connect 19 1 20 1;
#X connect 20 0 17 1;
#X connect 21 0 18 0;
#X connect 21 1 20 0;
#X connect 21 2 5 1;
#X connect 22 0 24 0;
#X connect 22 1 16 0;
#X connect 23 0 16 0;
#X connect 23 1 2 1;
#X connect 23 2 24 1;
#X connect 24 0 1 0;
#X connect 24 0 2 1;
#X connect 25 0 4 0;
#X connect 25 1 13 1;
#X connect 25 2 18 1;
#X connect 25 3 24 1;
