#N canvas 477 65 301 625 10;
#X obj 29 544 outlet;
#X obj 47 15 inlet;
#X obj 66 132 list length;
#X obj 65 341 list-idx;
#X obj 65 215 until;
#X msg 105 215 0;
#X obj 65 245 f;
#X obj 99 246 + 1;
#X obj 65 307 list;
#N canvas 0 22 780 506 smallest_&_id 0;
#X obj 124 201 inlet;
#X obj 124 306 sel 1;
#X obj 124 248 t f f;
#X obj 124 365 f;
#X obj 124 390 t f f;
#X obj 338 199 inlet;
#X obj 124 431 outlet;
#X obj 124 278 <;
#X msg 338 239 60000;
#X text 387 238 this is a large midi number \, what would the equivalent
frequency be?;
#X obj 216 202 inlet;
#X obj 202 336 f;
#X obj 124 334 t b b;
#X obj 202 431 outlet;
#X connect 0 0 2 0;
#X connect 1 0 12 0;
#X connect 2 0 7 0;
#X connect 2 1 3 1;
#X connect 3 0 4 0;
#X connect 4 0 6 0;
#X connect 4 1 7 1;
#X connect 5 0 8 0;
#X connect 7 0 1 0;
#X connect 8 0 7 1;
#X connect 10 0 11 1;
#X connect 11 0 13 0;
#X connect 12 0 3 0;
#X connect 12 1 11 0;
#X restore 65 398 pd smallest_&_id;
#X obj 65 276 t b f f;
#X obj 172 248 list-delete 0 1;
#X obj 162 214 list;
#X obj 181 429 t b f;
#X obj 66 157 deny 0;
#X obj 143 430 f;
#X obj 50 430 f;
#X obj 66 183 t b f b;
#X obj 74 367 t b b;
#X obj 50 467 list prepend;
#X obj 136 467 list;
#X obj 29 504 list;
#X obj 66 96 t l l b l;
#X obj 47 58 t b l b;
#X connect 1 0 23 0;
#X connect 2 0 14 0;
#X connect 3 0 9 0;
#X connect 4 0 6 0;
#X connect 5 0 6 1;
#X connect 6 0 7 0;
#X connect 6 0 10 0;
#X connect 7 0 6 1;
#X connect 8 0 3 0;
#X connect 9 0 16 1;
#X connect 9 1 15 1;
#X connect 10 0 8 0;
#X connect 10 1 3 1;
#X connect 10 2 9 1;
#X connect 11 0 22 0;
#X connect 12 0 11 0;
#X connect 13 0 12 0;
#X connect 13 1 11 1;
#X connect 14 0 17 0;
#X connect 15 0 13 0;
#X connect 16 0 19 0;
#X connect 17 0 18 0;
#X connect 17 1 4 0;
#X connect 17 2 5 0;
#X connect 18 0 15 0;
#X connect 18 1 16 0;
#X connect 19 0 20 0;
#X connect 19 0 21 1;
#X connect 20 0 19 1;
#X connect 21 0 0 0;
#X connect 22 0 2 0;
#X connect 22 1 8 1;
#X connect 22 2 9 2;
#X connect 22 3 12 1;
#X connect 23 0 21 0;
#X connect 23 1 22 0;
#X connect 23 2 19 1;
