#N canvas 116 86 1126 719 10;
#X obj 53 284 MouseState;
#X obj 91 538 f;
#X obj 53 396 sel 1 0;
#X obj 91 514 t b f;
#X msg 91 486 0;
#X obj 53 368 spigot;
#X msg 90 332 0;
#X msg 123 351 1;
#X obj 91 672 outlet;
#X obj 53 486 f;
#X obj 623 228 inlet;
#X obj -135 198 loadbang;
#X msg -135 219 127;
#X obj 91 562 +;
#X obj 164 676 outlet;
#X obj 68 453 clip 0 127;
#X obj 164 650 unpack f;
#X obj 50 102 vsl 9 25 0 127 0 0 \$0_ndss•¨£•nasofnaksdf \$0_fn8∆ˆøjadjfojsdflkadf
empty 0 -9 0 10 -262144 -1 -1 2400 1;
#X obj 489 326 f;
#X obj 549 343 +;
#X msg 650 326 0;
#X obj 623 291 t f b;
#X msg 505 257 12;
#X msg 470 257 -12;
#X obj 489 292 t b f;
#X msg 549 444 label \$1;
#X obj 549 410 l2s;
#X obj 549 371 clip 0 96;
#X obj 549 228 loadbang;
#X obj 708 521 list prepend;
#X obj 681 468 demux;
#X obj 273 311 t b f f;
#X obj 225 311 t b f;
#X text 710 396 0 if key off/remove from list;
#X text 710 379 1 if key on/add to list;
#X floatatom 719 443 5 0 0 0 - - -;
#X obj -136 265 loadbang;
#X msg -136 290 0;
#X msg 797 506 list;
#X obj -144 486 spigot;
#X obj -111 465 != 1;
#X obj 623 259 route basenote;
#X msg 549 277 36;
#X text 668 160 in the puredata.hurleur.com forum;
#X obj 2 671 s gui-piano;
#X obj 225 283 demux 0 1 2;
#X obj 225 260 f;
#X floatatom 173 277 5 0 0 0 - - -;
#X obj -66 644 prepend set;
#X msg -66 670 67 0;
#X obj 708 568 smallest_to_largest;
#X obj 681 618 remove;
#X obj 827 568 cnv 17 17 17 empty empty empty 20 12 0 14 -260097 -66577
0;
#X obj -68 411 cnv 17 17 17 empty empty empty 20 12 0 14 -260097 -66577
0;
#X obj 512 655 cnv 17 17 17 empty empty empty 20 12 0 14 -260097 -66577
0;
#X obj 722 618 cnv 17 17 17 empty empty empty 20 12 0 14 -260097 -66577
0;
#X obj 429 655 chord_trigger;
#X obj -139 411 chordswitch;
#X obj -130 315 s \$1_global_keystate;
#X obj -135 335 s \$1_chord_switch;
#X obj -146 357 s \$1_note_demux;
#X obj 708 419 r \$1_chord_note_demux;
#X obj 777 480 r \$1_reset_chord_list;
#X obj -144 511 s \$1_reset_keycolor;
#X obj -111 442 r \$1_chord_switch;
#X obj 288 239 r \$1_note_demux;
#X obj 99 100 b-key;
#X obj 123 100 b-key;
#X obj 135 100 b-key;
#X obj 147 100 b-key;
#X obj 171 100 b-key;
#X obj 183 100 b-key;
#X obj 207 100 b-key;
#X obj 219 100 b-key;
#X obj 231 100 b-key;
#X obj 255 100 b-key;
#X obj 267 100 b-key;
#X obj 291 100 b-key;
#X obj 303 100 b-key;
#X obj 315 100 b-key;
#X obj 339 100 b-key;
#X obj 351 100 b-key;
#X obj 375 100 b-key;
#X obj 387 100 b-key;
#X obj 399 100 b-key;
#X obj 103 100 w-key;
#X obj 115 100 w-key;
#X obj 127 100 w-key;
#X obj 139 100 w-key;
#X obj 151 100 w-key;
#X obj 163 100 w-key;
#X obj 175 100 w-key;
#X obj 187 100 w-key;
#X obj 199 100 w-key;
#X obj 211 100 w-key;
#X obj 223 100 w-key;
#X obj 235 100 w-key;
#X obj 247 100 w-key;
#X obj 259 100 w-key;
#X obj 271 100 w-key;
#X obj 283 100 w-key;
#X obj 295 100 w-key;
#X obj 307 100 w-key;
#X obj 319 100 w-key;
#X obj 331 100 w-key;
#X obj 343 100 w-key;
#X obj 355 100 w-key;
#X obj 367 100 w-key;
#X obj 379 100 w-key;
#X obj 391 100 w-key;
#X obj 403 100 w-key;
#X msg -141 46 0;
#X msg -126 36 1;
#X msg -111 46 2;
#X msg -96 36 3;
#X msg -81 46 4;
#X msg -66 46 5;
#X msg -51 36 6;
#X msg -36 46 7;
#X msg -21 36 8;
#X msg -6 46 9;
#X msg 9 36 10;
#X msg 24 46 11;
#X msg 39 46 12;
#X msg 54 36 13;
#X msg 69 46 14;
#X msg 84 36 15;
#X msg 99 46 16;
#X msg 114 46 17;
#X msg 129 36 18;
#X msg 144 46 19;
#X msg 158 36 20;
#X msg 174 46 21;
#X msg 189 36 22;
#X msg 204 46 23;
#X msg 219 46 24;
#X msg 234 36 25;
#X msg 249 46 26;
#X msg 264 36 27;
#X msg 279 46 28;
#X msg 294 46 29;
#X msg 309 36 30;
#X msg 324 46 31;
#X msg 339 36 32;
#X msg 353 46 33;
#X msg 369 36 34;
#X msg 384 46 35;
#X msg 399 46 36;
#X msg 414 36 37;
#X msg 429 46 38;
#X msg 444 36 39;
#X msg 459 46 40;
#X msg 474 46 41;
#X msg 489 36 42;
#X msg 504 46 43;
#X msg 519 36 44;
#X msg 533 46 45;
#X msg 549 36 46;
#X msg 564 46 47;
#X msg 579 46 48;
#X obj 297 644 colorer;
#X obj 212 -5 loadbang;
#X obj 4 145 cnv 15 600 60 empty empty empty 20 12 0 14 -233017 -66577
0;
#X obj 423 100 b-key;
#X obj 435 100 b-key;
#X obj 459 100 b-key;
#X obj 471 100 b-key;
#X obj 483 100 b-key;
#X obj 507 100 b-key;
#X obj 519 100 b-key;
#X obj 543 100 b-key;
#X obj 555 100 b-key;
#X obj 567 100 b-key;
#X obj 415 100 w-key;
#X obj 427 100 w-key;
#X obj 439 100 w-key;
#X obj 451 100 w-key;
#X obj 463 100 w-key;
#X obj 475 100 w-key;
#X obj 487 100 w-key;
#X obj 499 100 w-key;
#X obj 511 100 w-key;
#X obj 523 100 w-key;
#X obj 535 100 w-key;
#X obj 547 100 w-key;
#X obj 559 100 w-key;
#X obj 571 100 w-key;
#X obj 583 100 w-key;
#X text 637 147 reimplementation of th piano GUI from 'katz';
#X text 631 172 Copyright 2014 by 'katz' and 'Walter Mantovani';
#X msg 594 36 49;
#X msg 609 46 50;
#X msg 624 36 51;
#X msg 639 46 52;
#X msg 654 46 53;
#X msg 669 36 54;
#X msg 684 46 55;
#X msg 699 36 56;
#X msg 713 46 57;
#X msg 729 36 58;
#X msg 744 46 59;
#X msg 759 46 60;
#X msg 774 36 61;
#X msg 789 46 62;
#X msg 804 36 63;
#X msg 819 46 64;
#X msg 834 46 65;
#X msg 849 36 66;
#X msg 864 46 67;
#X msg 879 36 68;
#X msg 893 46 69;
#X msg 909 36 70;
#X msg 924 46 71;
#X msg 939 46 72;
#X obj 87 100 b-key;
#X obj 79 100 w-key;
#X obj 91 100 w-key;
#X obj 80 101 cnv 10 10 38 empty \$1-k000 empty 20 12 0 14 -262144
-262144 0;
#X obj 92 101 cnv 10 10 38 empty \$1-k002 empty 20 12 0 14 -262144
-262144 0;
#X obj 104 101 cnv 10 10 38 empty \$1-k004 empty 20 12 0 14 -262144
-262144 0;
#X obj 116 101 cnv 10 10 38 empty \$1-k005 empty 20 12 0 14 -228992
-228992 0;
#X obj 128 101 cnv 10 10 38 empty \$1-k007 empty 20 12 0 14 -228992
-228992 0;
#X obj 140 101 cnv 10 10 38 empty \$1-k009 empty 20 12 0 14 -228992
-228992 0;
#X obj 152 101 cnv 10 10 38 empty \$1-k011 empty 20 12 0 14 -228992
-228992 0;
#X obj 164 101 cnv 10 10 38 empty \$1-k012 empty 20 12 0 14 -228992
-228992 0;
#X obj 176 101 cnv 10 10 38 empty \$1-k014 empty 20 12 0 14 -228992
-228992 0;
#X obj 188 101 cnv 10 10 38 empty \$1-k016 empty 20 12 0 14 -228992
-228992 0;
#X obj 200 101 cnv 10 10 38 empty \$1-k017 empty 20 12 0 14 -228992
-228992 0;
#X obj 212 101 cnv 10 10 38 empty \$1-k019 empty 20 12 0 14 -228992
-228992 0;
#X obj 224 101 cnv 10 10 38 empty \$1-k021 empty 20 12 0 14 -225271
-225271 0;
#X obj 236 101 cnv 10 10 38 empty \$1-k023 empty 20 12 0 14 -225271
-225271 0;
#X obj 248 101 cnv 10 10 38 empty \$1-k024 empty 20 12 0 14 -225271
-225271 0;
#X obj 260 101 cnv 10 10 38 empty \$1-k026 empty 20 12 0 14 -225271
-225271 0;
#X obj 272 101 cnv 10 10 38 empty \$1-k028 empty 20 12 0 14 -225271
-225271 0;
#X obj 284 101 cnv 10 10 38 empty \$1-k029 empty 20 12 0 14 -225271
-225271 0;
#X obj 296 101 cnv 10 10 38 empty \$1-k031 empty 20 12 0 14 -225271
-225271 0;
#X obj 308 101 cnv 10 10 38 empty \$1-k033 empty 20 12 0 14 -225271
-225271 0;
#X obj 320 101 cnv 10 10 38 empty \$1-k035 empty 20 12 0 14 -225271
-225271 0;
#X obj 332 101 cnv 10 10 38 empty \$1-k036 empty 20 12 0 14 -225271
-225271 0;
#X obj 344 101 cnv 10 10 38 empty \$1-k038 empty 20 12 0 14 -262144
-262144 0;
#X obj 356 101 cnv 10 10 38 empty \$1-k040 empty 20 12 0 14 -262144
-262144 0;
#X obj 368 101 cnv 10 10 38 empty \$1-k041 empty 20 12 0 14 -262144
-262144 0;
#X obj 380 101 cnv 10 10 38 empty \$1-k043 empty 20 12 0 14 -262144
-262144 0;
#X obj 392 101 cnv 10 10 38 empty \$1-k045 empty 20 12 0 14 -262144
-262144 0;
#X obj 404 101 cnv 10 10 38 empty \$1-k047 empty 20 12 0 14 -262144
-262144 0;
#X obj 416 101 cnv 10 10 38 empty \$1-k048 empty 20 12 0 14 -262144
-262144 0;
#X obj 428 101 cnv 10 10 38 empty \$1-k050 empty 20 12 0 14 -262144
-262144 0;
#X obj 440 101 cnv 10 10 38 empty \$1-k052 empty 20 12 0 14 -262144
-262144 0;
#X obj 452 101 cnv 10 10 38 empty \$1-k053 empty 20 12 0 14 -262144
-262144 0;
#X obj 464 101 cnv 10 10 38 empty \$1-k055 empty 20 12 0 14 -262144
-262144 0;
#X obj 476 101 cnv 10 10 38 empty \$1-k057 empty 20 12 0 14 -262144
-262144 0;
#X obj 488 101 cnv 10 10 38 empty \$1-k059 empty 20 12 0 14 -262144
-262144 0;
#X obj 500 101 cnv 10 10 38 empty \$1-k060 empty 20 12 0 14 -262144
-262144 0;
#X obj 512 101 cnv 10 10 38 empty \$1-k062 empty 20 12 0 14 -262144
-262144 0;
#X obj 524 101 cnv 10 10 38 empty \$1-k064 empty 20 12 0 14 -262144
-262144 0;
#X obj 536 101 cnv 10 10 38 empty \$1-k065 empty 20 12 0 14 -262144
-262144 0;
#X obj 548 101 cnv 10 10 38 empty \$1-k067 empty 20 12 0 14 -262144
-262144 0;
#X obj 560 101 cnv 10 10 38 empty \$1-k069 empty 20 12 0 14 -262144
-262144 0;
#X obj 572 101 cnv 10 10 38 empty \$1-k071 empty 20 12 0 14 -262144
-262144 0;
#X obj 584 101 cnv 10 10 38 empty \$1-k072 empty 20 12 0 14 -262144
-262144 0;
#X obj 123 100 cnv 8 8 24 empty empty empty 20 12 0 14 -1 -66577 0
;
#X obj 124 101 cnv 6 6 22 empty \$1-k006 empty 20 12 0 14 -158185 -158185
0;
#X obj 135 100 cnv 8 8 24 empty empty empty 20 12 0 14 -1 -66577 0
;
#X obj 136 101 cnv 6 6 22 empty \$1-k008 empty 20 12 0 14 -158185 -158185
0;
#X obj 147 100 cnv 8 8 24 empty empty empty 20 12 0 14 -1 -66577 0
;
#X obj 148 101 cnv 6 6 22 empty \$1-k010 empty 20 12 0 14 -158185 -158185
0;
#X obj 171 100 cnv 8 8 24 empty empty empty 20 12 0 14 -1 -66577 0
;
#X obj 172 101 cnv 6 6 22 empty \$1-k013 empty 20 12 0 14 -158185 -158185
0;
#X obj 183 100 cnv 8 8 24 empty empty empty 20 12 0 14 -1 -66577 0
;
#X obj 184 101 cnv 6 6 22 empty \$1-k015 empty 20 12 0 14 -158185 -158185
0;
#X obj 207 100 cnv 8 8 24 empty empty empty 20 12 0 14 -1 -66577 0
;
#X obj 208 101 cnv 6 6 22 empty \$1-k018 empty 20 12 0 14 -158185 -158185
0;
#X obj 219 100 cnv 8 8 24 empty empty empty 20 12 0 14 -1 -66577 0
;
#X obj 220 101 cnv 6 6 22 empty \$1-k020 empty 20 12 0 14 -167148 -167148
0;
#X obj 231 100 cnv 8 8 24 empty empty empty 20 12 0 14 -1 -66577 0
;
#X obj 232 101 cnv 6 6 22 empty \$1-k022 empty 20 12 0 14 -167148 -167148
0;
#X obj 255 100 cnv 8 8 24 empty empty empty 20 12 0 14 -1 -66577 0
;
#X obj 256 101 cnv 6 6 22 empty \$1-k025 empty 20 12 0 14 -167148 -167148
0;
#X obj 267 100 cnv 8 8 24 empty empty empty 20 12 0 14 -1 -66577 0
;
#X obj 268 101 cnv 6 6 22 empty \$1-k027 empty 20 12 0 14 -167148 -167148
0;
#X obj 291 100 cnv 8 8 24 empty empty empty 20 12 0 14 -1 -66577 0
;
#X obj 292 101 cnv 6 6 22 empty \$1-k030 empty 20 12 0 14 -167148 -167148
0;
#X obj 303 100 cnv 8 8 24 empty empty empty 20 12 0 14 -1 -66577 0
;
#X obj 304 101 cnv 6 6 22 empty \$1-k032 empty 20 12 0 14 -167148 -167148
0;
#X obj 315 100 cnv 8 8 24 empty empty empty 20 12 0 14 -1 -66577 0
;
#X obj 316 101 cnv 6 6 22 empty \$1-k034 empty 20 12 0 14 -167148 -167148
0;
#X obj 339 100 cnv 8 8 24 empty empty empty 20 12 0 14 -1 -66577 0
;
#X obj 340 101 cnv 6 6 22 empty \$1-k037 empty 20 12 0 14 -167148 -167148
0;
#X obj 351 100 cnv 8 8 24 empty empty empty 20 12 0 14 -1 -66577 0
;
#X obj 352 101 cnv 6 6 22 empty \$1-k039 empty 20 12 0 14 -1 -1 0;
#X obj 375 100 cnv 8 8 24 empty empty empty 20 12 0 14 -1 -66577 0
;
#X obj 376 101 cnv 6 6 22 empty \$1-k042 empty 20 12 0 14 -1 -1 0;
#X obj 387 100 cnv 8 8 24 empty empty empty 20 12 0 14 -1 -66577 0
;
#X obj 388 101 cnv 6 6 22 empty \$1-k044 empty 20 12 0 14 -1 -1 0;
#X obj 399 100 cnv 8 8 24 empty empty empty 20 12 0 14 -1 -66577 0
;
#X obj 400 101 cnv 6 6 22 empty \$1-k046 empty 20 12 0 14 -1 -1 0;
#X obj 423 100 cnv 8 8 24 empty empty empty 20 12 0 14 -1 -66577 0
;
#X obj 424 101 cnv 6 6 22 empty \$1-k049 empty 20 12 0 14 -1 -1 0;
#X obj 435 100 cnv 8 8 24 empty empty empty 20 12 0 14 -1 -66577 0
;
#X obj 436 101 cnv 6 6 22 empty \$1-k051 empty 20 12 0 14 -1 -1 0;
#X obj 459 100 cnv 8 8 24 empty empty empty 20 12 0 14 -1 -66577 0
;
#X obj 460 101 cnv 6 6 22 empty \$1-k054 empty 20 12 0 14 -1 -1 0;
#X obj 471 100 cnv 8 8 24 empty empty empty 20 12 0 14 -1 -66577 0
;
#X obj 472 101 cnv 6 6 22 empty \$1-k056 empty 20 12 0 14 -1 -1 0;
#X obj 483 100 cnv 8 8 24 empty empty empty 20 12 0 14 -1 -66577 0
;
#X obj 484 101 cnv 6 6 22 empty \$1-k058 empty 20 12 0 14 -1 -1 0;
#X obj 507 100 cnv 8 8 24 empty empty empty 20 12 0 14 -1 -66577 0
;
#X obj 508 101 cnv 6 6 22 empty \$1-k061 empty 20 12 0 14 -1 -1 0;
#X obj 519 100 cnv 8 8 24 empty empty empty 20 12 0 14 -1 -66577 0
;
#X obj 520 101 cnv 6 6 22 empty \$1-k063 empty 20 12 0 14 -1 -1 0;
#X obj 543 100 cnv 8 8 24 empty empty empty 20 12 0 14 -1 -66577 0
;
#X obj 544 101 cnv 6 6 22 empty \$1-k066 empty 20 12 0 14 -1 -1 0;
#X obj 555 100 cnv 8 8 24 empty empty empty 20 12 0 14 -1 -66577 0
;
#X obj 556 101 cnv 6 6 22 empty \$1-k068 empty 20 12 0 14 -1 -1 0;
#X obj 567 100 cnv 8 8 24 empty empty empty 20 12 0 14 -1 -66577 0
;
#X obj 568 101 cnv 6 6 22 empty \$1-k070 empty 20 12 0 14 -1 -1 0;
#X obj 87 100 cnv 8 8 24 empty empty empty 20 12 0 14 -1 -66577 0;
#X obj 88 101 cnv 6 6 22 empty \$1-k001 empty 20 12 0 14 -1 -1 0;
#X obj 99 100 cnv 8 8 24 empty empty empty 20 12 0 14 -1 -66577 0;
#X obj 100 101 cnv 6 6 22 empty \$1-k003 empty 20 12 0 14 -1 -1 0;
#X obj 91 584 sustain;
#X obj 149 569 tgl 15 0 empty empty empty 17 7 0 10 -262144 -1 -1 0
1;
#X obj 91 627 t a;
#X obj 91 607 pack 0 0;
#X obj 62 100 hsl 15 20 0 127 0 0 empty empty 36 0 11 2 13 -1 -1 -262144
0 1;
#X obj 59 122 vsl 10 5 0 127 0 0 \$0_fnfi§§§§§adfja§^U \$0_fjasdfjjFJFJ***&*&*aaad
- 3 2 2 16 -262144 -262144 -1 0 1;
#X obj 69 122 vsl 10 5 0 127 0 0 \$0_fnfi§§§§§adfja§^U \$0_fjasdfjjFJFJ***&*&*aaad
+ 2 2 2 12 -262144 -262144 -1 0 1;
#X obj 53 130 hsl 24 10 0 127 0 0 \$0_nf88••˙˙chhalalaksdjf \$0_nnnNnN*7*hdfal$$$
empty -2 -8 0 10 -262144 -262144 -262144 0 1;
#X obj 281 610 colorset;
#X text 52 127 hold;
#X obj 465 523 s \$1_recolor_keyboard;
#X obj 473 497 t b a;
#X obj 191 526 r gui_midi_in;
#X obj 191 549 unpack f f f;
#X obj 191 585 sustain;
#X obj 249 570 tgl 15 0 empty empty empty 17 7 0 10 -262144 -1 -1 0
1;
#X obj 189 609 pack 0 0;
#X connect 0 0 5 0;
#X connect 0 0 56 0;
#X connect 1 0 13 0;
#X connect 2 0 9 0;
#X connect 2 1 4 0;
#X connect 2 1 6 0;
#X connect 2 1 39 0;
#X connect 3 0 1 0;
#X connect 3 1 320 1;
#X connect 4 0 3 0;
#X connect 5 0 2 0;
#X connect 6 0 5 1;
#X connect 7 0 5 1;
#X connect 9 0 3 0;
#X connect 10 0 41 0;
#X connect 11 0 12 0;
#X connect 12 0 17 0;
#X connect 13 0 320 0;
#X connect 15 0 9 1;
#X connect 16 0 14 0;
#X connect 17 0 15 0;
#X connect 17 0 56 1;
#X connect 18 0 19 0;
#X connect 19 0 27 0;
#X connect 20 0 19 1;
#X connect 21 0 19 0;
#X connect 21 1 20 0;
#X connect 22 0 24 0;
#X connect 23 0 24 0;
#X connect 24 0 18 0;
#X connect 24 1 19 1;
#X connect 25 0 324 0;
#X connect 26 0 25 0;
#X connect 27 0 13 1;
#X connect 27 0 18 1;
#X connect 27 0 26 0;
#X connect 27 0 56 3;
#X connect 27 0 331 0;
#X connect 28 0 42 0;
#X connect 29 0 50 0;
#X connect 30 0 51 0;
#X connect 30 1 29 0;
#X connect 31 0 7 0;
#X connect 31 1 1 1;
#X connect 31 2 30 0;
#X connect 32 0 7 0;
#X connect 32 1 1 1;
#X connect 36 0 37 0;
#X connect 37 0 58 0;
#X connect 37 0 59 0;
#X connect 37 0 60 0;
#X connect 38 0 51 1;
#X connect 39 0 63 0;
#X connect 40 0 39 1;
#X connect 41 0 21 0;
#X connect 42 0 19 0;
#X connect 45 0 32 0;
#X connect 45 1 31 0;
#X connect 45 2 30 0;
#X connect 46 0 45 0;
#X connect 46 0 47 0;
#X connect 48 0 49 0;
#X connect 50 0 29 1;
#X connect 50 0 51 1;
#X connect 50 0 56 4;
#X connect 51 0 29 1;
#X connect 51 0 56 4;
#X connect 56 0 8 0;
#X connect 56 1 324 0;
#X connect 57 0 327 0;
#X connect 57 1 321 0;
#X connect 57 1 335 0;
#X connect 61 0 30 1;
#X connect 61 0 35 0;
#X connect 62 0 29 1;
#X connect 62 0 38 0;
#X connect 64 0 40 0;
#X connect 65 0 45 1;
#X connect 66 0 46 0;
#X connect 67 0 46 0;
#X connect 68 0 46 0;
#X connect 69 0 46 0;
#X connect 70 0 46 0;
#X connect 71 0 46 0;
#X connect 72 0 46 0;
#X connect 73 0 46 0;
#X connect 74 0 46 0;
#X connect 75 0 46 0;
#X connect 76 0 46 0;
#X connect 77 0 46 0;
#X connect 78 0 46 0;
#X connect 79 0 46 0;
#X connect 80 0 46 0;
#X connect 81 0 46 0;
#X connect 82 0 46 0;
#X connect 83 0 46 0;
#X connect 84 0 46 0;
#X connect 85 0 46 0;
#X connect 86 0 46 0;
#X connect 87 0 46 0;
#X connect 88 0 46 0;
#X connect 89 0 46 0;
#X connect 90 0 46 0;
#X connect 91 0 46 0;
#X connect 92 0 46 0;
#X connect 93 0 46 0;
#X connect 94 0 46 0;
#X connect 95 0 46 0;
#X connect 96 0 46 0;
#X connect 97 0 46 0;
#X connect 98 0 46 0;
#X connect 99 0 46 0;
#X connect 100 0 46 0;
#X connect 101 0 46 0;
#X connect 102 0 46 0;
#X connect 103 0 46 0;
#X connect 104 0 46 0;
#X connect 105 0 46 0;
#X connect 106 0 46 0;
#X connect 107 0 46 0;
#X connect 108 0 46 0;
#X connect 109 0 46 0;
#X connect 110 0 46 0;
#X connect 111 0 215 0;
#X connect 112 0 214 0;
#X connect 113 0 216 0;
#X connect 114 0 66 0;
#X connect 115 0 85 0;
#X connect 116 0 86 0;
#X connect 117 0 67 0;
#X connect 118 0 87 0;
#X connect 119 0 68 0;
#X connect 120 0 88 0;
#X connect 121 0 69 0;
#X connect 122 0 89 0;
#X connect 123 0 90 0;
#X connect 124 0 70 0;
#X connect 125 0 91 0;
#X connect 126 0 71 0;
#X connect 127 0 92 0;
#X connect 128 0 93 0;
#X connect 129 0 72 0;
#X connect 130 0 94 0;
#X connect 131 0 73 0;
#X connect 132 0 95 0;
#X connect 133 0 74 0;
#X connect 134 0 96 0;
#X connect 135 0 97 0;
#X connect 136 0 75 0;
#X connect 137 0 98 0;
#X connect 138 0 76 0;
#X connect 139 0 99 0;
#X connect 140 0 100 0;
#X connect 141 0 77 0;
#X connect 142 0 101 0;
#X connect 143 0 78 0;
#X connect 144 0 102 0;
#X connect 145 0 79 0;
#X connect 146 0 103 0;
#X connect 147 0 104 0;
#X connect 148 0 80 0;
#X connect 149 0 105 0;
#X connect 150 0 81 0;
#X connect 151 0 106 0;
#X connect 152 0 107 0;
#X connect 153 0 82 0;
#X connect 154 0 108 0;
#X connect 155 0 83 0;
#X connect 156 0 109 0;
#X connect 157 0 84 0;
#X connect 158 0 110 0;
#X connect 159 0 173 0;
#X connect 161 0 111 0;
#X connect 161 0 113 0;
#X connect 161 0 115 0;
#X connect 161 0 116 0;
#X connect 161 0 118 0;
#X connect 161 0 120 0;
#X connect 161 0 122 0;
#X connect 161 0 123 0;
#X connect 161 0 125 0;
#X connect 161 0 127 0;
#X connect 161 0 128 0;
#X connect 161 0 130 0;
#X connect 161 0 132 0;
#X connect 161 0 134 0;
#X connect 161 0 135 0;
#X connect 161 0 137 0;
#X connect 161 0 139 0;
#X connect 161 0 140 0;
#X connect 161 0 142 0;
#X connect 161 0 144 0;
#X connect 161 0 146 0;
#X connect 161 0 147 0;
#X connect 161 0 149 0;
#X connect 161 0 151 0;
#X connect 161 0 152 0;
#X connect 161 0 154 0;
#X connect 161 0 156 0;
#X connect 161 0 158 0;
#X connect 161 0 159 0;
#X connect 161 0 112 0;
#X connect 161 0 114 0;
#X connect 161 0 117 0;
#X connect 161 0 119 0;
#X connect 161 0 121 0;
#X connect 161 0 124 0;
#X connect 161 0 126 0;
#X connect 161 0 129 0;
#X connect 161 0 131 0;
#X connect 161 0 133 0;
#X connect 161 0 136 0;
#X connect 161 0 138 0;
#X connect 161 0 141 0;
#X connect 161 0 143 0;
#X connect 161 0 145 0;
#X connect 161 0 148 0;
#X connect 161 0 150 0;
#X connect 161 0 153 0;
#X connect 161 0 155 0;
#X connect 161 0 157 0;
#X connect 161 0 190 0;
#X connect 161 0 191 0;
#X connect 161 0 192 0;
#X connect 161 0 193 0;
#X connect 161 0 194 0;
#X connect 161 0 195 0;
#X connect 161 0 196 0;
#X connect 161 0 197 0;
#X connect 161 0 198 0;
#X connect 161 0 199 0;
#X connect 161 0 200 0;
#X connect 161 0 201 0;
#X connect 161 0 202 0;
#X connect 161 0 203 0;
#X connect 161 0 204 0;
#X connect 161 0 205 0;
#X connect 161 0 206 0;
#X connect 161 0 207 0;
#X connect 161 0 208 0;
#X connect 161 0 209 0;
#X connect 161 0 210 0;
#X connect 161 0 211 0;
#X connect 161 0 212 0;
#X connect 161 0 213 0;
#X connect 163 0 46 0;
#X connect 164 0 46 0;
#X connect 165 0 46 0;
#X connect 166 0 46 0;
#X connect 167 0 46 0;
#X connect 168 0 46 0;
#X connect 169 0 46 0;
#X connect 170 0 46 0;
#X connect 171 0 46 0;
#X connect 172 0 46 0;
#X connect 173 0 46 0;
#X connect 174 0 46 0;
#X connect 175 0 46 0;
#X connect 176 0 46 0;
#X connect 177 0 46 0;
#X connect 178 0 46 0;
#X connect 179 0 46 0;
#X connect 180 0 46 0;
#X connect 181 0 46 0;
#X connect 182 0 46 0;
#X connect 183 0 46 0;
#X connect 184 0 46 0;
#X connect 185 0 46 0;
#X connect 186 0 46 0;
#X connect 187 0 46 0;
#X connect 190 0 163 0;
#X connect 191 0 174 0;
#X connect 192 0 164 0;
#X connect 193 0 175 0;
#X connect 194 0 176 0;
#X connect 195 0 165 0;
#X connect 196 0 177 0;
#X connect 197 0 166 0;
#X connect 198 0 178 0;
#X connect 199 0 167 0;
#X connect 200 0 179 0;
#X connect 201 0 180 0;
#X connect 202 0 168 0;
#X connect 203 0 181 0;
#X connect 204 0 169 0;
#X connect 205 0 182 0;
#X connect 206 0 183 0;
#X connect 207 0 170 0;
#X connect 208 0 184 0;
#X connect 209 0 171 0;
#X connect 210 0 185 0;
#X connect 211 0 172 0;
#X connect 212 0 186 0;
#X connect 213 0 187 0;
#X connect 214 0 46 0;
#X connect 215 0 46 0;
#X connect 216 0 46 0;
#X connect 320 0 323 0;
#X connect 320 1 323 1;
#X connect 321 0 320 2;
#X connect 322 0 8 0;
#X connect 322 0 16 0;
#X connect 322 0 44 0;
#X connect 322 0 48 0;
#X connect 322 0 160 0;
#X connect 323 0 322 0;
#X connect 324 0 56 2;
#X connect 325 0 23 0;
#X connect 326 0 22 0;
#X connect 327 0 57 0;
#X connect 331 0 330 0;
#X connect 331 1 160 1;
#X connect 332 0 333 0;
#X connect 333 0 334 0;
#X connect 333 1 334 1;
#X connect 334 0 336 0;
#X connect 334 1 336 1;
#X connect 335 0 334 2;
#X connect 336 0 160 0;
#X coords 0 -1 1 1 545 40 2 50 100;
