#N canvas 592 75 375 551 10;
#X obj 30 501 outlet;
#X obj 30 32 vsl 12 35 0 127 0 0 \$0_ndss•¨£•nasofnaksdf \$0_fn8∆ˆøjadjfojsdflkadf
empty 0 -9 0 10 -262144 -262144 -262144 100 1;
#X obj 30 108 demux;
#X obj 57 198 sel 1 0;
#X msg 84 255 1;
#X msg 138 312 2;
#X msg 158 286 0;
#X obj 192 272 t f f;
#X msg 30 462 7;
#X obj 79 401 inlet;
#X obj 79 422 list prepend set;
#X obj 79 445 list trim;
#X text 115 401 RELATIVE NOTE NUMBER;
#X obj 57 76 r \$1_chord_switch;
#X obj 108 137 r \$1_global_keystate;
#X obj 192 329 s \$1_note_demux;
#X obj 219 303 s \$1_chord_note_demux;
#X obj 57 170 1-0_cycle;
#X obj 57 229 t b b;
#X obj 119 229 t b b b;
#X connect 1 0 2 0;
#X connect 2 0 8 0;
#X connect 2 1 17 0;
#X connect 3 0 18 0;
#X connect 3 1 19 0;
#X connect 4 0 7 0;
#X connect 5 0 15 0;
#X connect 6 0 16 0;
#X connect 7 0 15 0;
#X connect 7 1 16 0;
#X connect 8 0 0 0;
#X connect 9 0 10 0;
#X connect 10 0 11 0;
#X connect 11 0 8 0;
#X connect 13 0 2 1;
#X connect 14 0 17 1;
#X connect 17 0 3 0;
#X connect 18 0 8 0;
#X connect 18 1 4 0;
#X connect 19 0 8 0;
#X connect 19 1 5 0;
#X connect 19 2 6 0;
#X coords 0 -1 1 1 12 40 2 30 30;
