#N canvas 733 197 420 308 10;
#X obj 226 144 zexy/list2symbol;
#X text 239 229 reset to blank;
#X obj 169 94 route bang;
#N canvas 673 22 458 308 reset 0;
#X obj 72 21 inlet;
#X obj 69 264 outlet;
#X msg 233 127 label;
#X obj 250 101 loadbang;
#X obj 55 57 trigger bang bang bang;
#X obj 35 99 delay 50;
#X msg 116 130 color 26 22;
#X msg 36 130 color 10 14;
#X connect 0 0 4 0;
#X connect 2 0 1 0;
#X connect 3 0 2 0;
#X connect 4 0 5 0;
#X connect 4 1 6 0;
#X connect 4 2 2 0;
#X connect 5 0 7 0;
#X connect 6 0 1 0;
#X connect 7 0 1 0;
#X restore 169 226 pd reset;
#X msg 129 173 bang;
#X obj 226 174 list prepend label;
#X obj 226 198 list trim;
#N canvas 461 328 257 314 flash 0;
#X obj 35 38 inlet;
#X obj 69 264 outlet;
#X obj 35 129 delay 50;
#X msg 134 200 color 5 22;
#X obj 35 104 trigger bang bang;
#X obj 134 179 purepd/once;
#X msg 36 200 color 10 14;
#X connect 0 0 4 0;
#X connect 2 0 6 0;
#X connect 2 0 5 1;
#X connect 3 0 1 0;
#X connect 4 0 2 0;
#X connect 4 1 5 0;
#X connect 5 0 3 0;
#X connect 6 0 1 0;
#X restore 27 225 pd flash on input;
#X msg 75 192 bang;
#N canvas 365 22 342 273 convert_pointer_to_anything 0;
#X obj 169 102 symbol;
#X obj 169 224 t a;
#X obj 104 177 spigot;
#X obj 137 147 0;
#X obj 232 169 b;
#X obj 232 192 1;
#X obj 104 8 inlet;
#X obj 104 246 outlet;
#X obj 104 35 t a a;
#X obj 169 58 list append foo;
#X obj 169 124 sel if(pointer);
#X msg 169 80 if\$1;
#X text 204 76 (hack to get pointer;
#X text 220 88 to substitute);
#X text 8 38 enormous;
#X text 14 60 hack;
#X text 15 84 to;
#X text 11 104 keep;
#X text 16 125 pointer;
#X text 14 144 from;
#X text 12 203 and crashing;
#X text 13 222 pd;
#X text 10 162 passing thru;
#X text 13 184 [route] and;
#X msg 169 146 (pointer);
#X connect 0 0 10 0;
#X connect 1 0 7 0;
#X connect 2 0 7 0;
#X connect 3 0 2 1;
#X connect 4 0 5 0;
#X connect 5 0 2 1;
#X connect 6 0 8 0;
#X connect 8 0 2 0;
#X connect 8 1 9 0;
#X connect 9 0 11 0;
#X connect 10 0 24 0;
#X connect 10 0 3 0;
#X connect 10 1 4 0;
#X connect 11 0 0 0;
#X connect 24 0 1 0;
#X restore 226 120 pd convert_pointer_to_anything;
#X obj 85 0 cnv 15 15 20 empty empty empty 2 7 0 14 -262144 -262144
0;
#X obj 0 0 cnv 15 100 20 empty inst_map_filename inst1_fn.hmap 3 10
0 14 -233017 -260818 0;
#X obj 169 46 strippath;
#X obj 169 24 l2s;
#X symbolatom 169 69 10 0 0 0 - - -;
#X obj 169 2 r gui_path_inst_map;
#X obj 226 270 send inst_map_filename;
#X connect 0 0 5 0;
#X connect 2 0 3 0;
#X connect 2 1 7 0;
#X connect 2 1 9 0;
#X connect 3 0 16 0;
#X connect 4 0 3 0;
#X connect 5 0 6 0;
#X connect 6 0 16 0;
#X connect 7 0 16 0;
#X connect 8 0 7 0;
#X connect 9 0 0 0;
#X connect 12 0 14 0;
#X connect 13 0 12 0;
#X connect 14 0 2 0;
#X connect 15 0 13 0;
#X coords 0 -1 1 1 100 20 2 0 0;
