#N canvas 718 160 536 510 10;
#X obj 173 167 select return;
#X obj 198 67 trigger bang bang;
#X msg 198 84 clear;
#X symbolatom 173 209 10 0 0 1 last_key_typed - -;
#X msg 35 75 fontsize \$1;
#X msg 32 42 18;
#X msg 69 43 bgcolour lightgrey;
#X obj 49 17 t b b;
#X obj 181 14 loadbang;
#X text 177 184 output when press return;
#X obj 52 259 receive gui_fm_method;
#X obj 52 286 sel 0 1;
#X obj 18 309 bng 15 250 50 0 empty empty empty 17 7 0 10 -262144 -1
-1;
#X obj 102 309 bng 15 250 50 0 empty empty empty 17 7 0 10 -262144
-1 -1;
#X text 56 427 << set values >>;
#X text 17 411 SETUP FOUNDAMENTAL MOTHER TONE;
#X msg 18 430 M 67.8766;
#X msg 162 429 F 440;
#X obj 52 140 f;
#X obj 355 274 list trim;
#X obj 355 254 list prepend set F;
#X obj 229 274 list trim;
#X obj 51 100 entry 95 31 lightgrey black;
#X obj 230 254 list prepend set M;
#X obj 49 210 send fm_input_value;
#X obj 304 385 send fm_input_bang;
#X obj 12 366 spigot;
#X obj 79 366 spigot;
#X msg 1 333 1;
#X msg 33 333 0;
#X msg 78 333 1;
#X msg 110 333 0;
#X obj 236 442 s fm_input_value_m;
#X obj 381 441 s fm_input_value_f;
#X obj 78 390 t b a a;
#X obj 13 389 t b a a;
#X obj 303 358 bng 15 250 50 0 empty empty empty 17 7 0 10 -262144
-1 -1;
#X obj 52 167 t a a a b;
#X obj 109 15 delay 200;
#X connect 0 0 1 0;
#X connect 1 0 2 0;
#X connect 1 1 22 0;
#X connect 2 0 22 0;
#X connect 4 0 22 0;
#X connect 5 0 4 0;
#X connect 6 0 22 0;
#X connect 7 0 6 0;
#X connect 7 1 5 0;
#X connect 8 0 38 0;
#X connect 10 0 11 0;
#X connect 11 0 12 0;
#X connect 11 1 13 0;
#X connect 12 0 28 0;
#X connect 12 0 29 0;
#X connect 13 0 30 0;
#X connect 13 0 31 0;
#X connect 18 0 37 0;
#X connect 19 0 27 0;
#X connect 20 0 19 0;
#X connect 21 0 26 0;
#X connect 22 0 18 0;
#X connect 22 1 3 0;
#X connect 22 1 0 0;
#X connect 23 0 21 0;
#X connect 26 0 35 0;
#X connect 27 0 34 0;
#X connect 28 0 26 1;
#X connect 29 0 27 1;
#X connect 30 0 27 1;
#X connect 31 0 26 1;
#X connect 34 0 36 0;
#X connect 34 0 17 0;
#X connect 34 1 17 0;
#X connect 34 2 33 0;
#X connect 35 0 36 0;
#X connect 35 0 16 0;
#X connect 35 1 16 0;
#X connect 35 2 32 0;
#X connect 36 0 25 0;
#X connect 37 0 24 0;
#X connect 37 1 23 0;
#X connect 37 2 20 0;
#X connect 37 3 36 0;
#X connect 38 0 7 0;
#X coords 0 -1 1 1 96 33 2 50 100;
