#N canvas 179 215 1097 398 10;
#X obj 41 101 entry 34 20 lightgrey black;
#X obj 203 167 select return;
#X obj 203 65 trigger bang bang;
#X msg 203 82 clear;
#X symbolatom 197 209 10 0 0 1 last_key_typed - -;
#X msg 35 75 fontsize \$1;
#X msg 72 43 bgcolour lightgrey;
#X obj 52 17 t b b;
#X obj 112 15 delay 500;
#X obj 184 14 loadbang;
#X text 199 183 output when press return;
#X obj 41 174 list prepend set;
#X obj 41 202 list trim;
#X msg 35 42 12;
#X obj 513 285 pgmout;
#X obj 657 114 tabread ft_channel-poly;
#X obj 449 114 tabread ht_channel-poly;
#X text 466 99 HARMONICS CHANNELS;
#X text 667 98 FUNDAMENTALS CHANNELS;
#X obj 510 33 uzi 32;
#X obj 543 63 moses 17;
#X obj 449 80 - 1;
#X obj 657 80 - 17;
#X obj 449 141 sel 0;
#X obj 657 141 sel 0;
#X floatatom 476 167 5 0 0 0 - - -;
#X floatatom 684 167 5 0 0 0 - - -;
#X obj 576 -30 r gui_midi_pitchbend_main_on-off;
#X obj 823 -13 spigot;
#X obj 510 -13 spigot;
#X floatatom 576 -8 5 0 0 0 - - -;
#X floatatom 879 -8 5 0 0 0 - - -;
#X obj 853 108 r gui_sysex_chanout_value;
#X obj 853 133 prepend set;
#X msg 823 163 1;
#X obj 879 -30 r gui_midi_sysex_main_on-off;
#X text 864 92 SYSEX NOTE-OUT CHANNEL;
#X obj 578 -78 b;
#X msg 410 268 44;
#X obj 339 251 t b a;
#X obj 519 213 t b a;
#X obj 41 149 moses 129;
#X obj 41 287 send gui_midi_progchange_value;
#X text 684 247 Copyright 2013-Today by Walter Mantovani;
#X text 638 273 Licensed under 'GNU Affero General Public License v.3.0'
;
#X text 684 260 armonici.it@gmail.com // www.armonici.it;
#X connect 0 0 41 0;
#X connect 0 1 4 0;
#X connect 0 1 1 0;
#X connect 1 0 2 0;
#X connect 2 0 3 0;
#X connect 2 1 0 0;
#X connect 3 0 0 0;
#X connect 5 0 0 0;
#X connect 6 0 0 0;
#X connect 7 0 6 0;
#X connect 7 1 13 0;
#X connect 8 0 7 0;
#X connect 9 0 8 0;
#X connect 11 0 12 0;
#X connect 12 0 39 0;
#X connect 12 0 42 0;
#X connect 13 0 5 0;
#X connect 15 0 24 0;
#X connect 16 0 23 0;
#X connect 19 2 20 0;
#X connect 20 0 21 0;
#X connect 20 1 22 0;
#X connect 21 0 16 0;
#X connect 22 0 15 0;
#X connect 23 1 25 0;
#X connect 24 1 26 0;
#X connect 25 0 40 0;
#X connect 26 0 40 0;
#X connect 27 0 29 1;
#X connect 27 0 30 0;
#X connect 28 0 34 0;
#X connect 29 0 19 0;
#X connect 32 0 33 0;
#X connect 33 0 34 0;
#X connect 34 0 40 0;
#X connect 35 0 28 1;
#X connect 35 0 31 0;
#X connect 37 0 29 0;
#X connect 37 0 28 0;
#X connect 38 0 14 0;
#X connect 39 0 37 0;
#X connect 39 1 38 0;
#X connect 40 0 38 0;
#X connect 40 1 14 1;
#X connect 41 0 11 0;
#X coords 0 -1 1 1 35 23 2 40 100;
