#N canvas 191 210 334 317 10;
#X floatatom 115 -258 5 0 0 3 ht_frequency - -;
#X obj 116 -99 list prepend label;
#X obj 116 -73 list trim;
#X obj 143 -174 list trim;
#X obj 143 -198 list prepend set;
#X obj 116 -225 t b a;
#X obj 116 -123 l2s;
#X msg 116 -148 1175.99;
#X obj 115 -284 inlet;
#X obj 116 -47 outlet;
#X connect 0 0 5 0;
#X connect 1 0 2 0;
#X connect 2 0 9 0;
#X connect 3 0 7 0;
#X connect 4 0 3 0;
#X connect 5 0 7 0;
#X connect 5 1 4 0;
#X connect 6 0 1 0;
#X connect 7 0 6 0;
#X connect 8 0 0 0;
