#N canvas 139 80 446 295 10;
#X obj 41 101 entry 82 20 lightgrey black;
#X obj 243 167 select return;
#X obj 243 65 trigger bang bang;
#X msg 243 82 clear;
#X symbolatom 237 209 10 0 0 1 last_key_typed - -;
#X msg 35 75 fontsize \$1;
#X msg 72 43 bgcolour lightgrey;
#X obj 52 17 t b b;
#X obj 112 15 delay 500;
#X obj 184 14 loadbang;
#X text 239 183 output when press return;
#X obj 41 160 list prepend set;
#X obj 41 188 list trim;
#X msg 35 42 12;
#X obj 41 217 send gui_sysex_name_input;
#X text 132 247 Copyright 2013-Today by Walter Mantovani;
#X text 110 273 Licensed under 'GPLv3' or 'CC BY-SA v3 unported';
#X text 132 260 armonici.it@gmail.com // www.armonici.it;
#X connect 0 0 11 0;
#X connect 0 1 4 0;
#X connect 0 1 1 0;
#X connect 1 0 2 0;
#X connect 2 0 3 0;
#X connect 2 1 0 0;
#X connect 3 0 0 0;
#X connect 5 0 0 0;
#X connect 6 0 0 0;
#X connect 7 0 6 0;
#X connect 7 1 13 0;
#X connect 8 0 7 0;
#X connect 9 0 8 0;
#X connect 11 0 12 0;
#X connect 12 0 14 0;
#X connect 13 0 5 0;
#X coords 0 -1 1 1 83 23 2 40 100;
