#N canvas 697 53 432 484 10;
#X obj 41 101 entry 34 20 lightgrey black;
#X obj 243 87 select return;
#X obj 243 5 trigger bang bang;
#X msg 243 22 clear;
#X symbolatom 237 123 10 0 0 1 last_key_typed - -;
#X msg 35 55 fontsize \$1;
#X msg 72 23 bgcolour lightgrey;
#X obj 52 -3 t b b;
#X obj 112 -5 delay 500;
#X obj 184 -6 loadbang;
#X text 239 103 output when press return;
#X msg 35 22 12;
#X obj 162 332 r gui_ht-mult_increment;
#X obj 99 149 r gui_ht-mult_zero;
#X obj 77 405 s gui_ht-multiplyer;
#X obj 41 426 s gui_ht-multiplyer_label;
#X obj 132 285 * 2;
#X obj 215 260 / 2;
#X obj 132 309 prepend set;
#X obj 215 284 prepend set;
#X msg 215 307 0.5;
#X obj 245 307 r gui_ht-mult_decrement;
#X msg 41 243 1;
#X obj 41 190 t b f;
#X obj 68 226 prepend set;
#X msg 99 173 1;
#X msg 132 332 2;
#X obj 41 360 list prepend label;
#X obj 41 377 list trim;
#X obj 41 343 l2s;
#X obj 151 173 loadbang;
#X obj 151 194 delay 250;
#X connect 0 0 23 0;
#X connect 0 1 4 0;
#X connect 0 1 1 0;
#X connect 1 0 2 0;
#X connect 2 0 3 0;
#X connect 2 1 0 0;
#X connect 3 0 0 0;
#X connect 5 0 0 0;
#X connect 6 0 0 0;
#X connect 7 0 6 0;
#X connect 7 1 11 0;
#X connect 8 0 7 0;
#X connect 9 0 8 0;
#X connect 11 0 5 0;
#X connect 12 0 26 0;
#X connect 13 0 25 0;
#X connect 16 0 18 0;
#X connect 17 0 19 0;
#X connect 18 0 26 0;
#X connect 19 0 20 0;
#X connect 20 0 23 0;
#X connect 21 0 20 0;
#X connect 22 0 16 0;
#X connect 22 0 17 0;
#X connect 22 0 14 0;
#X connect 22 0 29 0;
#X connect 23 0 22 0;
#X connect 23 1 24 0;
#X connect 24 0 22 0;
#X connect 25 0 23 0;
#X connect 26 0 23 0;
#X connect 27 0 28 0;
#X connect 28 0 15 0;
#X connect 29 0 27 0;
#X connect 30 0 31 0;
#X connect 31 0 25 0;
#X coords 0 -1 1 1 35 23 2 40 100;
