#N canvas 318 411 276 207 10;
#X obj 79 93 moses 1;
#X obj 139 93 moses 1;
#X obj 79 72 == 0;
#X obj 139 72 == 0;
#X obj 79 47 inlet;
#X obj 139 47 inlet;
#X obj 79 117 outlet;
#X obj 139 117 outlet;
#X connect 0 0 6 0;
#X connect 1 0 7 0;
#X connect 2 0 0 0;
#X connect 3 0 1 0;
#X connect 4 0 2 0;
#X connect 5 0 3 0;
