#N canvas 538 22 696 834 10;
#X obj 380 469 int;
#X msg 273 510 A;
#X msg 333 510 B;
#X msg 0 510 C;
#X msg 63 510 D;
#X msg 123 510 E;
#X obj 380 508 t b f;
#X symbolatom 165 666 10 0 0 0 - - -;
#X obj 22 480 select 0 1 2 3 4 5 6 7 8 9 10 11;
#X obj 112 456 mod 12;
#X msg 151 510 F;
#X msg 215 510 G;
#X obj 380 447 / 12;
#X msg 92 510 Eb;
#X msg 303 510 Bb;
#X obj 407 533 - 1;
#X obj 26 -140 inlet;
#X obj 75 214 outlet;
#X obj 112 430 t f f;
#X text 171 -34 <-- MIDI number;
#X text 225 619 in the puredata.hurleur.com forum;
#X text 249 596 MOD version of notoname2.pd;
#X text 290 607 from 'sinewave';
#X floatatom 26 -104 10 0 0 1 midicent - -;
#X obj 143 -33 i;
#X obj 163 214 outlet;
#X obj 51 144 i;
#X obj 243 214 outlet;
#X obj 165 620 pack s;
#X msg 165 643 symbol \$1;
#X text 52 664 MIDI note name -->;
#X text 164 229 cents;
#X text 71 229 note name;
#X msg 33 510 C%;
#X msg 184 510 F%;
#X msg 244 510 G%;
#X obj 143 150 pitch 48;
#X floatatom 112 397 5 0 0 0 - - -;
#X text 239 229 interval;
#X obj 45 -33 i;
#X obj 26 -7 -;
#X obj 77 49 - 1;
#X obj 26 22 moses 0.5;
#X text 88 22 offset;
#X obj 143 -55 + 0.5;
#X obj 26 -72 t a a a;
#X text 115 98 round;
#X text 114 111 offset;
#X obj 77 76 * 10000;
#X obj 51 175 / 100;
#X obj 26 108 + 0.5;
#X obj 26 76 * 10000;
#X obj 77 108 - 0.5;
#X text 320 320 Copyright 2013-Today by Walter Mantovani;
#X text 274 346 Licensed under 'GNU Affero General Public License v.3.0'
;
#X text 320 333 armonici.it@gmail.com // www.armonici.it;
#X connect 0 0 6 0;
#X connect 1 0 28 0;
#X connect 2 0 28 0;
#X connect 3 0 28 0;
#X connect 4 0 28 0;
#X connect 5 0 28 0;
#X connect 6 0 28 0;
#X connect 6 1 15 0;
#X connect 8 0 3 0;
#X connect 8 1 33 0;
#X connect 8 2 4 0;
#X connect 8 3 13 0;
#X connect 8 4 5 0;
#X connect 8 5 10 0;
#X connect 8 6 34 0;
#X connect 8 7 11 0;
#X connect 8 8 35 0;
#X connect 8 9 1 0;
#X connect 8 10 14 0;
#X connect 8 11 2 0;
#X connect 9 0 8 0;
#X connect 10 0 28 0;
#X connect 11 0 28 0;
#X connect 12 0 0 0;
#X connect 13 0 28 0;
#X connect 14 0 28 0;
#X connect 16 0 23 0;
#X connect 18 0 9 0;
#X connect 18 1 12 0;
#X connect 23 0 45 0;
#X connect 24 0 36 0;
#X connect 26 0 49 0;
#X connect 28 0 29 0;
#X connect 29 0 7 0;
#X connect 33 0 28 0;
#X connect 34 0 28 0;
#X connect 35 0 28 0;
#X connect 36 1 17 0;
#X connect 36 3 27 0;
#X connect 37 0 18 0;
#X connect 39 0 40 1;
#X connect 40 0 42 0;
#X connect 41 0 48 0;
#X connect 42 0 51 0;
#X connect 42 1 41 0;
#X connect 44 0 24 0;
#X connect 45 0 40 0;
#X connect 45 1 39 0;
#X connect 45 2 44 0;
#X connect 48 0 52 0;
#X connect 49 0 25 0;
#X connect 50 0 26 0;
#X connect 51 0 50 0;
#X connect 52 0 26 0;
