#N canvas 317 263 1029 541 10;
#X obj 921 -51 int;
#X msg 814 -10 A;
#X msg 874 -10 B;
#X msg 541 -10 C;
#X msg 604 -10 D;
#X msg 664 -10 E;
#X obj 921 -12 t b f;
#X obj 613 -39 select 0 1 2 3 4 5 6 7 8 9 10 11;
#X obj 613 -64 mod 12;
#X msg 692 -10 F;
#X msg 756 -10 G;
#X obj 921 -73 / 12;
#X obj 948 13 - 1;
#X obj 344 -207 inlet;
#X obj 44 287 outlet;
#X obj 613 -90 t f f;
#X text 768 94 in the puredata.hurleur.com forum;
#X text 792 71 MOD version of notoname2.pd;
#X text 833 82 from 'sinewave';
#X floatatom 26 -104 10 0 0 1 midicent - -;
#X obj 159 -33 i;
#X obj 119 287 outlet;
#X obj 51 144 i;
#X obj 192 287 outlet;
#X obj 706 110 pack s;
#X msg 706 140 symbol \$1;
#X text 120 302 cents;
#X text 40 302 note name;
#X obj 159 154 pitch 48;
#X floatatom 613 -123 5 0 0 1 midicent - -;
#X text 188 302 interval;
#X obj 45 -33 i;
#X obj 26 -7 -;
#X obj 77 49 - 1;
#X obj 26 22 moses 0.5;
#X text 88 22 offset;
#X obj 159 -55 + 0.5;
#X obj 26 -72 t a a a;
#X text 115 98 round;
#X text 114 111 offset;
#X obj 77 76 * 10000;
#X obj 51 175 / 100;
#X obj 26 108 + 0.5;
#X obj 26 76 * 10000;
#X obj 77 108 - 0.5;
#X text 710 260 Copyright 2013-Today by Walter Mantovani;
#X text 664 286 Licensed under 'GNU Affero General Public License v.3.0'
;
#X text 710 273 armonici.it@gmail.com // www.armonici.it;
#X obj 266 7 list-find;
#X msg 266 -19 #;
#X obj 327 135 list-l2s;
#X msg 266 83 ♯;
#X obj 266 108 list-replace 1;
#X obj 266 135 list-l2s;
#X obj 284 57 spigot;
#X obj 266 -44 t a b a a;
#X obj 317 32 invert;
#X msg 329 -95 symbol;
#X obj 266 -70 symbol2list;
#X obj 329 -119 loadbang;
#X obj 266 32 b;
#X msg 574 -10 C♯;
#X msg 725 -10 F♯;
#X msg 785 -10 G♯;
#X obj 706 200 list-l2s;
#X obj 344 -181 t a a;
#X obj 706 171 pack s f;
#X obj 378 251 switch 2;
#X obj 378 230 + 1;
#X text 384 170 MODE SELECTOR;
#X obj 378 184 r notename-mode;
#X text 474 205 default value;
#X msg 390 206 0;
#X obj 418 206 loadbang;
#X msg 633 -10 D♯;
#X msg 844 -10 A♯;
#X text 29 -149 RELATIVE MODE;
#X text 29 -136 PLUS PITCH INFOS;
#X text 183 -33 MIDI number;
#X text 257 -99 Replacement;
#X text 251 -112 SHARP SYMBOL;
#X text 604 -151 SHARP MODE;
#X connect 0 0 6 0;
#X connect 1 0 24 0;
#X connect 2 0 24 0;
#X connect 3 0 24 0;
#X connect 4 0 24 0;
#X connect 5 0 24 0;
#X connect 6 0 24 0;
#X connect 6 1 12 0;
#X connect 7 0 3 0;
#X connect 7 1 61 0;
#X connect 7 2 4 0;
#X connect 7 3 74 0;
#X connect 7 4 5 0;
#X connect 7 5 9 0;
#X connect 7 6 62 0;
#X connect 7 7 10 0;
#X connect 7 8 63 0;
#X connect 7 9 1 0;
#X connect 7 10 75 0;
#X connect 7 11 2 0;
#X connect 8 0 7 0;
#X connect 9 0 24 0;
#X connect 10 0 24 0;
#X connect 11 0 0 0;
#X connect 13 0 65 0;
#X connect 15 0 8 0;
#X connect 15 1 11 0;
#X connect 19 0 37 0;
#X connect 20 0 28 0;
#X connect 22 0 41 0;
#X connect 24 0 25 0;
#X connect 25 0 66 0;
#X connect 28 1 58 0;
#X connect 28 3 23 0;
#X connect 28 4 66 1;
#X connect 29 0 15 0;
#X connect 31 0 32 1;
#X connect 32 0 34 0;
#X connect 33 0 40 0;
#X connect 34 0 43 0;
#X connect 34 1 33 0;
#X connect 36 0 20 0;
#X connect 37 0 32 0;
#X connect 37 1 31 0;
#X connect 37 2 36 0;
#X connect 40 0 44 0;
#X connect 41 0 21 0;
#X connect 42 0 22 0;
#X connect 43 0 42 0;
#X connect 44 0 22 0;
#X connect 48 0 60 0;
#X connect 48 1 56 0;
#X connect 49 0 48 0;
#X connect 50 0 67 2;
#X connect 51 0 52 0;
#X connect 52 0 53 0;
#X connect 53 0 67 2;
#X connect 54 0 50 0;
#X connect 55 0 54 0;
#X connect 55 1 49 0;
#X connect 55 2 48 1;
#X connect 55 3 52 2;
#X connect 56 0 54 1;
#X connect 57 0 58 1;
#X connect 58 0 55 0;
#X connect 59 0 57 0;
#X connect 60 0 51 0;
#X connect 61 0 24 0;
#X connect 62 0 24 0;
#X connect 63 0 24 0;
#X connect 64 0 67 1;
#X connect 65 0 29 0;
#X connect 65 1 19 0;
#X connect 66 0 64 0;
#X connect 67 0 14 0;
#X connect 68 0 67 0;
#X connect 70 0 68 0;
#X connect 72 0 68 0;
#X connect 73 0 72 0;
#X connect 74 0 24 0;
#X connect 75 0 24 0;
