#N canvas 528 287 507 440 10;
#X floatatom -756 69 5 0 0 3 cents - -;
#X obj -739 301 list prepend label;
#X obj -739 328 list trim;
#X obj -739 275 l2s;
#X msg -739 248 -5;
#X obj -871 301 list prepend label;
#X obj -871 327 list trim;
#X floatatom -547 68 5 0 0 3 midi_interval - -;
#X obj -546 301 list prepend label;
#X obj -546 327 list trim;
#X obj -546 101 t b a;
#X obj -546 273 l2s;
#X msg -546 247 6;
#X symbolatom -828 68 10 0 0 3 note_name - -;
#X obj -813 11 inlet;
#X obj -871 355 outlet;
#X obj -739 356 outlet;
#X obj -546 355 outlet;
#X text -880 371 note name;
#X text -736 371 cents;
#X text -774 14 midicent;
#X text -562 371 midi_interval;
#X obj -813 37 midinotename;
#X obj -756 105 moses 0;
#X obj -717 128 sel 0;
#X obj -766 173 t b a;
#X obj -739 197 prepend set;
#X obj -663 231 prepend set;
#X obj -663 209 makesymbol %s%s;
#X msg -663 187 list + \$1;
#X msg -744 145 0;
#X obj -690 160 t b a;
#X obj -519 138 prepend set;
#X connect 0 0 23 0;
#X connect 1 0 2 0;
#X connect 2 0 16 0;
#X connect 3 0 1 0;
#X connect 4 0 3 0;
#X connect 5 0 6 0;
#X connect 6 0 15 0;
#X connect 7 0 10 0;
#X connect 8 0 9 0;
#X connect 9 0 17 0;
#X connect 10 0 12 0;
#X connect 10 1 32 0;
#X connect 11 0 8 0;
#X connect 12 0 11 0;
#X connect 13 0 5 0;
#X connect 14 0 22 0;
#X connect 22 0 13 0;
#X connect 22 1 0 0;
#X connect 22 2 7 0;
#X connect 23 0 25 0;
#X connect 23 1 24 0;
#X connect 24 0 30 0;
#X connect 24 1 31 0;
#X connect 25 0 4 0;
#X connect 25 1 26 0;
#X connect 26 0 4 0;
#X connect 27 0 4 0;
#X connect 28 0 27 0;
#X connect 29 0 28 0;
#X connect 30 0 25 0;
#X connect 31 0 4 0;
#X connect 31 1 29 0;
#X connect 32 0 12 0;
