#N canvas 450 133 394 278 10;
#X obj 225 167 select return;
#X obj 225 65 trigger bang bang;
#X msg 225 82 clear;
#X symbolatom 219 209 10 0 0 1 last_key_typed - -;
#X msg 35 75 fontsize \$1;
#X msg 69 43 bgcolour lightgrey;
#X obj 49 17 t b b;
#X obj 181 14 loadbang;
#X msg 32 42 14;
#X text 221 183 output when press return;
#X obj 41 165 send gui_nedx_division_input;
#X obj 41 101 entry 34 20 lightgrey black;
#X obj 109 15 delay 200;
#X connect 0 0 1 0;
#X connect 1 0 2 0;
#X connect 1 1 11 0;
#X connect 2 0 11 0;
#X connect 4 0 11 0;
#X connect 5 0 11 0;
#X connect 6 0 5 0;
#X connect 6 1 8 0;
#X connect 7 0 12 0;
#X connect 8 0 4 0;
#X connect 11 0 10 0;
#X connect 11 1 0 0;
#X connect 11 1 3 0;
#X connect 12 0 6 0;
#X coords 0 -1 1 1 35 23 2 40 100;
