#N canvas 488 80 809 355 10;
#X obj 215 167 select return;
#X obj 215 65 trigger bang bang;
#X msg 215 82 clear;
#X symbolatom 209 209 10 0 0 1 last_key_typed - -;
#X msg 35 75 fontsize \$1;
#X msg 69 43 bgcolour lightgrey;
#X obj 49 17 t b b;
#X obj 181 14 loadbang;
#X msg 32 42 14;
#X text 218 186 output when press return;
#X obj 404 189 pack f f;
#X obj 404 74 t b b f;
#X obj 502 74 t b b f;
#X obj 404 218 list prepend set;
#X obj 404 246 list trim;
#X obj 474 301 send gui_nedx_ud-list;
#X obj 404 276 t b a;
#X obj 41 208 send gui_nedx_unit_input;
#X obj 328 301 send gui_ft_input_bang;
#X obj 404 11 receive gui_nedx_unit_input;
#X obj 502 38 receive gui_nedx_division_input;
#X obj 710 11 loadbang;
#X msg 710 91 2;
#X msg 742 91 12;
#X obj 710 38 delay 200;
#X obj 710 65 t b b;
#X msg 404 158 2;
#X msg 449 158 12;
#X obj 541 108 prepend set;
#X obj 443 108 prepend set;
#X obj 41 101 entry 34 20 lightgrey black;
#X obj 109 15 delay 200;
#X connect 0 0 1 0;
#X connect 1 0 2 0;
#X connect 1 1 30 0;
#X connect 2 0 30 0;
#X connect 4 0 30 0;
#X connect 5 0 30 0;
#X connect 6 0 5 0;
#X connect 6 1 8 0;
#X connect 7 0 31 0;
#X connect 8 0 4 0;
#X connect 10 0 13 0;
#X connect 11 0 26 0;
#X connect 11 1 27 0;
#X connect 11 2 29 0;
#X connect 12 0 26 0;
#X connect 12 1 27 0;
#X connect 12 2 28 0;
#X connect 13 0 14 0;
#X connect 14 0 16 0;
#X connect 16 0 18 0;
#X connect 16 1 15 0;
#X connect 19 0 11 0;
#X connect 20 0 12 0;
#X connect 21 0 24 0;
#X connect 22 0 29 0;
#X connect 23 0 28 0;
#X connect 24 0 25 0;
#X connect 25 0 22 0;
#X connect 25 1 23 0;
#X connect 26 0 10 0;
#X connect 27 0 10 1;
#X connect 28 0 27 0;
#X connect 29 0 26 0;
#X connect 30 0 17 0;
#X connect 30 1 0 0;
#X connect 30 1 3 0;
#X connect 31 0 6 0;
#X coords 0 -1 1 1 35 23 2 40 100;
