#N canvas 292 190 154 254 10;
#X obj 20 21 inlet;
#X obj 31 109 f;
#X obj 88 21 inlet;
#X obj 88 52 t b f;
#X obj 31 168 pack f f;
#X obj 20 52 t f;
#X obj 31 213 outlet;
#X connect 0 0 5 0;
#X connect 1 0 4 0;
#X connect 2 0 3 0;
#X connect 3 0 1 0;
#X connect 3 1 4 1;
#X connect 4 0 6 0;
#X connect 5 0 1 1;
