#N canvas 831 88 322 270 10;
#X msg 19 -406 1;
#X msg 189 -409 0;
#X obj 34 -451 t b b a;
#X msg 53 -406 0;
#X obj 86 -512 inlet;
#X obj 8 -356 outlet;
#X obj 53 -356 outlet;
#X obj 98 -356 outlet;
#X obj 143 -356 outlet;
#X obj 189 -356 outlet;
#X obj 86 -477 route NEDX;
#X obj 143 -451 t b b;
#X text 5 -341 self on;
#X text 99 -342 signal;
#X text 184 -340 self off;
#X text 46 -372 other off;
#X text 129 -374 pass signal;
#X text 33 -433 match;
#X text 143 -433 mismatch;
#X connect 0 0 5 0;
#X connect 1 0 9 0;
#X connect 2 0 0 0;
#X connect 2 1 3 0;
#X connect 2 2 7 0;
#X connect 3 0 6 0;
#X connect 4 0 10 0;
#X connect 10 0 2 0;
#X connect 10 1 11 0;
#X connect 11 0 8 0;
#X connect 11 1 1 0;
