#N canvas 255 270 244 206 10;
#X obj 32 -434 route FILE;
#X msg 149 -369 0;
#X msg 32 -369 1;
#X obj 89 -404 t a b;
#X obj 32 -404 t b b;
#X msg 59 -369 0;
#X obj 14 -321 outlet;
#X obj 59 -321 outlet;
#X obj 104 -321 outlet;
#X obj 149 -321 outlet;
#X obj 32 -468 inlet;
#X connect 0 0 4 0;
#X connect 0 1 3 0;
#X connect 1 0 9 0;
#X connect 2 0 6 0;
#X connect 3 0 8 0;
#X connect 3 1 1 0;
#X connect 4 0 2 0;
#X connect 4 1 5 0;
#X connect 5 0 7 0;
#X connect 10 0 0 0;
