#N canvas 68 148 253 270 10;
#X msg 13 -367 1;
#X msg 183 -370 0;
#X obj 28 -412 t b b a;
#X msg 47 -367 0;
#X obj 84 -473 inlet;
#X obj 2 -317 outlet;
#X obj 47 -317 outlet;
#X obj 92 -317 outlet;
#X obj 137 -317 outlet;
#X obj 183 -317 outlet;
#X obj 137 -412 t a b;
#X obj 84 -438 route HS;
#X text -1 -302 self on;
#X text 38 -333 other off;
#X text 93 -303 signal;
#X text 121 -335 pass signal;
#X text 178 -301 self off;
#X text 27 -391 match;
#X text 137 -391 mismatch;
#X connect 0 0 5 0;
#X connect 1 0 9 0;
#X connect 2 0 0 0;
#X connect 2 1 3 0;
#X connect 2 2 7 0;
#X connect 3 0 6 0;
#X connect 4 0 11 0;
#X connect 10 0 8 0;
#X connect 10 1 1 0;
#X connect 11 0 2 0;
#X connect 11 1 10 0;
